%TF.GenerationSoftware,KiCad,Pcbnew,(5.1.9)-1*%
%TF.CreationDate,2022-02-15T00:45:03-06:00*%
%TF.ProjectId,CC_TOF_PANELIZED,43435f54-4f46-45f5-9041-4e454c495a45,000*%
%TF.SameCoordinates,Original*%
%TF.FileFunction,Copper,L2,Bot*%
%TF.FilePolarity,Positive*%
%FSLAX46Y46*%
G04 Gerber Fmt 4.6, Leading zero omitted, Abs format (unit mm)*
G04 Created by KiCad (PCBNEW (5.1.9)-1) date 2022-02-15 00:45:03*
%MOMM*%
%LPD*%
G01*
G04 APERTURE LIST*
%TA.AperFunction,ComponentPad*%
%ADD10R,1.368000X1.368000*%
%TD*%
%TA.AperFunction,ComponentPad*%
%ADD11C,1.368000*%
%TD*%
%TA.AperFunction,SMDPad,CuDef*%
%ADD12R,0.508000X0.508000*%
%TD*%
%TA.AperFunction,ViaPad*%
%ADD13C,0.600000*%
%TD*%
%TA.AperFunction,Conductor*%
%ADD14C,0.300000*%
%TD*%
%TA.AperFunction,Conductor*%
%ADD15C,0.150000*%
%TD*%
%TA.AperFunction,Conductor*%
%ADD16C,0.100000*%
%TD*%
G04 APERTURE END LIST*
D10*
%TO.P,J2,1*%
%TO.N,VBATT*%
X56215000Y-67840000D03*
D11*
%TO.P,J2,2*%
%TO.N,GND*%
X54215000Y-67840000D03*
%TD*%
D10*
%TO.P,J2,1*%
%TO.N,VBATT*%
X56215000Y-60390000D03*
D11*
%TO.P,J2,2*%
%TO.N,GND*%
X54215000Y-60390000D03*
%TD*%
D10*
%TO.P,J2,1*%
%TO.N,VBATT*%
X56215000Y-52940000D03*
D11*
%TO.P,J2,2*%
%TO.N,GND*%
X54215000Y-52940000D03*
%TD*%
D10*
%TO.P,J2,1*%
%TO.N,VBATT*%
X56215000Y-45490000D03*
D11*
%TO.P,J2,2*%
%TO.N,GND*%
X54215000Y-45490000D03*
%TD*%
D10*
%TO.P,J2,1*%
%TO.N,VBATT*%
X56215000Y-38040000D03*
D11*
%TO.P,J2,2*%
%TO.N,GND*%
X54215000Y-38040000D03*
%TD*%
D12*
%TO.P,U2,1*%
%TO.N,V2.8*%
X78339999Y-66325027D03*
%TO.P,U2,2*%
%TO.N,GND*%
X77540001Y-66325027D03*
%TO.P,U2,3*%
X76740000Y-66325027D03*
%TO.P,U2,4*%
X75939999Y-66325027D03*
%TO.P,U2,5*%
%TO.N,XSHUT2*%
X75140001Y-66325027D03*
%TO.P,U2,6*%
%TO.N,GND*%
X75140054Y-67125000D03*
%TO.P,U2,7*%
%TO.N,Net-(U2-Pad7)*%
X75140001Y-67924973D03*
%TO.P,U2,8*%
%TO.N,Net-(U2-Pad8)*%
X75939999Y-67924973D03*
%TO.P,U2,9*%
%TO.N,SDA*%
X76740000Y-67924973D03*
%TO.P,U2,10*%
%TO.N,SCL*%
X77540001Y-67924973D03*
%TO.P,U2,11*%
%TO.N,V2.8*%
X78339999Y-67924973D03*
%TO.P,U2,12*%
%TO.N,GND*%
X78339946Y-67125000D03*
%TD*%
%TO.P,U2,1*%
%TO.N,V2.8*%
X78339999Y-58875027D03*
%TO.P,U2,2*%
%TO.N,GND*%
X77540001Y-58875027D03*
%TO.P,U2,3*%
X76740000Y-58875027D03*
%TO.P,U2,4*%
X75939999Y-58875027D03*
%TO.P,U2,5*%
%TO.N,XSHUT2*%
X75140001Y-58875027D03*
%TO.P,U2,6*%
%TO.N,GND*%
X75140054Y-59675000D03*
%TO.P,U2,7*%
%TO.N,Net-(U2-Pad7)*%
X75140001Y-60474973D03*
%TO.P,U2,8*%
%TO.N,Net-(U2-Pad8)*%
X75939999Y-60474973D03*
%TO.P,U2,9*%
%TO.N,SDA*%
X76740000Y-60474973D03*
%TO.P,U2,10*%
%TO.N,SCL*%
X77540001Y-60474973D03*
%TO.P,U2,11*%
%TO.N,V2.8*%
X78339999Y-60474973D03*
%TO.P,U2,12*%
%TO.N,GND*%
X78339946Y-59675000D03*
%TD*%
%TO.P,U2,1*%
%TO.N,V2.8*%
X78339999Y-51425027D03*
%TO.P,U2,2*%
%TO.N,GND*%
X77540001Y-51425027D03*
%TO.P,U2,3*%
X76740000Y-51425027D03*
%TO.P,U2,4*%
X75939999Y-51425027D03*
%TO.P,U2,5*%
%TO.N,XSHUT2*%
X75140001Y-51425027D03*
%TO.P,U2,6*%
%TO.N,GND*%
X75140054Y-52225000D03*
%TO.P,U2,7*%
%TO.N,Net-(U2-Pad7)*%
X75140001Y-53024973D03*
%TO.P,U2,8*%
%TO.N,Net-(U2-Pad8)*%
X75939999Y-53024973D03*
%TO.P,U2,9*%
%TO.N,SDA*%
X76740000Y-53024973D03*
%TO.P,U2,10*%
%TO.N,SCL*%
X77540001Y-53024973D03*
%TO.P,U2,11*%
%TO.N,V2.8*%
X78339999Y-53024973D03*
%TO.P,U2,12*%
%TO.N,GND*%
X78339946Y-52225000D03*
%TD*%
%TO.P,U2,1*%
%TO.N,V2.8*%
X78339999Y-43975027D03*
%TO.P,U2,2*%
%TO.N,GND*%
X77540001Y-43975027D03*
%TO.P,U2,3*%
X76740000Y-43975027D03*
%TO.P,U2,4*%
X75939999Y-43975027D03*
%TO.P,U2,5*%
%TO.N,XSHUT2*%
X75140001Y-43975027D03*
%TO.P,U2,6*%
%TO.N,GND*%
X75140054Y-44775000D03*
%TO.P,U2,7*%
%TO.N,Net-(U2-Pad7)*%
X75140001Y-45574973D03*
%TO.P,U2,8*%
%TO.N,Net-(U2-Pad8)*%
X75939999Y-45574973D03*
%TO.P,U2,9*%
%TO.N,SDA*%
X76740000Y-45574973D03*
%TO.P,U2,10*%
%TO.N,SCL*%
X77540001Y-45574973D03*
%TO.P,U2,11*%
%TO.N,V2.8*%
X78339999Y-45574973D03*
%TO.P,U2,12*%
%TO.N,GND*%
X78339946Y-44775000D03*
%TD*%
%TO.P,U2,1*%
%TO.N,V2.8*%
X78339999Y-36525027D03*
%TO.P,U2,2*%
%TO.N,GND*%
X77540001Y-36525027D03*
%TO.P,U2,3*%
X76740000Y-36525027D03*
%TO.P,U2,4*%
X75939999Y-36525027D03*
%TO.P,U2,5*%
%TO.N,XSHUT2*%
X75140001Y-36525027D03*
%TO.P,U2,6*%
%TO.N,GND*%
X75140054Y-37325000D03*
%TO.P,U2,7*%
%TO.N,Net-(U2-Pad7)*%
X75140001Y-38124973D03*
%TO.P,U2,8*%
%TO.N,Net-(U2-Pad8)*%
X75939999Y-38124973D03*
%TO.P,U2,9*%
%TO.N,SDA*%
X76740000Y-38124973D03*
%TO.P,U2,10*%
%TO.N,SCL*%
X77540001Y-38124973D03*
%TO.P,U2,11*%
%TO.N,V2.8*%
X78339999Y-38124973D03*
%TO.P,U2,12*%
%TO.N,GND*%
X78339946Y-37325000D03*
%TD*%
%TO.P,U2,12*%
%TO.N,GND*%
X78339946Y-29875000D03*
%TO.P,U2,11*%
%TO.N,V2.8*%
X78339999Y-30674973D03*
%TO.P,U2,10*%
%TO.N,SCL*%
X77540001Y-30674973D03*
%TO.P,U2,9*%
%TO.N,SDA*%
X76740000Y-30674973D03*
%TO.P,U2,8*%
%TO.N,Net-(U2-Pad8)*%
X75939999Y-30674973D03*
%TO.P,U2,7*%
%TO.N,Net-(U2-Pad7)*%
X75140001Y-30674973D03*
%TO.P,U2,6*%
%TO.N,GND*%
X75140054Y-29875000D03*
%TO.P,U2,5*%
%TO.N,XSHUT2*%
X75140001Y-29075027D03*
%TO.P,U2,4*%
%TO.N,GND*%
X75939999Y-29075027D03*
%TO.P,U2,3*%
X76740000Y-29075027D03*
%TO.P,U2,2*%
X77540001Y-29075027D03*
%TO.P,U2,1*%
%TO.N,V2.8*%
X78339999Y-29075027D03*
%TD*%
D11*
%TO.P,J2,2*%
%TO.N,GND*%
X54215000Y-30590000D03*
D10*
%TO.P,J2,1*%
%TO.N,VBATT*%
X56215000Y-30590000D03*
%TD*%
D13*
%TO.N,GND*%
X98515000Y-31285000D03*
X48882533Y-28675000D03*
X73150000Y-28675000D03*
X65180000Y-30005000D03*
X58910000Y-30015000D03*
X48882533Y-31325000D03*
X71450000Y-30005000D03*
X80804992Y-30215008D03*
X104830000Y-28675000D03*
X104830000Y-31325000D03*
X73150000Y-31045000D03*
X96180000Y-29060000D03*
X100015000Y-28835000D03*
X80804992Y-37665008D03*
X80804992Y-45115008D03*
X80804992Y-52565008D03*
X80804992Y-60015008D03*
X80804992Y-67465008D03*
X73150000Y-38495000D03*
X73150000Y-45945000D03*
X73150000Y-53395000D03*
X73150000Y-60845000D03*
X73150000Y-68295000D03*
X65180000Y-37455000D03*
X65180000Y-44905000D03*
X65180000Y-52355000D03*
X65180000Y-59805000D03*
X65180000Y-67255000D03*
X71450000Y-37455000D03*
X71450000Y-44905000D03*
X71450000Y-52355000D03*
X71450000Y-59805000D03*
X71450000Y-67255000D03*
X73150000Y-36125000D03*
X73150000Y-43575000D03*
X73150000Y-51025000D03*
X73150000Y-58475000D03*
X73150000Y-65925000D03*
X48882533Y-38775000D03*
X48882533Y-46225000D03*
X48882533Y-53675000D03*
X48882533Y-61125000D03*
X48882533Y-68575000D03*
X98515000Y-38735000D03*
X98515000Y-46185000D03*
X98515000Y-53635000D03*
X98515000Y-61085000D03*
X98515000Y-68535000D03*
X104830000Y-36125000D03*
X104830000Y-43575000D03*
X104830000Y-51025000D03*
X104830000Y-58475000D03*
X104830000Y-65925000D03*
X100015000Y-36285000D03*
X100015000Y-43735000D03*
X100015000Y-51185000D03*
X100015000Y-58635000D03*
X100015000Y-66085000D03*
X96180000Y-36510000D03*
X96180000Y-43960000D03*
X96180000Y-51410000D03*
X96180000Y-58860000D03*
X96180000Y-66310000D03*
X48882533Y-36125000D03*
X48882533Y-43575000D03*
X48882533Y-51025000D03*
X48882533Y-58475000D03*
X48882533Y-65925000D03*
X104830000Y-38775000D03*
X104830000Y-46225000D03*
X104830000Y-53675000D03*
X104830000Y-61125000D03*
X104830000Y-68575000D03*
X58910000Y-37465000D03*
X58910000Y-44915000D03*
X58910000Y-52365000D03*
X58910000Y-59815000D03*
X58910000Y-67265000D03*
%TO.N,V2.8*%
X79200000Y-30580000D03*
X79200000Y-29170000D03*
X88149998Y-29050002D03*
X85770000Y-29380000D03*
X85770000Y-36830000D03*
X85770000Y-44280000D03*
X85770000Y-51730000D03*
X85770000Y-59180000D03*
X85770000Y-66630000D03*
X79200000Y-36620000D03*
X79200000Y-44070000D03*
X79200000Y-51520000D03*
X79200000Y-58970000D03*
X79200000Y-66420000D03*
X88149998Y-36500002D03*
X88149998Y-43950002D03*
X88149998Y-51400002D03*
X88149998Y-58850002D03*
X88149998Y-66300002D03*
X79200000Y-38030000D03*
X79200000Y-45480000D03*
X79200000Y-52930000D03*
X79200000Y-60380000D03*
X79200000Y-67830000D03*
%TO.N,XSHUT2*%
X98015000Y-28835000D03*
X84826984Y-29213000D03*
X98015000Y-36285000D03*
X98015000Y-43735000D03*
X98015000Y-51185000D03*
X98015000Y-58635000D03*
X98015000Y-66085000D03*
X84826984Y-36663000D03*
X84826984Y-44113000D03*
X84826984Y-51563000D03*
X84826984Y-59013000D03*
X84826984Y-66463000D03*
%TO.N,XSHUT1*%
X97515000Y-31235000D03*
X91460000Y-30950000D03*
X97515000Y-38685000D03*
X97515000Y-46135000D03*
X97515000Y-53585000D03*
X97515000Y-61035000D03*
X97515000Y-68485000D03*
X91460000Y-38400000D03*
X91460000Y-45850000D03*
X91460000Y-53300000D03*
X91460000Y-60750000D03*
X91460000Y-68200000D03*
%TO.N,SDA*%
X99015000Y-28835000D03*
X89590000Y-29710000D03*
X99015000Y-36285000D03*
X99015000Y-43735000D03*
X99015000Y-51185000D03*
X99015000Y-58635000D03*
X99015000Y-66085000D03*
X89590000Y-37160000D03*
X89590000Y-44610000D03*
X89590000Y-52060000D03*
X89590000Y-59510000D03*
X89590000Y-66960000D03*
%TO.N,SCL*%
X99515000Y-31285000D03*
X90170000Y-30330002D03*
X88060002Y-30330002D03*
X90170000Y-37780002D03*
X90170000Y-45230002D03*
X90170000Y-52680002D03*
X90170000Y-60130002D03*
X90170000Y-67580002D03*
X99515000Y-38735000D03*
X99515000Y-46185000D03*
X99515000Y-53635000D03*
X99515000Y-61085000D03*
X99515000Y-68535000D03*
X88060002Y-37780002D03*
X88060002Y-45230002D03*
X88060002Y-52680002D03*
X88060002Y-60130002D03*
X88060002Y-67580002D03*
%TD*%
D14*
%TO.N,GND*%
X78339946Y-29875000D02*
X75140054Y-29875000D01*
X75939999Y-29075027D02*
X75939999Y-29875000D01*
X76740000Y-29075027D02*
X76740000Y-29875000D01*
X77540001Y-29075027D02*
X77540001Y-29875000D01*
X80464984Y-29875000D02*
X80804992Y-30215008D01*
X78339946Y-29875000D02*
X80464984Y-29875000D01*
X77540001Y-36525027D02*
X77540001Y-37325000D01*
X77540001Y-43975027D02*
X77540001Y-44775000D01*
X77540001Y-51425027D02*
X77540001Y-52225000D01*
X77540001Y-58875027D02*
X77540001Y-59675000D01*
X77540001Y-66325027D02*
X77540001Y-67125000D01*
X78339946Y-37325000D02*
X75140054Y-37325000D01*
X78339946Y-44775000D02*
X75140054Y-44775000D01*
X78339946Y-52225000D02*
X75140054Y-52225000D01*
X78339946Y-59675000D02*
X75140054Y-59675000D01*
X78339946Y-67125000D02*
X75140054Y-67125000D01*
X78339946Y-37325000D02*
X80464984Y-37325000D01*
X78339946Y-44775000D02*
X80464984Y-44775000D01*
X78339946Y-52225000D02*
X80464984Y-52225000D01*
X78339946Y-59675000D02*
X80464984Y-59675000D01*
X78339946Y-67125000D02*
X80464984Y-67125000D01*
X75939999Y-36525027D02*
X75939999Y-37325000D01*
X75939999Y-43975027D02*
X75939999Y-44775000D01*
X75939999Y-51425027D02*
X75939999Y-52225000D01*
X75939999Y-58875027D02*
X75939999Y-59675000D01*
X75939999Y-66325027D02*
X75939999Y-67125000D01*
X76740000Y-36525027D02*
X76740000Y-37325000D01*
X76740000Y-43975027D02*
X76740000Y-44775000D01*
X76740000Y-51425027D02*
X76740000Y-52225000D01*
X76740000Y-58875027D02*
X76740000Y-59675000D01*
X76740000Y-66325027D02*
X76740000Y-67125000D01*
X80464984Y-37325000D02*
X80804992Y-37665008D01*
X80464984Y-44775000D02*
X80804992Y-45115008D01*
X80464984Y-52225000D02*
X80804992Y-52565008D01*
X80464984Y-59675000D02*
X80804992Y-60015008D01*
X80464984Y-67125000D02*
X80804992Y-67465008D01*
%TO.N,V2.8*%
X86099998Y-29050002D02*
X85770000Y-29380000D01*
X88149998Y-29050002D02*
X86099998Y-29050002D01*
X79200000Y-29170000D02*
X78339999Y-29170000D01*
X79200000Y-30580000D02*
X78339999Y-30580000D01*
X88149998Y-36500002D02*
X86099998Y-36500002D01*
X88149998Y-43950002D02*
X86099998Y-43950002D01*
X88149998Y-51400002D02*
X86099998Y-51400002D01*
X88149998Y-58850002D02*
X86099998Y-58850002D01*
X88149998Y-66300002D02*
X86099998Y-66300002D01*
X79200000Y-36620000D02*
X78339999Y-36620000D01*
X79200000Y-44070000D02*
X78339999Y-44070000D01*
X79200000Y-51520000D02*
X78339999Y-51520000D01*
X79200000Y-58970000D02*
X78339999Y-58970000D01*
X79200000Y-66420000D02*
X78339999Y-66420000D01*
X79200000Y-38030000D02*
X78339999Y-38030000D01*
X79200000Y-45480000D02*
X78339999Y-45480000D01*
X79200000Y-52930000D02*
X78339999Y-52930000D01*
X79200000Y-60380000D02*
X78339999Y-60380000D01*
X79200000Y-67830000D02*
X78339999Y-67830000D01*
X86099998Y-36500002D02*
X85770000Y-36830000D01*
X86099998Y-43950002D02*
X85770000Y-44280000D01*
X86099998Y-51400002D02*
X85770000Y-51730000D01*
X86099998Y-58850002D02*
X85770000Y-59180000D01*
X86099998Y-66300002D02*
X85770000Y-66630000D01*
D15*
%TO.N,XSHUT2*%
X75570000Y-28540000D02*
X84153984Y-28540000D01*
X75140001Y-29075027D02*
X75140001Y-28969999D01*
X75140001Y-28969999D02*
X75570000Y-28540000D01*
X84153984Y-28540000D02*
X84826984Y-29213000D01*
X98015000Y-28835000D02*
X97640000Y-28460000D01*
X97640000Y-28460000D02*
X85579984Y-28460000D01*
X85579984Y-28460000D02*
X84826984Y-29213000D01*
X75140001Y-36525027D02*
X75140001Y-36419999D01*
X75140001Y-43975027D02*
X75140001Y-43869999D01*
X75140001Y-51425027D02*
X75140001Y-51319999D01*
X75140001Y-58875027D02*
X75140001Y-58769999D01*
X75140001Y-66325027D02*
X75140001Y-66219999D01*
X75140001Y-36419999D02*
X75570000Y-35990000D01*
X75140001Y-43869999D02*
X75570000Y-43440000D01*
X75140001Y-51319999D02*
X75570000Y-50890000D01*
X75140001Y-58769999D02*
X75570000Y-58340000D01*
X75140001Y-66219999D02*
X75570000Y-65790000D01*
X97640000Y-35910000D02*
X85579984Y-35910000D01*
X97640000Y-43360000D02*
X85579984Y-43360000D01*
X97640000Y-50810000D02*
X85579984Y-50810000D01*
X97640000Y-58260000D02*
X85579984Y-58260000D01*
X97640000Y-65710000D02*
X85579984Y-65710000D01*
X85579984Y-35910000D02*
X84826984Y-36663000D01*
X85579984Y-43360000D02*
X84826984Y-44113000D01*
X85579984Y-50810000D02*
X84826984Y-51563000D01*
X85579984Y-58260000D02*
X84826984Y-59013000D01*
X85579984Y-65710000D02*
X84826984Y-66463000D01*
X98015000Y-36285000D02*
X97640000Y-35910000D01*
X98015000Y-43735000D02*
X97640000Y-43360000D01*
X98015000Y-51185000D02*
X97640000Y-50810000D01*
X98015000Y-58635000D02*
X97640000Y-58260000D01*
X98015000Y-66085000D02*
X97640000Y-65710000D01*
X84153984Y-35990000D02*
X84826984Y-36663000D01*
X84153984Y-43440000D02*
X84826984Y-44113000D01*
X84153984Y-50890000D02*
X84826984Y-51563000D01*
X84153984Y-58340000D02*
X84826984Y-59013000D01*
X84153984Y-65790000D02*
X84826984Y-66463000D01*
X75570000Y-35990000D02*
X84153984Y-35990000D01*
X75570000Y-43440000D02*
X84153984Y-43440000D01*
X75570000Y-50890000D02*
X84153984Y-50890000D01*
X75570000Y-58340000D02*
X84153984Y-58340000D01*
X75570000Y-65790000D02*
X84153984Y-65790000D01*
%TO.N,XSHUT1*%
X97230000Y-30950000D02*
X97515000Y-31235000D01*
X91460000Y-30950000D02*
X97230000Y-30950000D01*
X91460000Y-38400000D02*
X97230000Y-38400000D01*
X91460000Y-45850000D02*
X97230000Y-45850000D01*
X91460000Y-53300000D02*
X97230000Y-53300000D01*
X91460000Y-60750000D02*
X97230000Y-60750000D01*
X91460000Y-68200000D02*
X97230000Y-68200000D01*
X97230000Y-38400000D02*
X97515000Y-38685000D01*
X97230000Y-45850000D02*
X97515000Y-46135000D01*
X97230000Y-53300000D02*
X97515000Y-53585000D01*
X97230000Y-60750000D02*
X97515000Y-61035000D01*
X97230000Y-68200000D02*
X97515000Y-68485000D01*
%TO.N,SDA*%
X98140000Y-29710000D02*
X89590000Y-29710000D01*
X99015000Y-28835000D02*
X98140000Y-29710000D01*
X87746016Y-31553984D02*
X89590000Y-29710000D01*
X77513984Y-31553984D02*
X87746016Y-31553984D01*
X76740000Y-30780000D02*
X77513984Y-31553984D01*
X76740000Y-30674973D02*
X76740000Y-30780000D01*
X98140000Y-37160000D02*
X89590000Y-37160000D01*
X98140000Y-44610000D02*
X89590000Y-44610000D01*
X98140000Y-52060000D02*
X89590000Y-52060000D01*
X98140000Y-59510000D02*
X89590000Y-59510000D01*
X98140000Y-66960000D02*
X89590000Y-66960000D01*
X99015000Y-36285000D02*
X98140000Y-37160000D01*
X99015000Y-43735000D02*
X98140000Y-44610000D01*
X99015000Y-51185000D02*
X98140000Y-52060000D01*
X99015000Y-58635000D02*
X98140000Y-59510000D01*
X99015000Y-66085000D02*
X98140000Y-66960000D01*
X87746016Y-39003984D02*
X89590000Y-37160000D01*
X87746016Y-46453984D02*
X89590000Y-44610000D01*
X87746016Y-53903984D02*
X89590000Y-52060000D01*
X87746016Y-61353984D02*
X89590000Y-59510000D01*
X87746016Y-68803984D02*
X89590000Y-66960000D01*
X76740000Y-38230000D02*
X77513984Y-39003984D01*
X76740000Y-45680000D02*
X77513984Y-46453984D01*
X76740000Y-53130000D02*
X77513984Y-53903984D01*
X76740000Y-60580000D02*
X77513984Y-61353984D01*
X76740000Y-68030000D02*
X77513984Y-68803984D01*
X76740000Y-38124973D02*
X76740000Y-38230000D01*
X76740000Y-45574973D02*
X76740000Y-45680000D01*
X76740000Y-53024973D02*
X76740000Y-53130000D01*
X76740000Y-60474973D02*
X76740000Y-60580000D01*
X76740000Y-67924973D02*
X76740000Y-68030000D01*
X77513984Y-39003984D02*
X87746016Y-39003984D01*
X77513984Y-46453984D02*
X87746016Y-46453984D01*
X77513984Y-53903984D02*
X87746016Y-53903984D01*
X77513984Y-61353984D02*
X87746016Y-61353984D01*
X77513984Y-68803984D02*
X87746016Y-68803984D01*
%TO.N,SCL*%
X99515000Y-31285000D02*
X98560002Y-30330002D01*
X98560002Y-30330002D02*
X90170000Y-30330002D01*
X87186030Y-31203974D02*
X88060002Y-30330002D01*
X77963974Y-31203974D02*
X87186030Y-31203974D01*
X77540001Y-30780001D02*
X77963974Y-31203974D01*
X77540001Y-30674973D02*
X77540001Y-30780001D01*
X99515000Y-38735000D02*
X98560002Y-37780002D01*
X99515000Y-46185000D02*
X98560002Y-45230002D01*
X99515000Y-53635000D02*
X98560002Y-52680002D01*
X99515000Y-61085000D02*
X98560002Y-60130002D01*
X99515000Y-68535000D02*
X98560002Y-67580002D01*
X77963974Y-38653974D02*
X87186030Y-38653974D01*
X77963974Y-46103974D02*
X87186030Y-46103974D01*
X77963974Y-53553974D02*
X87186030Y-53553974D01*
X77963974Y-61003974D02*
X87186030Y-61003974D01*
X77963974Y-68453974D02*
X87186030Y-68453974D01*
X87186030Y-38653974D02*
X88060002Y-37780002D01*
X87186030Y-46103974D02*
X88060002Y-45230002D01*
X87186030Y-53553974D02*
X88060002Y-52680002D01*
X87186030Y-61003974D02*
X88060002Y-60130002D01*
X87186030Y-68453974D02*
X88060002Y-67580002D01*
X77540001Y-38230001D02*
X77963974Y-38653974D01*
X77540001Y-45680001D02*
X77963974Y-46103974D01*
X77540001Y-53130001D02*
X77963974Y-53553974D01*
X77540001Y-60580001D02*
X77963974Y-61003974D01*
X77540001Y-68030001D02*
X77963974Y-68453974D01*
X98560002Y-37780002D02*
X90170000Y-37780002D01*
X98560002Y-45230002D02*
X90170000Y-45230002D01*
X98560002Y-52680002D02*
X90170000Y-52680002D01*
X98560002Y-60130002D02*
X90170000Y-60130002D01*
X98560002Y-67580002D02*
X90170000Y-67580002D01*
X77540001Y-38124973D02*
X77540001Y-38230001D01*
X77540001Y-45574973D02*
X77540001Y-45680001D01*
X77540001Y-53024973D02*
X77540001Y-53130001D01*
X77540001Y-60474973D02*
X77540001Y-60580001D01*
X77540001Y-67924973D02*
X77540001Y-68030001D01*
%TD*%
%TO.N,GND*%
X105490001Y-32035000D02*
X47990000Y-32035000D01*
X47990000Y-31496937D01*
X53555551Y-31496937D01*
X53620125Y-31706504D01*
X53849374Y-31801105D01*
X54092674Y-31849164D01*
X54340676Y-31848834D01*
X54583847Y-31800128D01*
X54809875Y-31706504D01*
X54874449Y-31496937D01*
X54215000Y-30837487D01*
X53555551Y-31496937D01*
X47990000Y-31496937D01*
X47990000Y-30467674D01*
X52955836Y-30467674D01*
X52956166Y-30715676D01*
X53004872Y-30958847D01*
X53098496Y-31184875D01*
X53308063Y-31249449D01*
X53967513Y-30590000D01*
X54462487Y-30590000D01*
X55121937Y-31249449D01*
X55254670Y-31208550D01*
X55254670Y-31274000D01*
X55259980Y-31327909D01*
X55275704Y-31379747D01*
X55301240Y-31427521D01*
X55335605Y-31469395D01*
X55377479Y-31503760D01*
X55425253Y-31529296D01*
X55477091Y-31545020D01*
X55531000Y-31550330D01*
X56899000Y-31550330D01*
X56952909Y-31545020D01*
X57004747Y-31529296D01*
X57052521Y-31503760D01*
X57094395Y-31469395D01*
X57128760Y-31427521D01*
X57154296Y-31379747D01*
X57170020Y-31327909D01*
X57175330Y-31274000D01*
X57175330Y-29906000D01*
X57170020Y-29852091D01*
X57154296Y-29800253D01*
X57128760Y-29752479D01*
X57094395Y-29710605D01*
X57052521Y-29676240D01*
X57004747Y-29650704D01*
X56952909Y-29634980D01*
X56899000Y-29629670D01*
X55531000Y-29629670D01*
X55477091Y-29634980D01*
X55425253Y-29650704D01*
X55377479Y-29676240D01*
X55335605Y-29710605D01*
X55301240Y-29752479D01*
X55275704Y-29800253D01*
X55259980Y-29852091D01*
X55254670Y-29906000D01*
X55254670Y-29971450D01*
X55121937Y-29930551D01*
X54462487Y-30590000D01*
X53967513Y-30590000D01*
X53308063Y-29930551D01*
X53098496Y-29995125D01*
X53003895Y-30224374D01*
X52955836Y-30467674D01*
X47990000Y-30467674D01*
X47990000Y-29683063D01*
X53555551Y-29683063D01*
X54215000Y-30342513D01*
X54874449Y-29683063D01*
X54835375Y-29556250D01*
X74311054Y-29556250D01*
X74454804Y-29700000D01*
X74965054Y-29700000D01*
X74965054Y-29680000D01*
X75230241Y-29680000D01*
X75253791Y-29712469D01*
X75336901Y-29789421D01*
X75433428Y-29848681D01*
X75539660Y-29887970D01*
X75621249Y-29904027D01*
X75764999Y-29760277D01*
X75764999Y-29700000D01*
X75825304Y-29700000D01*
X75961212Y-29564092D01*
X75987291Y-29620782D01*
X76053792Y-29712469D01*
X76136902Y-29789421D01*
X76155657Y-29800935D01*
X76258749Y-29904027D01*
X76339999Y-29888037D01*
X76421250Y-29904027D01*
X76524342Y-29800935D01*
X76543097Y-29789421D01*
X76626207Y-29712469D01*
X76692708Y-29620782D01*
X76740000Y-29517979D01*
X76787292Y-29620782D01*
X76853793Y-29712469D01*
X76936903Y-29789421D01*
X76955658Y-29800935D01*
X77058750Y-29904027D01*
X77140000Y-29888037D01*
X77221251Y-29904027D01*
X77324343Y-29800935D01*
X77343098Y-29789421D01*
X77426208Y-29712469D01*
X77492709Y-29620782D01*
X77518788Y-29564092D01*
X77654696Y-29700000D01*
X77715001Y-29700000D01*
X77715001Y-29760277D01*
X77858751Y-29904027D01*
X77940340Y-29887970D01*
X78046572Y-29848681D01*
X78143099Y-29789421D01*
X78226209Y-29712469D01*
X78249759Y-29680000D01*
X78514946Y-29680000D01*
X78514946Y-29700000D01*
X78976986Y-29700000D01*
X79032279Y-29722903D01*
X79143367Y-29745000D01*
X79256633Y-29745000D01*
X79367721Y-29722903D01*
X79472365Y-29679558D01*
X79566541Y-29616632D01*
X79646632Y-29536541D01*
X79709558Y-29442365D01*
X79752903Y-29337721D01*
X79775000Y-29226633D01*
X79775000Y-29113367D01*
X79752903Y-29002279D01*
X79709558Y-28897635D01*
X79704456Y-28890000D01*
X84009011Y-28890000D01*
X84255865Y-29136855D01*
X84251984Y-29156367D01*
X84251984Y-29269633D01*
X84274081Y-29380721D01*
X84317426Y-29485365D01*
X84380352Y-29579541D01*
X84460443Y-29659632D01*
X84554619Y-29722558D01*
X84659263Y-29765903D01*
X84770351Y-29788000D01*
X84883617Y-29788000D01*
X84994705Y-29765903D01*
X85099349Y-29722558D01*
X85193525Y-29659632D01*
X85242971Y-29610186D01*
X85260442Y-29652365D01*
X85323368Y-29746541D01*
X85403459Y-29826632D01*
X85497635Y-29889558D01*
X85602279Y-29932903D01*
X85713367Y-29955000D01*
X85826633Y-29955000D01*
X85937721Y-29932903D01*
X86042365Y-29889558D01*
X86136541Y-29826632D01*
X86216632Y-29746541D01*
X86279558Y-29652365D01*
X86322903Y-29547721D01*
X86337368Y-29475002D01*
X87761825Y-29475002D01*
X87783457Y-29496634D01*
X87877633Y-29559560D01*
X87982277Y-29602905D01*
X88093365Y-29625002D01*
X88206631Y-29625002D01*
X88317719Y-29602905D01*
X88422363Y-29559560D01*
X88516539Y-29496634D01*
X88596630Y-29416543D01*
X88659556Y-29322367D01*
X88702901Y-29217723D01*
X88724998Y-29106635D01*
X88724998Y-28993369D01*
X88702901Y-28882281D01*
X88672961Y-28810000D01*
X97440000Y-28810000D01*
X97440000Y-28891633D01*
X97462097Y-29002721D01*
X97505442Y-29107365D01*
X97568368Y-29201541D01*
X97648459Y-29281632D01*
X97742635Y-29344558D01*
X97779915Y-29360000D01*
X90047684Y-29360000D01*
X90036632Y-29343459D01*
X89956541Y-29263368D01*
X89862365Y-29200442D01*
X89757721Y-29157097D01*
X89646633Y-29135000D01*
X89533367Y-29135000D01*
X89422279Y-29157097D01*
X89317635Y-29200442D01*
X89223459Y-29263368D01*
X89143368Y-29343459D01*
X89080442Y-29437635D01*
X89037097Y-29542279D01*
X89015000Y-29653367D01*
X89015000Y-29766633D01*
X89018881Y-29786144D01*
X88617856Y-30187170D01*
X88612905Y-30162281D01*
X88569560Y-30057637D01*
X88506634Y-29963461D01*
X88426543Y-29883370D01*
X88332367Y-29820444D01*
X88227723Y-29777099D01*
X88116635Y-29755002D01*
X88003369Y-29755002D01*
X87892281Y-29777099D01*
X87787637Y-29820444D01*
X87693461Y-29883370D01*
X87613370Y-29963461D01*
X87550444Y-30057637D01*
X87507099Y-30162281D01*
X87485002Y-30273369D01*
X87485002Y-30386635D01*
X87488883Y-30406147D01*
X87041057Y-30853974D01*
X79708483Y-30853974D01*
X79709558Y-30852365D01*
X79752903Y-30747721D01*
X79775000Y-30636633D01*
X79775000Y-30523367D01*
X79752903Y-30412279D01*
X79709558Y-30307635D01*
X79646632Y-30213459D01*
X79566541Y-30133368D01*
X79472365Y-30070442D01*
X79367721Y-30027097D01*
X79256633Y-30005000D01*
X79143367Y-30005000D01*
X79032279Y-30027097D01*
X78976986Y-30050000D01*
X78514946Y-30050000D01*
X78514946Y-30070000D01*
X78164946Y-30070000D01*
X78164946Y-30050000D01*
X77654696Y-30050000D01*
X77560053Y-30144643D01*
X77286001Y-30144643D01*
X77232092Y-30149953D01*
X77180254Y-30165677D01*
X77140000Y-30187193D01*
X77099747Y-30165677D01*
X77047909Y-30149953D01*
X76994000Y-30144643D01*
X76486000Y-30144643D01*
X76432091Y-30149953D01*
X76380253Y-30165677D01*
X76339999Y-30187193D01*
X76299746Y-30165677D01*
X76247908Y-30149953D01*
X76193999Y-30144643D01*
X75919947Y-30144643D01*
X75825304Y-30050000D01*
X75315054Y-30050000D01*
X75315054Y-30070000D01*
X74965054Y-30070000D01*
X74965054Y-30050000D01*
X74454804Y-30050000D01*
X74311054Y-30193750D01*
X74327111Y-30275339D01*
X74366400Y-30381571D01*
X74425660Y-30478098D01*
X74502612Y-30561208D01*
X74594299Y-30627709D01*
X74609671Y-30634780D01*
X74609671Y-30928973D01*
X74614981Y-30982882D01*
X74630705Y-31034720D01*
X74656241Y-31082494D01*
X74690606Y-31124368D01*
X74732480Y-31158733D01*
X74780254Y-31184269D01*
X74832092Y-31199993D01*
X74886001Y-31205303D01*
X75394001Y-31205303D01*
X75447910Y-31199993D01*
X75499748Y-31184269D01*
X75540000Y-31162754D01*
X75580252Y-31184269D01*
X75632090Y-31199993D01*
X75685999Y-31205303D01*
X76193999Y-31205303D01*
X76247908Y-31199993D01*
X76299746Y-31184269D01*
X76340000Y-31162753D01*
X76380253Y-31184269D01*
X76432091Y-31199993D01*
X76486000Y-31205303D01*
X76670330Y-31205303D01*
X77254339Y-31789314D01*
X77265299Y-31802669D01*
X77308233Y-31837903D01*
X77318594Y-31846406D01*
X77379397Y-31878906D01*
X77445372Y-31898919D01*
X77513984Y-31905677D01*
X77531173Y-31903984D01*
X87728828Y-31903984D01*
X87746016Y-31905677D01*
X87763204Y-31903984D01*
X87763205Y-31903984D01*
X87814628Y-31898919D01*
X87880603Y-31878906D01*
X87941406Y-31846406D01*
X87994701Y-31802669D01*
X88005669Y-31789304D01*
X89513856Y-30281119D01*
X89533367Y-30285000D01*
X89595000Y-30285000D01*
X89595000Y-30386635D01*
X89617097Y-30497723D01*
X89660442Y-30602367D01*
X89723368Y-30696543D01*
X89803459Y-30776634D01*
X89897635Y-30839560D01*
X90002279Y-30882905D01*
X90113367Y-30905002D01*
X90226633Y-30905002D01*
X90337721Y-30882905D01*
X90442365Y-30839560D01*
X90536541Y-30776634D01*
X90616632Y-30696543D01*
X90627684Y-30680002D01*
X90949462Y-30680002D01*
X90907097Y-30782279D01*
X90885000Y-30893367D01*
X90885000Y-31006633D01*
X90907097Y-31117721D01*
X90950442Y-31222365D01*
X91013368Y-31316541D01*
X91093459Y-31396632D01*
X91187635Y-31459558D01*
X91292279Y-31502903D01*
X91403367Y-31525000D01*
X91516633Y-31525000D01*
X91627721Y-31502903D01*
X91732365Y-31459558D01*
X91826541Y-31396632D01*
X91906632Y-31316541D01*
X91917684Y-31300000D01*
X96941664Y-31300000D01*
X96962097Y-31402721D01*
X97005442Y-31507365D01*
X97068368Y-31601541D01*
X97148459Y-31681632D01*
X97242635Y-31744558D01*
X97347279Y-31787903D01*
X97458367Y-31810000D01*
X97571633Y-31810000D01*
X97682721Y-31787903D01*
X97787365Y-31744558D01*
X97881541Y-31681632D01*
X97961632Y-31601541D01*
X98024558Y-31507365D01*
X98067903Y-31402721D01*
X98090000Y-31291633D01*
X98090000Y-31178367D01*
X98067903Y-31067279D01*
X98024558Y-30962635D01*
X97961632Y-30868459D01*
X97881541Y-30788368D01*
X97787365Y-30725442D01*
X97682721Y-30682097D01*
X97672189Y-30680002D01*
X98415029Y-30680002D01*
X98943881Y-31208855D01*
X98940000Y-31228367D01*
X98940000Y-31341633D01*
X98962097Y-31452721D01*
X99005442Y-31557365D01*
X99068368Y-31651541D01*
X99148459Y-31731632D01*
X99242635Y-31794558D01*
X99347279Y-31837903D01*
X99458367Y-31860000D01*
X99571633Y-31860000D01*
X99682721Y-31837903D01*
X99787365Y-31794558D01*
X99881541Y-31731632D01*
X99961632Y-31651541D01*
X100024558Y-31557365D01*
X100067903Y-31452721D01*
X100090000Y-31341633D01*
X100090000Y-31228367D01*
X100067903Y-31117279D01*
X100024558Y-31012635D01*
X99961632Y-30918459D01*
X99881541Y-30838368D01*
X99787365Y-30775442D01*
X99682721Y-30732097D01*
X99571633Y-30710000D01*
X99458367Y-30710000D01*
X99438855Y-30713881D01*
X98819655Y-30094682D01*
X98808687Y-30081317D01*
X98755392Y-30037580D01*
X98694589Y-30005080D01*
X98628614Y-29985067D01*
X98577191Y-29980002D01*
X98577190Y-29980002D01*
X98560002Y-29978309D01*
X98542814Y-29980002D01*
X98362710Y-29980002D01*
X98388685Y-29958685D01*
X98399653Y-29945320D01*
X98938855Y-29406119D01*
X98958367Y-29410000D01*
X99071633Y-29410000D01*
X99182721Y-29387903D01*
X99287365Y-29344558D01*
X99381541Y-29281632D01*
X99461632Y-29201541D01*
X99524558Y-29107365D01*
X99567903Y-29002721D01*
X99590000Y-28891633D01*
X99590000Y-28778367D01*
X99567903Y-28667279D01*
X99524558Y-28562635D01*
X99461632Y-28468459D01*
X99381541Y-28388368D01*
X99287365Y-28325442D01*
X99182721Y-28282097D01*
X99071633Y-28260000D01*
X98958367Y-28260000D01*
X98847279Y-28282097D01*
X98742635Y-28325442D01*
X98648459Y-28388368D01*
X98568368Y-28468459D01*
X98515000Y-28548330D01*
X98461632Y-28468459D01*
X98381541Y-28388368D01*
X98287365Y-28325442D01*
X98182721Y-28282097D01*
X98071633Y-28260000D01*
X97958367Y-28260000D01*
X97938854Y-28263881D01*
X97899653Y-28224680D01*
X97888685Y-28211315D01*
X97835390Y-28167578D01*
X97774587Y-28135078D01*
X97708612Y-28115065D01*
X97657189Y-28110000D01*
X97657188Y-28110000D01*
X97640000Y-28108307D01*
X97622812Y-28110000D01*
X85597173Y-28110000D01*
X85579984Y-28108307D01*
X85511372Y-28115065D01*
X85445396Y-28135078D01*
X85384594Y-28167578D01*
X85331299Y-28211315D01*
X85320335Y-28224675D01*
X84903129Y-28641881D01*
X84883617Y-28638000D01*
X84770351Y-28638000D01*
X84750839Y-28641881D01*
X84413637Y-28304680D01*
X84402669Y-28291315D01*
X84349374Y-28247578D01*
X84288571Y-28215078D01*
X84222596Y-28195065D01*
X84171173Y-28190000D01*
X84171172Y-28190000D01*
X84153984Y-28188307D01*
X84136796Y-28190000D01*
X75587185Y-28190000D01*
X75569999Y-28188307D01*
X75552813Y-28190000D01*
X75552811Y-28190000D01*
X75501388Y-28195065D01*
X75435413Y-28215078D01*
X75374610Y-28247578D01*
X75321315Y-28291315D01*
X75310355Y-28304670D01*
X75070329Y-28544697D01*
X74886001Y-28544697D01*
X74832092Y-28550007D01*
X74780254Y-28565731D01*
X74732480Y-28591267D01*
X74690606Y-28625632D01*
X74656241Y-28667506D01*
X74630705Y-28715280D01*
X74614981Y-28767118D01*
X74609671Y-28821027D01*
X74609671Y-29115220D01*
X74594299Y-29122291D01*
X74502612Y-29188792D01*
X74425660Y-29271902D01*
X74366400Y-29368429D01*
X74327111Y-29474661D01*
X74311054Y-29556250D01*
X54835375Y-29556250D01*
X54809875Y-29473496D01*
X54580626Y-29378895D01*
X54337326Y-29330836D01*
X54089324Y-29331166D01*
X53846153Y-29379872D01*
X53620125Y-29473496D01*
X53555551Y-29683063D01*
X47990000Y-29683063D01*
X47990000Y-28085000D01*
X105490000Y-28085000D01*
X105490001Y-32035000D01*
%TA.AperFunction,Conductor*%
D16*
G36*
X105490001Y-32035000D02*
G01*
X47990000Y-32035000D01*
X47990000Y-31496937D01*
X53555551Y-31496937D01*
X53620125Y-31706504D01*
X53849374Y-31801105D01*
X54092674Y-31849164D01*
X54340676Y-31848834D01*
X54583847Y-31800128D01*
X54809875Y-31706504D01*
X54874449Y-31496937D01*
X54215000Y-30837487D01*
X53555551Y-31496937D01*
X47990000Y-31496937D01*
X47990000Y-30467674D01*
X52955836Y-30467674D01*
X52956166Y-30715676D01*
X53004872Y-30958847D01*
X53098496Y-31184875D01*
X53308063Y-31249449D01*
X53967513Y-30590000D01*
X54462487Y-30590000D01*
X55121937Y-31249449D01*
X55254670Y-31208550D01*
X55254670Y-31274000D01*
X55259980Y-31327909D01*
X55275704Y-31379747D01*
X55301240Y-31427521D01*
X55335605Y-31469395D01*
X55377479Y-31503760D01*
X55425253Y-31529296D01*
X55477091Y-31545020D01*
X55531000Y-31550330D01*
X56899000Y-31550330D01*
X56952909Y-31545020D01*
X57004747Y-31529296D01*
X57052521Y-31503760D01*
X57094395Y-31469395D01*
X57128760Y-31427521D01*
X57154296Y-31379747D01*
X57170020Y-31327909D01*
X57175330Y-31274000D01*
X57175330Y-29906000D01*
X57170020Y-29852091D01*
X57154296Y-29800253D01*
X57128760Y-29752479D01*
X57094395Y-29710605D01*
X57052521Y-29676240D01*
X57004747Y-29650704D01*
X56952909Y-29634980D01*
X56899000Y-29629670D01*
X55531000Y-29629670D01*
X55477091Y-29634980D01*
X55425253Y-29650704D01*
X55377479Y-29676240D01*
X55335605Y-29710605D01*
X55301240Y-29752479D01*
X55275704Y-29800253D01*
X55259980Y-29852091D01*
X55254670Y-29906000D01*
X55254670Y-29971450D01*
X55121937Y-29930551D01*
X54462487Y-30590000D01*
X53967513Y-30590000D01*
X53308063Y-29930551D01*
X53098496Y-29995125D01*
X53003895Y-30224374D01*
X52955836Y-30467674D01*
X47990000Y-30467674D01*
X47990000Y-29683063D01*
X53555551Y-29683063D01*
X54215000Y-30342513D01*
X54874449Y-29683063D01*
X54835375Y-29556250D01*
X74311054Y-29556250D01*
X74454804Y-29700000D01*
X74965054Y-29700000D01*
X74965054Y-29680000D01*
X75230241Y-29680000D01*
X75253791Y-29712469D01*
X75336901Y-29789421D01*
X75433428Y-29848681D01*
X75539660Y-29887970D01*
X75621249Y-29904027D01*
X75764999Y-29760277D01*
X75764999Y-29700000D01*
X75825304Y-29700000D01*
X75961212Y-29564092D01*
X75987291Y-29620782D01*
X76053792Y-29712469D01*
X76136902Y-29789421D01*
X76155657Y-29800935D01*
X76258749Y-29904027D01*
X76339999Y-29888037D01*
X76421250Y-29904027D01*
X76524342Y-29800935D01*
X76543097Y-29789421D01*
X76626207Y-29712469D01*
X76692708Y-29620782D01*
X76740000Y-29517979D01*
X76787292Y-29620782D01*
X76853793Y-29712469D01*
X76936903Y-29789421D01*
X76955658Y-29800935D01*
X77058750Y-29904027D01*
X77140000Y-29888037D01*
X77221251Y-29904027D01*
X77324343Y-29800935D01*
X77343098Y-29789421D01*
X77426208Y-29712469D01*
X77492709Y-29620782D01*
X77518788Y-29564092D01*
X77654696Y-29700000D01*
X77715001Y-29700000D01*
X77715001Y-29760277D01*
X77858751Y-29904027D01*
X77940340Y-29887970D01*
X78046572Y-29848681D01*
X78143099Y-29789421D01*
X78226209Y-29712469D01*
X78249759Y-29680000D01*
X78514946Y-29680000D01*
X78514946Y-29700000D01*
X78976986Y-29700000D01*
X79032279Y-29722903D01*
X79143367Y-29745000D01*
X79256633Y-29745000D01*
X79367721Y-29722903D01*
X79472365Y-29679558D01*
X79566541Y-29616632D01*
X79646632Y-29536541D01*
X79709558Y-29442365D01*
X79752903Y-29337721D01*
X79775000Y-29226633D01*
X79775000Y-29113367D01*
X79752903Y-29002279D01*
X79709558Y-28897635D01*
X79704456Y-28890000D01*
X84009011Y-28890000D01*
X84255865Y-29136855D01*
X84251984Y-29156367D01*
X84251984Y-29269633D01*
X84274081Y-29380721D01*
X84317426Y-29485365D01*
X84380352Y-29579541D01*
X84460443Y-29659632D01*
X84554619Y-29722558D01*
X84659263Y-29765903D01*
X84770351Y-29788000D01*
X84883617Y-29788000D01*
X84994705Y-29765903D01*
X85099349Y-29722558D01*
X85193525Y-29659632D01*
X85242971Y-29610186D01*
X85260442Y-29652365D01*
X85323368Y-29746541D01*
X85403459Y-29826632D01*
X85497635Y-29889558D01*
X85602279Y-29932903D01*
X85713367Y-29955000D01*
X85826633Y-29955000D01*
X85937721Y-29932903D01*
X86042365Y-29889558D01*
X86136541Y-29826632D01*
X86216632Y-29746541D01*
X86279558Y-29652365D01*
X86322903Y-29547721D01*
X86337368Y-29475002D01*
X87761825Y-29475002D01*
X87783457Y-29496634D01*
X87877633Y-29559560D01*
X87982277Y-29602905D01*
X88093365Y-29625002D01*
X88206631Y-29625002D01*
X88317719Y-29602905D01*
X88422363Y-29559560D01*
X88516539Y-29496634D01*
X88596630Y-29416543D01*
X88659556Y-29322367D01*
X88702901Y-29217723D01*
X88724998Y-29106635D01*
X88724998Y-28993369D01*
X88702901Y-28882281D01*
X88672961Y-28810000D01*
X97440000Y-28810000D01*
X97440000Y-28891633D01*
X97462097Y-29002721D01*
X97505442Y-29107365D01*
X97568368Y-29201541D01*
X97648459Y-29281632D01*
X97742635Y-29344558D01*
X97779915Y-29360000D01*
X90047684Y-29360000D01*
X90036632Y-29343459D01*
X89956541Y-29263368D01*
X89862365Y-29200442D01*
X89757721Y-29157097D01*
X89646633Y-29135000D01*
X89533367Y-29135000D01*
X89422279Y-29157097D01*
X89317635Y-29200442D01*
X89223459Y-29263368D01*
X89143368Y-29343459D01*
X89080442Y-29437635D01*
X89037097Y-29542279D01*
X89015000Y-29653367D01*
X89015000Y-29766633D01*
X89018881Y-29786144D01*
X88617856Y-30187170D01*
X88612905Y-30162281D01*
X88569560Y-30057637D01*
X88506634Y-29963461D01*
X88426543Y-29883370D01*
X88332367Y-29820444D01*
X88227723Y-29777099D01*
X88116635Y-29755002D01*
X88003369Y-29755002D01*
X87892281Y-29777099D01*
X87787637Y-29820444D01*
X87693461Y-29883370D01*
X87613370Y-29963461D01*
X87550444Y-30057637D01*
X87507099Y-30162281D01*
X87485002Y-30273369D01*
X87485002Y-30386635D01*
X87488883Y-30406147D01*
X87041057Y-30853974D01*
X79708483Y-30853974D01*
X79709558Y-30852365D01*
X79752903Y-30747721D01*
X79775000Y-30636633D01*
X79775000Y-30523367D01*
X79752903Y-30412279D01*
X79709558Y-30307635D01*
X79646632Y-30213459D01*
X79566541Y-30133368D01*
X79472365Y-30070442D01*
X79367721Y-30027097D01*
X79256633Y-30005000D01*
X79143367Y-30005000D01*
X79032279Y-30027097D01*
X78976986Y-30050000D01*
X78514946Y-30050000D01*
X78514946Y-30070000D01*
X78164946Y-30070000D01*
X78164946Y-30050000D01*
X77654696Y-30050000D01*
X77560053Y-30144643D01*
X77286001Y-30144643D01*
X77232092Y-30149953D01*
X77180254Y-30165677D01*
X77140000Y-30187193D01*
X77099747Y-30165677D01*
X77047909Y-30149953D01*
X76994000Y-30144643D01*
X76486000Y-30144643D01*
X76432091Y-30149953D01*
X76380253Y-30165677D01*
X76339999Y-30187193D01*
X76299746Y-30165677D01*
X76247908Y-30149953D01*
X76193999Y-30144643D01*
X75919947Y-30144643D01*
X75825304Y-30050000D01*
X75315054Y-30050000D01*
X75315054Y-30070000D01*
X74965054Y-30070000D01*
X74965054Y-30050000D01*
X74454804Y-30050000D01*
X74311054Y-30193750D01*
X74327111Y-30275339D01*
X74366400Y-30381571D01*
X74425660Y-30478098D01*
X74502612Y-30561208D01*
X74594299Y-30627709D01*
X74609671Y-30634780D01*
X74609671Y-30928973D01*
X74614981Y-30982882D01*
X74630705Y-31034720D01*
X74656241Y-31082494D01*
X74690606Y-31124368D01*
X74732480Y-31158733D01*
X74780254Y-31184269D01*
X74832092Y-31199993D01*
X74886001Y-31205303D01*
X75394001Y-31205303D01*
X75447910Y-31199993D01*
X75499748Y-31184269D01*
X75540000Y-31162754D01*
X75580252Y-31184269D01*
X75632090Y-31199993D01*
X75685999Y-31205303D01*
X76193999Y-31205303D01*
X76247908Y-31199993D01*
X76299746Y-31184269D01*
X76340000Y-31162753D01*
X76380253Y-31184269D01*
X76432091Y-31199993D01*
X76486000Y-31205303D01*
X76670330Y-31205303D01*
X77254339Y-31789314D01*
X77265299Y-31802669D01*
X77308233Y-31837903D01*
X77318594Y-31846406D01*
X77379397Y-31878906D01*
X77445372Y-31898919D01*
X77513984Y-31905677D01*
X77531173Y-31903984D01*
X87728828Y-31903984D01*
X87746016Y-31905677D01*
X87763204Y-31903984D01*
X87763205Y-31903984D01*
X87814628Y-31898919D01*
X87880603Y-31878906D01*
X87941406Y-31846406D01*
X87994701Y-31802669D01*
X88005669Y-31789304D01*
X89513856Y-30281119D01*
X89533367Y-30285000D01*
X89595000Y-30285000D01*
X89595000Y-30386635D01*
X89617097Y-30497723D01*
X89660442Y-30602367D01*
X89723368Y-30696543D01*
X89803459Y-30776634D01*
X89897635Y-30839560D01*
X90002279Y-30882905D01*
X90113367Y-30905002D01*
X90226633Y-30905002D01*
X90337721Y-30882905D01*
X90442365Y-30839560D01*
X90536541Y-30776634D01*
X90616632Y-30696543D01*
X90627684Y-30680002D01*
X90949462Y-30680002D01*
X90907097Y-30782279D01*
X90885000Y-30893367D01*
X90885000Y-31006633D01*
X90907097Y-31117721D01*
X90950442Y-31222365D01*
X91013368Y-31316541D01*
X91093459Y-31396632D01*
X91187635Y-31459558D01*
X91292279Y-31502903D01*
X91403367Y-31525000D01*
X91516633Y-31525000D01*
X91627721Y-31502903D01*
X91732365Y-31459558D01*
X91826541Y-31396632D01*
X91906632Y-31316541D01*
X91917684Y-31300000D01*
X96941664Y-31300000D01*
X96962097Y-31402721D01*
X97005442Y-31507365D01*
X97068368Y-31601541D01*
X97148459Y-31681632D01*
X97242635Y-31744558D01*
X97347279Y-31787903D01*
X97458367Y-31810000D01*
X97571633Y-31810000D01*
X97682721Y-31787903D01*
X97787365Y-31744558D01*
X97881541Y-31681632D01*
X97961632Y-31601541D01*
X98024558Y-31507365D01*
X98067903Y-31402721D01*
X98090000Y-31291633D01*
X98090000Y-31178367D01*
X98067903Y-31067279D01*
X98024558Y-30962635D01*
X97961632Y-30868459D01*
X97881541Y-30788368D01*
X97787365Y-30725442D01*
X97682721Y-30682097D01*
X97672189Y-30680002D01*
X98415029Y-30680002D01*
X98943881Y-31208855D01*
X98940000Y-31228367D01*
X98940000Y-31341633D01*
X98962097Y-31452721D01*
X99005442Y-31557365D01*
X99068368Y-31651541D01*
X99148459Y-31731632D01*
X99242635Y-31794558D01*
X99347279Y-31837903D01*
X99458367Y-31860000D01*
X99571633Y-31860000D01*
X99682721Y-31837903D01*
X99787365Y-31794558D01*
X99881541Y-31731632D01*
X99961632Y-31651541D01*
X100024558Y-31557365D01*
X100067903Y-31452721D01*
X100090000Y-31341633D01*
X100090000Y-31228367D01*
X100067903Y-31117279D01*
X100024558Y-31012635D01*
X99961632Y-30918459D01*
X99881541Y-30838368D01*
X99787365Y-30775442D01*
X99682721Y-30732097D01*
X99571633Y-30710000D01*
X99458367Y-30710000D01*
X99438855Y-30713881D01*
X98819655Y-30094682D01*
X98808687Y-30081317D01*
X98755392Y-30037580D01*
X98694589Y-30005080D01*
X98628614Y-29985067D01*
X98577191Y-29980002D01*
X98577190Y-29980002D01*
X98560002Y-29978309D01*
X98542814Y-29980002D01*
X98362710Y-29980002D01*
X98388685Y-29958685D01*
X98399653Y-29945320D01*
X98938855Y-29406119D01*
X98958367Y-29410000D01*
X99071633Y-29410000D01*
X99182721Y-29387903D01*
X99287365Y-29344558D01*
X99381541Y-29281632D01*
X99461632Y-29201541D01*
X99524558Y-29107365D01*
X99567903Y-29002721D01*
X99590000Y-28891633D01*
X99590000Y-28778367D01*
X99567903Y-28667279D01*
X99524558Y-28562635D01*
X99461632Y-28468459D01*
X99381541Y-28388368D01*
X99287365Y-28325442D01*
X99182721Y-28282097D01*
X99071633Y-28260000D01*
X98958367Y-28260000D01*
X98847279Y-28282097D01*
X98742635Y-28325442D01*
X98648459Y-28388368D01*
X98568368Y-28468459D01*
X98515000Y-28548330D01*
X98461632Y-28468459D01*
X98381541Y-28388368D01*
X98287365Y-28325442D01*
X98182721Y-28282097D01*
X98071633Y-28260000D01*
X97958367Y-28260000D01*
X97938854Y-28263881D01*
X97899653Y-28224680D01*
X97888685Y-28211315D01*
X97835390Y-28167578D01*
X97774587Y-28135078D01*
X97708612Y-28115065D01*
X97657189Y-28110000D01*
X97657188Y-28110000D01*
X97640000Y-28108307D01*
X97622812Y-28110000D01*
X85597173Y-28110000D01*
X85579984Y-28108307D01*
X85511372Y-28115065D01*
X85445396Y-28135078D01*
X85384594Y-28167578D01*
X85331299Y-28211315D01*
X85320335Y-28224675D01*
X84903129Y-28641881D01*
X84883617Y-28638000D01*
X84770351Y-28638000D01*
X84750839Y-28641881D01*
X84413637Y-28304680D01*
X84402669Y-28291315D01*
X84349374Y-28247578D01*
X84288571Y-28215078D01*
X84222596Y-28195065D01*
X84171173Y-28190000D01*
X84171172Y-28190000D01*
X84153984Y-28188307D01*
X84136796Y-28190000D01*
X75587185Y-28190000D01*
X75569999Y-28188307D01*
X75552813Y-28190000D01*
X75552811Y-28190000D01*
X75501388Y-28195065D01*
X75435413Y-28215078D01*
X75374610Y-28247578D01*
X75321315Y-28291315D01*
X75310355Y-28304670D01*
X75070329Y-28544697D01*
X74886001Y-28544697D01*
X74832092Y-28550007D01*
X74780254Y-28565731D01*
X74732480Y-28591267D01*
X74690606Y-28625632D01*
X74656241Y-28667506D01*
X74630705Y-28715280D01*
X74614981Y-28767118D01*
X74609671Y-28821027D01*
X74609671Y-29115220D01*
X74594299Y-29122291D01*
X74502612Y-29188792D01*
X74425660Y-29271902D01*
X74366400Y-29368429D01*
X74327111Y-29474661D01*
X74311054Y-29556250D01*
X54835375Y-29556250D01*
X54809875Y-29473496D01*
X54580626Y-29378895D01*
X54337326Y-29330836D01*
X54089324Y-29331166D01*
X53846153Y-29379872D01*
X53620125Y-29473496D01*
X53555551Y-29683063D01*
X47990000Y-29683063D01*
X47990000Y-28085000D01*
X105490000Y-28085000D01*
X105490001Y-32035000D01*
G37*
%TD.AperFunction*%
D15*
X76054750Y-28900027D02*
X76625249Y-28900027D01*
X76635276Y-28890000D01*
X76844724Y-28890000D01*
X76854751Y-28900027D01*
X77425250Y-28900027D01*
X77435277Y-28890000D01*
X77715001Y-28890000D01*
X77715001Y-28900027D01*
X77735001Y-28900027D01*
X77735001Y-29165222D01*
X77702504Y-29188792D01*
X77625552Y-29271902D01*
X77566292Y-29368429D01*
X77560179Y-29384956D01*
X77425250Y-29250027D01*
X76854751Y-29250027D01*
X76740000Y-29364778D01*
X76625249Y-29250027D01*
X76054750Y-29250027D01*
X75919821Y-29384956D01*
X75913708Y-29368429D01*
X75854448Y-29271902D01*
X75777496Y-29188792D01*
X75744999Y-29165222D01*
X75744999Y-28900027D01*
X75764999Y-28900027D01*
X75764999Y-28890000D01*
X76044723Y-28890000D01*
X76054750Y-28900027D01*
%TA.AperFunction,Conductor*%
D16*
G36*
X76054750Y-28900027D02*
G01*
X76625249Y-28900027D01*
X76635276Y-28890000D01*
X76844724Y-28890000D01*
X76854751Y-28900027D01*
X77425250Y-28900027D01*
X77435277Y-28890000D01*
X77715001Y-28890000D01*
X77715001Y-28900027D01*
X77735001Y-28900027D01*
X77735001Y-29165222D01*
X77702504Y-29188792D01*
X77625552Y-29271902D01*
X77566292Y-29368429D01*
X77560179Y-29384956D01*
X77425250Y-29250027D01*
X76854751Y-29250027D01*
X76740000Y-29364778D01*
X76625249Y-29250027D01*
X76054750Y-29250027D01*
X75919821Y-29384956D01*
X75913708Y-29368429D01*
X75854448Y-29271902D01*
X75777496Y-29188792D01*
X75744999Y-29165222D01*
X75744999Y-28900027D01*
X75764999Y-28900027D01*
X75764999Y-28890000D01*
X76044723Y-28890000D01*
X76054750Y-28900027D01*
G37*
%TD.AperFunction*%
%TD*%
D15*
%TO.N,GND*%
X105490001Y-39485000D02*
X47990000Y-39485000D01*
X47990000Y-38946937D01*
X53555551Y-38946937D01*
X53620125Y-39156504D01*
X53849374Y-39251105D01*
X54092674Y-39299164D01*
X54340676Y-39298834D01*
X54583847Y-39250128D01*
X54809875Y-39156504D01*
X54874449Y-38946937D01*
X54215000Y-38287487D01*
X53555551Y-38946937D01*
X47990000Y-38946937D01*
X47990000Y-37917674D01*
X52955836Y-37917674D01*
X52956166Y-38165676D01*
X53004872Y-38408847D01*
X53098496Y-38634875D01*
X53308063Y-38699449D01*
X53967513Y-38040000D01*
X54462487Y-38040000D01*
X55121937Y-38699449D01*
X55254670Y-38658550D01*
X55254670Y-38724000D01*
X55259980Y-38777909D01*
X55275704Y-38829747D01*
X55301240Y-38877521D01*
X55335605Y-38919395D01*
X55377479Y-38953760D01*
X55425253Y-38979296D01*
X55477091Y-38995020D01*
X55531000Y-39000330D01*
X56899000Y-39000330D01*
X56952909Y-38995020D01*
X57004747Y-38979296D01*
X57052521Y-38953760D01*
X57094395Y-38919395D01*
X57128760Y-38877521D01*
X57154296Y-38829747D01*
X57170020Y-38777909D01*
X57175330Y-38724000D01*
X57175330Y-37356000D01*
X57170020Y-37302091D01*
X57154296Y-37250253D01*
X57128760Y-37202479D01*
X57094395Y-37160605D01*
X57052521Y-37126240D01*
X57004747Y-37100704D01*
X56952909Y-37084980D01*
X56899000Y-37079670D01*
X55531000Y-37079670D01*
X55477091Y-37084980D01*
X55425253Y-37100704D01*
X55377479Y-37126240D01*
X55335605Y-37160605D01*
X55301240Y-37202479D01*
X55275704Y-37250253D01*
X55259980Y-37302091D01*
X55254670Y-37356000D01*
X55254670Y-37421450D01*
X55121937Y-37380551D01*
X54462487Y-38040000D01*
X53967513Y-38040000D01*
X53308063Y-37380551D01*
X53098496Y-37445125D01*
X53003895Y-37674374D01*
X52955836Y-37917674D01*
X47990000Y-37917674D01*
X47990000Y-37133063D01*
X53555551Y-37133063D01*
X54215000Y-37792513D01*
X54874449Y-37133063D01*
X54835375Y-37006250D01*
X74311054Y-37006250D01*
X74454804Y-37150000D01*
X74965054Y-37150000D01*
X74965054Y-37130000D01*
X75230241Y-37130000D01*
X75253791Y-37162469D01*
X75336901Y-37239421D01*
X75433428Y-37298681D01*
X75539660Y-37337970D01*
X75621249Y-37354027D01*
X75764999Y-37210277D01*
X75764999Y-37150000D01*
X75825304Y-37150000D01*
X75961212Y-37014092D01*
X75987291Y-37070782D01*
X76053792Y-37162469D01*
X76136902Y-37239421D01*
X76155657Y-37250935D01*
X76258749Y-37354027D01*
X76339999Y-37338037D01*
X76421250Y-37354027D01*
X76524342Y-37250935D01*
X76543097Y-37239421D01*
X76626207Y-37162469D01*
X76692708Y-37070782D01*
X76740000Y-36967979D01*
X76787292Y-37070782D01*
X76853793Y-37162469D01*
X76936903Y-37239421D01*
X76955658Y-37250935D01*
X77058750Y-37354027D01*
X77140000Y-37338037D01*
X77221251Y-37354027D01*
X77324343Y-37250935D01*
X77343098Y-37239421D01*
X77426208Y-37162469D01*
X77492709Y-37070782D01*
X77518788Y-37014092D01*
X77654696Y-37150000D01*
X77715001Y-37150000D01*
X77715001Y-37210277D01*
X77858751Y-37354027D01*
X77940340Y-37337970D01*
X78046572Y-37298681D01*
X78143099Y-37239421D01*
X78226209Y-37162469D01*
X78249759Y-37130000D01*
X78514946Y-37130000D01*
X78514946Y-37150000D01*
X78976986Y-37150000D01*
X79032279Y-37172903D01*
X79143367Y-37195000D01*
X79256633Y-37195000D01*
X79367721Y-37172903D01*
X79472365Y-37129558D01*
X79566541Y-37066632D01*
X79646632Y-36986541D01*
X79709558Y-36892365D01*
X79752903Y-36787721D01*
X79775000Y-36676633D01*
X79775000Y-36563367D01*
X79752903Y-36452279D01*
X79709558Y-36347635D01*
X79704456Y-36340000D01*
X84009011Y-36340000D01*
X84255865Y-36586855D01*
X84251984Y-36606367D01*
X84251984Y-36719633D01*
X84274081Y-36830721D01*
X84317426Y-36935365D01*
X84380352Y-37029541D01*
X84460443Y-37109632D01*
X84554619Y-37172558D01*
X84659263Y-37215903D01*
X84770351Y-37238000D01*
X84883617Y-37238000D01*
X84994705Y-37215903D01*
X85099349Y-37172558D01*
X85193525Y-37109632D01*
X85242971Y-37060186D01*
X85260442Y-37102365D01*
X85323368Y-37196541D01*
X85403459Y-37276632D01*
X85497635Y-37339558D01*
X85602279Y-37382903D01*
X85713367Y-37405000D01*
X85826633Y-37405000D01*
X85937721Y-37382903D01*
X86042365Y-37339558D01*
X86136541Y-37276632D01*
X86216632Y-37196541D01*
X86279558Y-37102365D01*
X86322903Y-36997721D01*
X86337368Y-36925002D01*
X87761825Y-36925002D01*
X87783457Y-36946634D01*
X87877633Y-37009560D01*
X87982277Y-37052905D01*
X88093365Y-37075002D01*
X88206631Y-37075002D01*
X88317719Y-37052905D01*
X88422363Y-37009560D01*
X88516539Y-36946634D01*
X88596630Y-36866543D01*
X88659556Y-36772367D01*
X88702901Y-36667723D01*
X88724998Y-36556635D01*
X88724998Y-36443369D01*
X88702901Y-36332281D01*
X88672961Y-36260000D01*
X97440000Y-36260000D01*
X97440000Y-36341633D01*
X97462097Y-36452721D01*
X97505442Y-36557365D01*
X97568368Y-36651541D01*
X97648459Y-36731632D01*
X97742635Y-36794558D01*
X97779915Y-36810000D01*
X90047684Y-36810000D01*
X90036632Y-36793459D01*
X89956541Y-36713368D01*
X89862365Y-36650442D01*
X89757721Y-36607097D01*
X89646633Y-36585000D01*
X89533367Y-36585000D01*
X89422279Y-36607097D01*
X89317635Y-36650442D01*
X89223459Y-36713368D01*
X89143368Y-36793459D01*
X89080442Y-36887635D01*
X89037097Y-36992279D01*
X89015000Y-37103367D01*
X89015000Y-37216633D01*
X89018881Y-37236144D01*
X88617856Y-37637170D01*
X88612905Y-37612281D01*
X88569560Y-37507637D01*
X88506634Y-37413461D01*
X88426543Y-37333370D01*
X88332367Y-37270444D01*
X88227723Y-37227099D01*
X88116635Y-37205002D01*
X88003369Y-37205002D01*
X87892281Y-37227099D01*
X87787637Y-37270444D01*
X87693461Y-37333370D01*
X87613370Y-37413461D01*
X87550444Y-37507637D01*
X87507099Y-37612281D01*
X87485002Y-37723369D01*
X87485002Y-37836635D01*
X87488883Y-37856147D01*
X87041057Y-38303974D01*
X79708483Y-38303974D01*
X79709558Y-38302365D01*
X79752903Y-38197721D01*
X79775000Y-38086633D01*
X79775000Y-37973367D01*
X79752903Y-37862279D01*
X79709558Y-37757635D01*
X79646632Y-37663459D01*
X79566541Y-37583368D01*
X79472365Y-37520442D01*
X79367721Y-37477097D01*
X79256633Y-37455000D01*
X79143367Y-37455000D01*
X79032279Y-37477097D01*
X78976986Y-37500000D01*
X78514946Y-37500000D01*
X78514946Y-37520000D01*
X78164946Y-37520000D01*
X78164946Y-37500000D01*
X77654696Y-37500000D01*
X77560053Y-37594643D01*
X77286001Y-37594643D01*
X77232092Y-37599953D01*
X77180254Y-37615677D01*
X77140000Y-37637193D01*
X77099747Y-37615677D01*
X77047909Y-37599953D01*
X76994000Y-37594643D01*
X76486000Y-37594643D01*
X76432091Y-37599953D01*
X76380253Y-37615677D01*
X76339999Y-37637193D01*
X76299746Y-37615677D01*
X76247908Y-37599953D01*
X76193999Y-37594643D01*
X75919947Y-37594643D01*
X75825304Y-37500000D01*
X75315054Y-37500000D01*
X75315054Y-37520000D01*
X74965054Y-37520000D01*
X74965054Y-37500000D01*
X74454804Y-37500000D01*
X74311054Y-37643750D01*
X74327111Y-37725339D01*
X74366400Y-37831571D01*
X74425660Y-37928098D01*
X74502612Y-38011208D01*
X74594299Y-38077709D01*
X74609671Y-38084780D01*
X74609671Y-38378973D01*
X74614981Y-38432882D01*
X74630705Y-38484720D01*
X74656241Y-38532494D01*
X74690606Y-38574368D01*
X74732480Y-38608733D01*
X74780254Y-38634269D01*
X74832092Y-38649993D01*
X74886001Y-38655303D01*
X75394001Y-38655303D01*
X75447910Y-38649993D01*
X75499748Y-38634269D01*
X75540000Y-38612754D01*
X75580252Y-38634269D01*
X75632090Y-38649993D01*
X75685999Y-38655303D01*
X76193999Y-38655303D01*
X76247908Y-38649993D01*
X76299746Y-38634269D01*
X76340000Y-38612753D01*
X76380253Y-38634269D01*
X76432091Y-38649993D01*
X76486000Y-38655303D01*
X76670330Y-38655303D01*
X77254339Y-39239314D01*
X77265299Y-39252669D01*
X77308233Y-39287903D01*
X77318594Y-39296406D01*
X77379397Y-39328906D01*
X77445372Y-39348919D01*
X77513984Y-39355677D01*
X77531173Y-39353984D01*
X87728828Y-39353984D01*
X87746016Y-39355677D01*
X87763204Y-39353984D01*
X87763205Y-39353984D01*
X87814628Y-39348919D01*
X87880603Y-39328906D01*
X87941406Y-39296406D01*
X87994701Y-39252669D01*
X88005669Y-39239304D01*
X89513856Y-37731119D01*
X89533367Y-37735000D01*
X89595000Y-37735000D01*
X89595000Y-37836635D01*
X89617097Y-37947723D01*
X89660442Y-38052367D01*
X89723368Y-38146543D01*
X89803459Y-38226634D01*
X89897635Y-38289560D01*
X90002279Y-38332905D01*
X90113367Y-38355002D01*
X90226633Y-38355002D01*
X90337721Y-38332905D01*
X90442365Y-38289560D01*
X90536541Y-38226634D01*
X90616632Y-38146543D01*
X90627684Y-38130002D01*
X90949462Y-38130002D01*
X90907097Y-38232279D01*
X90885000Y-38343367D01*
X90885000Y-38456633D01*
X90907097Y-38567721D01*
X90950442Y-38672365D01*
X91013368Y-38766541D01*
X91093459Y-38846632D01*
X91187635Y-38909558D01*
X91292279Y-38952903D01*
X91403367Y-38975000D01*
X91516633Y-38975000D01*
X91627721Y-38952903D01*
X91732365Y-38909558D01*
X91826541Y-38846632D01*
X91906632Y-38766541D01*
X91917684Y-38750000D01*
X96941664Y-38750000D01*
X96962097Y-38852721D01*
X97005442Y-38957365D01*
X97068368Y-39051541D01*
X97148459Y-39131632D01*
X97242635Y-39194558D01*
X97347279Y-39237903D01*
X97458367Y-39260000D01*
X97571633Y-39260000D01*
X97682721Y-39237903D01*
X97787365Y-39194558D01*
X97881541Y-39131632D01*
X97961632Y-39051541D01*
X98024558Y-38957365D01*
X98067903Y-38852721D01*
X98090000Y-38741633D01*
X98090000Y-38628367D01*
X98067903Y-38517279D01*
X98024558Y-38412635D01*
X97961632Y-38318459D01*
X97881541Y-38238368D01*
X97787365Y-38175442D01*
X97682721Y-38132097D01*
X97672189Y-38130002D01*
X98415029Y-38130002D01*
X98943881Y-38658855D01*
X98940000Y-38678367D01*
X98940000Y-38791633D01*
X98962097Y-38902721D01*
X99005442Y-39007365D01*
X99068368Y-39101541D01*
X99148459Y-39181632D01*
X99242635Y-39244558D01*
X99347279Y-39287903D01*
X99458367Y-39310000D01*
X99571633Y-39310000D01*
X99682721Y-39287903D01*
X99787365Y-39244558D01*
X99881541Y-39181632D01*
X99961632Y-39101541D01*
X100024558Y-39007365D01*
X100067903Y-38902721D01*
X100090000Y-38791633D01*
X100090000Y-38678367D01*
X100067903Y-38567279D01*
X100024558Y-38462635D01*
X99961632Y-38368459D01*
X99881541Y-38288368D01*
X99787365Y-38225442D01*
X99682721Y-38182097D01*
X99571633Y-38160000D01*
X99458367Y-38160000D01*
X99438855Y-38163881D01*
X98819655Y-37544682D01*
X98808687Y-37531317D01*
X98755392Y-37487580D01*
X98694589Y-37455080D01*
X98628614Y-37435067D01*
X98577191Y-37430002D01*
X98577190Y-37430002D01*
X98560002Y-37428309D01*
X98542814Y-37430002D01*
X98362710Y-37430002D01*
X98388685Y-37408685D01*
X98399653Y-37395320D01*
X98938855Y-36856119D01*
X98958367Y-36860000D01*
X99071633Y-36860000D01*
X99182721Y-36837903D01*
X99287365Y-36794558D01*
X99381541Y-36731632D01*
X99461632Y-36651541D01*
X99524558Y-36557365D01*
X99567903Y-36452721D01*
X99590000Y-36341633D01*
X99590000Y-36228367D01*
X99567903Y-36117279D01*
X99524558Y-36012635D01*
X99461632Y-35918459D01*
X99381541Y-35838368D01*
X99287365Y-35775442D01*
X99182721Y-35732097D01*
X99071633Y-35710000D01*
X98958367Y-35710000D01*
X98847279Y-35732097D01*
X98742635Y-35775442D01*
X98648459Y-35838368D01*
X98568368Y-35918459D01*
X98515000Y-35998330D01*
X98461632Y-35918459D01*
X98381541Y-35838368D01*
X98287365Y-35775442D01*
X98182721Y-35732097D01*
X98071633Y-35710000D01*
X97958367Y-35710000D01*
X97938854Y-35713881D01*
X97899653Y-35674680D01*
X97888685Y-35661315D01*
X97835390Y-35617578D01*
X97774587Y-35585078D01*
X97708612Y-35565065D01*
X97657189Y-35560000D01*
X97657188Y-35560000D01*
X97640000Y-35558307D01*
X97622812Y-35560000D01*
X85597173Y-35560000D01*
X85579984Y-35558307D01*
X85511372Y-35565065D01*
X85445396Y-35585078D01*
X85384594Y-35617578D01*
X85331299Y-35661315D01*
X85320335Y-35674675D01*
X84903129Y-36091881D01*
X84883617Y-36088000D01*
X84770351Y-36088000D01*
X84750839Y-36091881D01*
X84413637Y-35754680D01*
X84402669Y-35741315D01*
X84349374Y-35697578D01*
X84288571Y-35665078D01*
X84222596Y-35645065D01*
X84171173Y-35640000D01*
X84171172Y-35640000D01*
X84153984Y-35638307D01*
X84136796Y-35640000D01*
X75587185Y-35640000D01*
X75569999Y-35638307D01*
X75552813Y-35640000D01*
X75552811Y-35640000D01*
X75501388Y-35645065D01*
X75435413Y-35665078D01*
X75374610Y-35697578D01*
X75321315Y-35741315D01*
X75310355Y-35754670D01*
X75070329Y-35994697D01*
X74886001Y-35994697D01*
X74832092Y-36000007D01*
X74780254Y-36015731D01*
X74732480Y-36041267D01*
X74690606Y-36075632D01*
X74656241Y-36117506D01*
X74630705Y-36165280D01*
X74614981Y-36217118D01*
X74609671Y-36271027D01*
X74609671Y-36565220D01*
X74594299Y-36572291D01*
X74502612Y-36638792D01*
X74425660Y-36721902D01*
X74366400Y-36818429D01*
X74327111Y-36924661D01*
X74311054Y-37006250D01*
X54835375Y-37006250D01*
X54809875Y-36923496D01*
X54580626Y-36828895D01*
X54337326Y-36780836D01*
X54089324Y-36781166D01*
X53846153Y-36829872D01*
X53620125Y-36923496D01*
X53555551Y-37133063D01*
X47990000Y-37133063D01*
X47990000Y-35535000D01*
X105490000Y-35535000D01*
X105490001Y-39485000D01*
%TA.AperFunction,Conductor*%
D16*
G36*
X105490001Y-39485000D02*
G01*
X47990000Y-39485000D01*
X47990000Y-38946937D01*
X53555551Y-38946937D01*
X53620125Y-39156504D01*
X53849374Y-39251105D01*
X54092674Y-39299164D01*
X54340676Y-39298834D01*
X54583847Y-39250128D01*
X54809875Y-39156504D01*
X54874449Y-38946937D01*
X54215000Y-38287487D01*
X53555551Y-38946937D01*
X47990000Y-38946937D01*
X47990000Y-37917674D01*
X52955836Y-37917674D01*
X52956166Y-38165676D01*
X53004872Y-38408847D01*
X53098496Y-38634875D01*
X53308063Y-38699449D01*
X53967513Y-38040000D01*
X54462487Y-38040000D01*
X55121937Y-38699449D01*
X55254670Y-38658550D01*
X55254670Y-38724000D01*
X55259980Y-38777909D01*
X55275704Y-38829747D01*
X55301240Y-38877521D01*
X55335605Y-38919395D01*
X55377479Y-38953760D01*
X55425253Y-38979296D01*
X55477091Y-38995020D01*
X55531000Y-39000330D01*
X56899000Y-39000330D01*
X56952909Y-38995020D01*
X57004747Y-38979296D01*
X57052521Y-38953760D01*
X57094395Y-38919395D01*
X57128760Y-38877521D01*
X57154296Y-38829747D01*
X57170020Y-38777909D01*
X57175330Y-38724000D01*
X57175330Y-37356000D01*
X57170020Y-37302091D01*
X57154296Y-37250253D01*
X57128760Y-37202479D01*
X57094395Y-37160605D01*
X57052521Y-37126240D01*
X57004747Y-37100704D01*
X56952909Y-37084980D01*
X56899000Y-37079670D01*
X55531000Y-37079670D01*
X55477091Y-37084980D01*
X55425253Y-37100704D01*
X55377479Y-37126240D01*
X55335605Y-37160605D01*
X55301240Y-37202479D01*
X55275704Y-37250253D01*
X55259980Y-37302091D01*
X55254670Y-37356000D01*
X55254670Y-37421450D01*
X55121937Y-37380551D01*
X54462487Y-38040000D01*
X53967513Y-38040000D01*
X53308063Y-37380551D01*
X53098496Y-37445125D01*
X53003895Y-37674374D01*
X52955836Y-37917674D01*
X47990000Y-37917674D01*
X47990000Y-37133063D01*
X53555551Y-37133063D01*
X54215000Y-37792513D01*
X54874449Y-37133063D01*
X54835375Y-37006250D01*
X74311054Y-37006250D01*
X74454804Y-37150000D01*
X74965054Y-37150000D01*
X74965054Y-37130000D01*
X75230241Y-37130000D01*
X75253791Y-37162469D01*
X75336901Y-37239421D01*
X75433428Y-37298681D01*
X75539660Y-37337970D01*
X75621249Y-37354027D01*
X75764999Y-37210277D01*
X75764999Y-37150000D01*
X75825304Y-37150000D01*
X75961212Y-37014092D01*
X75987291Y-37070782D01*
X76053792Y-37162469D01*
X76136902Y-37239421D01*
X76155657Y-37250935D01*
X76258749Y-37354027D01*
X76339999Y-37338037D01*
X76421250Y-37354027D01*
X76524342Y-37250935D01*
X76543097Y-37239421D01*
X76626207Y-37162469D01*
X76692708Y-37070782D01*
X76740000Y-36967979D01*
X76787292Y-37070782D01*
X76853793Y-37162469D01*
X76936903Y-37239421D01*
X76955658Y-37250935D01*
X77058750Y-37354027D01*
X77140000Y-37338037D01*
X77221251Y-37354027D01*
X77324343Y-37250935D01*
X77343098Y-37239421D01*
X77426208Y-37162469D01*
X77492709Y-37070782D01*
X77518788Y-37014092D01*
X77654696Y-37150000D01*
X77715001Y-37150000D01*
X77715001Y-37210277D01*
X77858751Y-37354027D01*
X77940340Y-37337970D01*
X78046572Y-37298681D01*
X78143099Y-37239421D01*
X78226209Y-37162469D01*
X78249759Y-37130000D01*
X78514946Y-37130000D01*
X78514946Y-37150000D01*
X78976986Y-37150000D01*
X79032279Y-37172903D01*
X79143367Y-37195000D01*
X79256633Y-37195000D01*
X79367721Y-37172903D01*
X79472365Y-37129558D01*
X79566541Y-37066632D01*
X79646632Y-36986541D01*
X79709558Y-36892365D01*
X79752903Y-36787721D01*
X79775000Y-36676633D01*
X79775000Y-36563367D01*
X79752903Y-36452279D01*
X79709558Y-36347635D01*
X79704456Y-36340000D01*
X84009011Y-36340000D01*
X84255865Y-36586855D01*
X84251984Y-36606367D01*
X84251984Y-36719633D01*
X84274081Y-36830721D01*
X84317426Y-36935365D01*
X84380352Y-37029541D01*
X84460443Y-37109632D01*
X84554619Y-37172558D01*
X84659263Y-37215903D01*
X84770351Y-37238000D01*
X84883617Y-37238000D01*
X84994705Y-37215903D01*
X85099349Y-37172558D01*
X85193525Y-37109632D01*
X85242971Y-37060186D01*
X85260442Y-37102365D01*
X85323368Y-37196541D01*
X85403459Y-37276632D01*
X85497635Y-37339558D01*
X85602279Y-37382903D01*
X85713367Y-37405000D01*
X85826633Y-37405000D01*
X85937721Y-37382903D01*
X86042365Y-37339558D01*
X86136541Y-37276632D01*
X86216632Y-37196541D01*
X86279558Y-37102365D01*
X86322903Y-36997721D01*
X86337368Y-36925002D01*
X87761825Y-36925002D01*
X87783457Y-36946634D01*
X87877633Y-37009560D01*
X87982277Y-37052905D01*
X88093365Y-37075002D01*
X88206631Y-37075002D01*
X88317719Y-37052905D01*
X88422363Y-37009560D01*
X88516539Y-36946634D01*
X88596630Y-36866543D01*
X88659556Y-36772367D01*
X88702901Y-36667723D01*
X88724998Y-36556635D01*
X88724998Y-36443369D01*
X88702901Y-36332281D01*
X88672961Y-36260000D01*
X97440000Y-36260000D01*
X97440000Y-36341633D01*
X97462097Y-36452721D01*
X97505442Y-36557365D01*
X97568368Y-36651541D01*
X97648459Y-36731632D01*
X97742635Y-36794558D01*
X97779915Y-36810000D01*
X90047684Y-36810000D01*
X90036632Y-36793459D01*
X89956541Y-36713368D01*
X89862365Y-36650442D01*
X89757721Y-36607097D01*
X89646633Y-36585000D01*
X89533367Y-36585000D01*
X89422279Y-36607097D01*
X89317635Y-36650442D01*
X89223459Y-36713368D01*
X89143368Y-36793459D01*
X89080442Y-36887635D01*
X89037097Y-36992279D01*
X89015000Y-37103367D01*
X89015000Y-37216633D01*
X89018881Y-37236144D01*
X88617856Y-37637170D01*
X88612905Y-37612281D01*
X88569560Y-37507637D01*
X88506634Y-37413461D01*
X88426543Y-37333370D01*
X88332367Y-37270444D01*
X88227723Y-37227099D01*
X88116635Y-37205002D01*
X88003369Y-37205002D01*
X87892281Y-37227099D01*
X87787637Y-37270444D01*
X87693461Y-37333370D01*
X87613370Y-37413461D01*
X87550444Y-37507637D01*
X87507099Y-37612281D01*
X87485002Y-37723369D01*
X87485002Y-37836635D01*
X87488883Y-37856147D01*
X87041057Y-38303974D01*
X79708483Y-38303974D01*
X79709558Y-38302365D01*
X79752903Y-38197721D01*
X79775000Y-38086633D01*
X79775000Y-37973367D01*
X79752903Y-37862279D01*
X79709558Y-37757635D01*
X79646632Y-37663459D01*
X79566541Y-37583368D01*
X79472365Y-37520442D01*
X79367721Y-37477097D01*
X79256633Y-37455000D01*
X79143367Y-37455000D01*
X79032279Y-37477097D01*
X78976986Y-37500000D01*
X78514946Y-37500000D01*
X78514946Y-37520000D01*
X78164946Y-37520000D01*
X78164946Y-37500000D01*
X77654696Y-37500000D01*
X77560053Y-37594643D01*
X77286001Y-37594643D01*
X77232092Y-37599953D01*
X77180254Y-37615677D01*
X77140000Y-37637193D01*
X77099747Y-37615677D01*
X77047909Y-37599953D01*
X76994000Y-37594643D01*
X76486000Y-37594643D01*
X76432091Y-37599953D01*
X76380253Y-37615677D01*
X76339999Y-37637193D01*
X76299746Y-37615677D01*
X76247908Y-37599953D01*
X76193999Y-37594643D01*
X75919947Y-37594643D01*
X75825304Y-37500000D01*
X75315054Y-37500000D01*
X75315054Y-37520000D01*
X74965054Y-37520000D01*
X74965054Y-37500000D01*
X74454804Y-37500000D01*
X74311054Y-37643750D01*
X74327111Y-37725339D01*
X74366400Y-37831571D01*
X74425660Y-37928098D01*
X74502612Y-38011208D01*
X74594299Y-38077709D01*
X74609671Y-38084780D01*
X74609671Y-38378973D01*
X74614981Y-38432882D01*
X74630705Y-38484720D01*
X74656241Y-38532494D01*
X74690606Y-38574368D01*
X74732480Y-38608733D01*
X74780254Y-38634269D01*
X74832092Y-38649993D01*
X74886001Y-38655303D01*
X75394001Y-38655303D01*
X75447910Y-38649993D01*
X75499748Y-38634269D01*
X75540000Y-38612754D01*
X75580252Y-38634269D01*
X75632090Y-38649993D01*
X75685999Y-38655303D01*
X76193999Y-38655303D01*
X76247908Y-38649993D01*
X76299746Y-38634269D01*
X76340000Y-38612753D01*
X76380253Y-38634269D01*
X76432091Y-38649993D01*
X76486000Y-38655303D01*
X76670330Y-38655303D01*
X77254339Y-39239314D01*
X77265299Y-39252669D01*
X77308233Y-39287903D01*
X77318594Y-39296406D01*
X77379397Y-39328906D01*
X77445372Y-39348919D01*
X77513984Y-39355677D01*
X77531173Y-39353984D01*
X87728828Y-39353984D01*
X87746016Y-39355677D01*
X87763204Y-39353984D01*
X87763205Y-39353984D01*
X87814628Y-39348919D01*
X87880603Y-39328906D01*
X87941406Y-39296406D01*
X87994701Y-39252669D01*
X88005669Y-39239304D01*
X89513856Y-37731119D01*
X89533367Y-37735000D01*
X89595000Y-37735000D01*
X89595000Y-37836635D01*
X89617097Y-37947723D01*
X89660442Y-38052367D01*
X89723368Y-38146543D01*
X89803459Y-38226634D01*
X89897635Y-38289560D01*
X90002279Y-38332905D01*
X90113367Y-38355002D01*
X90226633Y-38355002D01*
X90337721Y-38332905D01*
X90442365Y-38289560D01*
X90536541Y-38226634D01*
X90616632Y-38146543D01*
X90627684Y-38130002D01*
X90949462Y-38130002D01*
X90907097Y-38232279D01*
X90885000Y-38343367D01*
X90885000Y-38456633D01*
X90907097Y-38567721D01*
X90950442Y-38672365D01*
X91013368Y-38766541D01*
X91093459Y-38846632D01*
X91187635Y-38909558D01*
X91292279Y-38952903D01*
X91403367Y-38975000D01*
X91516633Y-38975000D01*
X91627721Y-38952903D01*
X91732365Y-38909558D01*
X91826541Y-38846632D01*
X91906632Y-38766541D01*
X91917684Y-38750000D01*
X96941664Y-38750000D01*
X96962097Y-38852721D01*
X97005442Y-38957365D01*
X97068368Y-39051541D01*
X97148459Y-39131632D01*
X97242635Y-39194558D01*
X97347279Y-39237903D01*
X97458367Y-39260000D01*
X97571633Y-39260000D01*
X97682721Y-39237903D01*
X97787365Y-39194558D01*
X97881541Y-39131632D01*
X97961632Y-39051541D01*
X98024558Y-38957365D01*
X98067903Y-38852721D01*
X98090000Y-38741633D01*
X98090000Y-38628367D01*
X98067903Y-38517279D01*
X98024558Y-38412635D01*
X97961632Y-38318459D01*
X97881541Y-38238368D01*
X97787365Y-38175442D01*
X97682721Y-38132097D01*
X97672189Y-38130002D01*
X98415029Y-38130002D01*
X98943881Y-38658855D01*
X98940000Y-38678367D01*
X98940000Y-38791633D01*
X98962097Y-38902721D01*
X99005442Y-39007365D01*
X99068368Y-39101541D01*
X99148459Y-39181632D01*
X99242635Y-39244558D01*
X99347279Y-39287903D01*
X99458367Y-39310000D01*
X99571633Y-39310000D01*
X99682721Y-39287903D01*
X99787365Y-39244558D01*
X99881541Y-39181632D01*
X99961632Y-39101541D01*
X100024558Y-39007365D01*
X100067903Y-38902721D01*
X100090000Y-38791633D01*
X100090000Y-38678367D01*
X100067903Y-38567279D01*
X100024558Y-38462635D01*
X99961632Y-38368459D01*
X99881541Y-38288368D01*
X99787365Y-38225442D01*
X99682721Y-38182097D01*
X99571633Y-38160000D01*
X99458367Y-38160000D01*
X99438855Y-38163881D01*
X98819655Y-37544682D01*
X98808687Y-37531317D01*
X98755392Y-37487580D01*
X98694589Y-37455080D01*
X98628614Y-37435067D01*
X98577191Y-37430002D01*
X98577190Y-37430002D01*
X98560002Y-37428309D01*
X98542814Y-37430002D01*
X98362710Y-37430002D01*
X98388685Y-37408685D01*
X98399653Y-37395320D01*
X98938855Y-36856119D01*
X98958367Y-36860000D01*
X99071633Y-36860000D01*
X99182721Y-36837903D01*
X99287365Y-36794558D01*
X99381541Y-36731632D01*
X99461632Y-36651541D01*
X99524558Y-36557365D01*
X99567903Y-36452721D01*
X99590000Y-36341633D01*
X99590000Y-36228367D01*
X99567903Y-36117279D01*
X99524558Y-36012635D01*
X99461632Y-35918459D01*
X99381541Y-35838368D01*
X99287365Y-35775442D01*
X99182721Y-35732097D01*
X99071633Y-35710000D01*
X98958367Y-35710000D01*
X98847279Y-35732097D01*
X98742635Y-35775442D01*
X98648459Y-35838368D01*
X98568368Y-35918459D01*
X98515000Y-35998330D01*
X98461632Y-35918459D01*
X98381541Y-35838368D01*
X98287365Y-35775442D01*
X98182721Y-35732097D01*
X98071633Y-35710000D01*
X97958367Y-35710000D01*
X97938854Y-35713881D01*
X97899653Y-35674680D01*
X97888685Y-35661315D01*
X97835390Y-35617578D01*
X97774587Y-35585078D01*
X97708612Y-35565065D01*
X97657189Y-35560000D01*
X97657188Y-35560000D01*
X97640000Y-35558307D01*
X97622812Y-35560000D01*
X85597173Y-35560000D01*
X85579984Y-35558307D01*
X85511372Y-35565065D01*
X85445396Y-35585078D01*
X85384594Y-35617578D01*
X85331299Y-35661315D01*
X85320335Y-35674675D01*
X84903129Y-36091881D01*
X84883617Y-36088000D01*
X84770351Y-36088000D01*
X84750839Y-36091881D01*
X84413637Y-35754680D01*
X84402669Y-35741315D01*
X84349374Y-35697578D01*
X84288571Y-35665078D01*
X84222596Y-35645065D01*
X84171173Y-35640000D01*
X84171172Y-35640000D01*
X84153984Y-35638307D01*
X84136796Y-35640000D01*
X75587185Y-35640000D01*
X75569999Y-35638307D01*
X75552813Y-35640000D01*
X75552811Y-35640000D01*
X75501388Y-35645065D01*
X75435413Y-35665078D01*
X75374610Y-35697578D01*
X75321315Y-35741315D01*
X75310355Y-35754670D01*
X75070329Y-35994697D01*
X74886001Y-35994697D01*
X74832092Y-36000007D01*
X74780254Y-36015731D01*
X74732480Y-36041267D01*
X74690606Y-36075632D01*
X74656241Y-36117506D01*
X74630705Y-36165280D01*
X74614981Y-36217118D01*
X74609671Y-36271027D01*
X74609671Y-36565220D01*
X74594299Y-36572291D01*
X74502612Y-36638792D01*
X74425660Y-36721902D01*
X74366400Y-36818429D01*
X74327111Y-36924661D01*
X74311054Y-37006250D01*
X54835375Y-37006250D01*
X54809875Y-36923496D01*
X54580626Y-36828895D01*
X54337326Y-36780836D01*
X54089324Y-36781166D01*
X53846153Y-36829872D01*
X53620125Y-36923496D01*
X53555551Y-37133063D01*
X47990000Y-37133063D01*
X47990000Y-35535000D01*
X105490000Y-35535000D01*
X105490001Y-39485000D01*
G37*
%TD.AperFunction*%
D15*
X76054750Y-36350027D02*
X76625249Y-36350027D01*
X76635276Y-36340000D01*
X76844724Y-36340000D01*
X76854751Y-36350027D01*
X77425250Y-36350027D01*
X77435277Y-36340000D01*
X77715001Y-36340000D01*
X77715001Y-36350027D01*
X77735001Y-36350027D01*
X77735001Y-36615222D01*
X77702504Y-36638792D01*
X77625552Y-36721902D01*
X77566292Y-36818429D01*
X77560179Y-36834956D01*
X77425250Y-36700027D01*
X76854751Y-36700027D01*
X76740000Y-36814778D01*
X76625249Y-36700027D01*
X76054750Y-36700027D01*
X75919821Y-36834956D01*
X75913708Y-36818429D01*
X75854448Y-36721902D01*
X75777496Y-36638792D01*
X75744999Y-36615222D01*
X75744999Y-36350027D01*
X75764999Y-36350027D01*
X75764999Y-36340000D01*
X76044723Y-36340000D01*
X76054750Y-36350027D01*
%TA.AperFunction,Conductor*%
D16*
G36*
X76054750Y-36350027D02*
G01*
X76625249Y-36350027D01*
X76635276Y-36340000D01*
X76844724Y-36340000D01*
X76854751Y-36350027D01*
X77425250Y-36350027D01*
X77435277Y-36340000D01*
X77715001Y-36340000D01*
X77715001Y-36350027D01*
X77735001Y-36350027D01*
X77735001Y-36615222D01*
X77702504Y-36638792D01*
X77625552Y-36721902D01*
X77566292Y-36818429D01*
X77560179Y-36834956D01*
X77425250Y-36700027D01*
X76854751Y-36700027D01*
X76740000Y-36814778D01*
X76625249Y-36700027D01*
X76054750Y-36700027D01*
X75919821Y-36834956D01*
X75913708Y-36818429D01*
X75854448Y-36721902D01*
X75777496Y-36638792D01*
X75744999Y-36615222D01*
X75744999Y-36350027D01*
X75764999Y-36350027D01*
X75764999Y-36340000D01*
X76044723Y-36340000D01*
X76054750Y-36350027D01*
G37*
%TD.AperFunction*%
%TD*%
D15*
%TO.N,GND*%
X105490001Y-46935000D02*
X47990000Y-46935000D01*
X47990000Y-46396937D01*
X53555551Y-46396937D01*
X53620125Y-46606504D01*
X53849374Y-46701105D01*
X54092674Y-46749164D01*
X54340676Y-46748834D01*
X54583847Y-46700128D01*
X54809875Y-46606504D01*
X54874449Y-46396937D01*
X54215000Y-45737487D01*
X53555551Y-46396937D01*
X47990000Y-46396937D01*
X47990000Y-45367674D01*
X52955836Y-45367674D01*
X52956166Y-45615676D01*
X53004872Y-45858847D01*
X53098496Y-46084875D01*
X53308063Y-46149449D01*
X53967513Y-45490000D01*
X54462487Y-45490000D01*
X55121937Y-46149449D01*
X55254670Y-46108550D01*
X55254670Y-46174000D01*
X55259980Y-46227909D01*
X55275704Y-46279747D01*
X55301240Y-46327521D01*
X55335605Y-46369395D01*
X55377479Y-46403760D01*
X55425253Y-46429296D01*
X55477091Y-46445020D01*
X55531000Y-46450330D01*
X56899000Y-46450330D01*
X56952909Y-46445020D01*
X57004747Y-46429296D01*
X57052521Y-46403760D01*
X57094395Y-46369395D01*
X57128760Y-46327521D01*
X57154296Y-46279747D01*
X57170020Y-46227909D01*
X57175330Y-46174000D01*
X57175330Y-44806000D01*
X57170020Y-44752091D01*
X57154296Y-44700253D01*
X57128760Y-44652479D01*
X57094395Y-44610605D01*
X57052521Y-44576240D01*
X57004747Y-44550704D01*
X56952909Y-44534980D01*
X56899000Y-44529670D01*
X55531000Y-44529670D01*
X55477091Y-44534980D01*
X55425253Y-44550704D01*
X55377479Y-44576240D01*
X55335605Y-44610605D01*
X55301240Y-44652479D01*
X55275704Y-44700253D01*
X55259980Y-44752091D01*
X55254670Y-44806000D01*
X55254670Y-44871450D01*
X55121937Y-44830551D01*
X54462487Y-45490000D01*
X53967513Y-45490000D01*
X53308063Y-44830551D01*
X53098496Y-44895125D01*
X53003895Y-45124374D01*
X52955836Y-45367674D01*
X47990000Y-45367674D01*
X47990000Y-44583063D01*
X53555551Y-44583063D01*
X54215000Y-45242513D01*
X54874449Y-44583063D01*
X54835375Y-44456250D01*
X74311054Y-44456250D01*
X74454804Y-44600000D01*
X74965054Y-44600000D01*
X74965054Y-44580000D01*
X75230241Y-44580000D01*
X75253791Y-44612469D01*
X75336901Y-44689421D01*
X75433428Y-44748681D01*
X75539660Y-44787970D01*
X75621249Y-44804027D01*
X75764999Y-44660277D01*
X75764999Y-44600000D01*
X75825304Y-44600000D01*
X75961212Y-44464092D01*
X75987291Y-44520782D01*
X76053792Y-44612469D01*
X76136902Y-44689421D01*
X76155657Y-44700935D01*
X76258749Y-44804027D01*
X76339999Y-44788037D01*
X76421250Y-44804027D01*
X76524342Y-44700935D01*
X76543097Y-44689421D01*
X76626207Y-44612469D01*
X76692708Y-44520782D01*
X76740000Y-44417979D01*
X76787292Y-44520782D01*
X76853793Y-44612469D01*
X76936903Y-44689421D01*
X76955658Y-44700935D01*
X77058750Y-44804027D01*
X77140000Y-44788037D01*
X77221251Y-44804027D01*
X77324343Y-44700935D01*
X77343098Y-44689421D01*
X77426208Y-44612469D01*
X77492709Y-44520782D01*
X77518788Y-44464092D01*
X77654696Y-44600000D01*
X77715001Y-44600000D01*
X77715001Y-44660277D01*
X77858751Y-44804027D01*
X77940340Y-44787970D01*
X78046572Y-44748681D01*
X78143099Y-44689421D01*
X78226209Y-44612469D01*
X78249759Y-44580000D01*
X78514946Y-44580000D01*
X78514946Y-44600000D01*
X78976986Y-44600000D01*
X79032279Y-44622903D01*
X79143367Y-44645000D01*
X79256633Y-44645000D01*
X79367721Y-44622903D01*
X79472365Y-44579558D01*
X79566541Y-44516632D01*
X79646632Y-44436541D01*
X79709558Y-44342365D01*
X79752903Y-44237721D01*
X79775000Y-44126633D01*
X79775000Y-44013367D01*
X79752903Y-43902279D01*
X79709558Y-43797635D01*
X79704456Y-43790000D01*
X84009011Y-43790000D01*
X84255865Y-44036855D01*
X84251984Y-44056367D01*
X84251984Y-44169633D01*
X84274081Y-44280721D01*
X84317426Y-44385365D01*
X84380352Y-44479541D01*
X84460443Y-44559632D01*
X84554619Y-44622558D01*
X84659263Y-44665903D01*
X84770351Y-44688000D01*
X84883617Y-44688000D01*
X84994705Y-44665903D01*
X85099349Y-44622558D01*
X85193525Y-44559632D01*
X85242971Y-44510186D01*
X85260442Y-44552365D01*
X85323368Y-44646541D01*
X85403459Y-44726632D01*
X85497635Y-44789558D01*
X85602279Y-44832903D01*
X85713367Y-44855000D01*
X85826633Y-44855000D01*
X85937721Y-44832903D01*
X86042365Y-44789558D01*
X86136541Y-44726632D01*
X86216632Y-44646541D01*
X86279558Y-44552365D01*
X86322903Y-44447721D01*
X86337368Y-44375002D01*
X87761825Y-44375002D01*
X87783457Y-44396634D01*
X87877633Y-44459560D01*
X87982277Y-44502905D01*
X88093365Y-44525002D01*
X88206631Y-44525002D01*
X88317719Y-44502905D01*
X88422363Y-44459560D01*
X88516539Y-44396634D01*
X88596630Y-44316543D01*
X88659556Y-44222367D01*
X88702901Y-44117723D01*
X88724998Y-44006635D01*
X88724998Y-43893369D01*
X88702901Y-43782281D01*
X88672961Y-43710000D01*
X97440000Y-43710000D01*
X97440000Y-43791633D01*
X97462097Y-43902721D01*
X97505442Y-44007365D01*
X97568368Y-44101541D01*
X97648459Y-44181632D01*
X97742635Y-44244558D01*
X97779915Y-44260000D01*
X90047684Y-44260000D01*
X90036632Y-44243459D01*
X89956541Y-44163368D01*
X89862365Y-44100442D01*
X89757721Y-44057097D01*
X89646633Y-44035000D01*
X89533367Y-44035000D01*
X89422279Y-44057097D01*
X89317635Y-44100442D01*
X89223459Y-44163368D01*
X89143368Y-44243459D01*
X89080442Y-44337635D01*
X89037097Y-44442279D01*
X89015000Y-44553367D01*
X89015000Y-44666633D01*
X89018881Y-44686144D01*
X88617856Y-45087170D01*
X88612905Y-45062281D01*
X88569560Y-44957637D01*
X88506634Y-44863461D01*
X88426543Y-44783370D01*
X88332367Y-44720444D01*
X88227723Y-44677099D01*
X88116635Y-44655002D01*
X88003369Y-44655002D01*
X87892281Y-44677099D01*
X87787637Y-44720444D01*
X87693461Y-44783370D01*
X87613370Y-44863461D01*
X87550444Y-44957637D01*
X87507099Y-45062281D01*
X87485002Y-45173369D01*
X87485002Y-45286635D01*
X87488883Y-45306147D01*
X87041057Y-45753974D01*
X79708483Y-45753974D01*
X79709558Y-45752365D01*
X79752903Y-45647721D01*
X79775000Y-45536633D01*
X79775000Y-45423367D01*
X79752903Y-45312279D01*
X79709558Y-45207635D01*
X79646632Y-45113459D01*
X79566541Y-45033368D01*
X79472365Y-44970442D01*
X79367721Y-44927097D01*
X79256633Y-44905000D01*
X79143367Y-44905000D01*
X79032279Y-44927097D01*
X78976986Y-44950000D01*
X78514946Y-44950000D01*
X78514946Y-44970000D01*
X78164946Y-44970000D01*
X78164946Y-44950000D01*
X77654696Y-44950000D01*
X77560053Y-45044643D01*
X77286001Y-45044643D01*
X77232092Y-45049953D01*
X77180254Y-45065677D01*
X77140000Y-45087193D01*
X77099747Y-45065677D01*
X77047909Y-45049953D01*
X76994000Y-45044643D01*
X76486000Y-45044643D01*
X76432091Y-45049953D01*
X76380253Y-45065677D01*
X76339999Y-45087193D01*
X76299746Y-45065677D01*
X76247908Y-45049953D01*
X76193999Y-45044643D01*
X75919947Y-45044643D01*
X75825304Y-44950000D01*
X75315054Y-44950000D01*
X75315054Y-44970000D01*
X74965054Y-44970000D01*
X74965054Y-44950000D01*
X74454804Y-44950000D01*
X74311054Y-45093750D01*
X74327111Y-45175339D01*
X74366400Y-45281571D01*
X74425660Y-45378098D01*
X74502612Y-45461208D01*
X74594299Y-45527709D01*
X74609671Y-45534780D01*
X74609671Y-45828973D01*
X74614981Y-45882882D01*
X74630705Y-45934720D01*
X74656241Y-45982494D01*
X74690606Y-46024368D01*
X74732480Y-46058733D01*
X74780254Y-46084269D01*
X74832092Y-46099993D01*
X74886001Y-46105303D01*
X75394001Y-46105303D01*
X75447910Y-46099993D01*
X75499748Y-46084269D01*
X75540000Y-46062754D01*
X75580252Y-46084269D01*
X75632090Y-46099993D01*
X75685999Y-46105303D01*
X76193999Y-46105303D01*
X76247908Y-46099993D01*
X76299746Y-46084269D01*
X76340000Y-46062753D01*
X76380253Y-46084269D01*
X76432091Y-46099993D01*
X76486000Y-46105303D01*
X76670330Y-46105303D01*
X77254339Y-46689314D01*
X77265299Y-46702669D01*
X77308233Y-46737903D01*
X77318594Y-46746406D01*
X77379397Y-46778906D01*
X77445372Y-46798919D01*
X77513984Y-46805677D01*
X77531173Y-46803984D01*
X87728828Y-46803984D01*
X87746016Y-46805677D01*
X87763204Y-46803984D01*
X87763205Y-46803984D01*
X87814628Y-46798919D01*
X87880603Y-46778906D01*
X87941406Y-46746406D01*
X87994701Y-46702669D01*
X88005669Y-46689304D01*
X89513856Y-45181119D01*
X89533367Y-45185000D01*
X89595000Y-45185000D01*
X89595000Y-45286635D01*
X89617097Y-45397723D01*
X89660442Y-45502367D01*
X89723368Y-45596543D01*
X89803459Y-45676634D01*
X89897635Y-45739560D01*
X90002279Y-45782905D01*
X90113367Y-45805002D01*
X90226633Y-45805002D01*
X90337721Y-45782905D01*
X90442365Y-45739560D01*
X90536541Y-45676634D01*
X90616632Y-45596543D01*
X90627684Y-45580002D01*
X90949462Y-45580002D01*
X90907097Y-45682279D01*
X90885000Y-45793367D01*
X90885000Y-45906633D01*
X90907097Y-46017721D01*
X90950442Y-46122365D01*
X91013368Y-46216541D01*
X91093459Y-46296632D01*
X91187635Y-46359558D01*
X91292279Y-46402903D01*
X91403367Y-46425000D01*
X91516633Y-46425000D01*
X91627721Y-46402903D01*
X91732365Y-46359558D01*
X91826541Y-46296632D01*
X91906632Y-46216541D01*
X91917684Y-46200000D01*
X96941664Y-46200000D01*
X96962097Y-46302721D01*
X97005442Y-46407365D01*
X97068368Y-46501541D01*
X97148459Y-46581632D01*
X97242635Y-46644558D01*
X97347279Y-46687903D01*
X97458367Y-46710000D01*
X97571633Y-46710000D01*
X97682721Y-46687903D01*
X97787365Y-46644558D01*
X97881541Y-46581632D01*
X97961632Y-46501541D01*
X98024558Y-46407365D01*
X98067903Y-46302721D01*
X98090000Y-46191633D01*
X98090000Y-46078367D01*
X98067903Y-45967279D01*
X98024558Y-45862635D01*
X97961632Y-45768459D01*
X97881541Y-45688368D01*
X97787365Y-45625442D01*
X97682721Y-45582097D01*
X97672189Y-45580002D01*
X98415029Y-45580002D01*
X98943881Y-46108855D01*
X98940000Y-46128367D01*
X98940000Y-46241633D01*
X98962097Y-46352721D01*
X99005442Y-46457365D01*
X99068368Y-46551541D01*
X99148459Y-46631632D01*
X99242635Y-46694558D01*
X99347279Y-46737903D01*
X99458367Y-46760000D01*
X99571633Y-46760000D01*
X99682721Y-46737903D01*
X99787365Y-46694558D01*
X99881541Y-46631632D01*
X99961632Y-46551541D01*
X100024558Y-46457365D01*
X100067903Y-46352721D01*
X100090000Y-46241633D01*
X100090000Y-46128367D01*
X100067903Y-46017279D01*
X100024558Y-45912635D01*
X99961632Y-45818459D01*
X99881541Y-45738368D01*
X99787365Y-45675442D01*
X99682721Y-45632097D01*
X99571633Y-45610000D01*
X99458367Y-45610000D01*
X99438855Y-45613881D01*
X98819655Y-44994682D01*
X98808687Y-44981317D01*
X98755392Y-44937580D01*
X98694589Y-44905080D01*
X98628614Y-44885067D01*
X98577191Y-44880002D01*
X98577190Y-44880002D01*
X98560002Y-44878309D01*
X98542814Y-44880002D01*
X98362710Y-44880002D01*
X98388685Y-44858685D01*
X98399653Y-44845320D01*
X98938855Y-44306119D01*
X98958367Y-44310000D01*
X99071633Y-44310000D01*
X99182721Y-44287903D01*
X99287365Y-44244558D01*
X99381541Y-44181632D01*
X99461632Y-44101541D01*
X99524558Y-44007365D01*
X99567903Y-43902721D01*
X99590000Y-43791633D01*
X99590000Y-43678367D01*
X99567903Y-43567279D01*
X99524558Y-43462635D01*
X99461632Y-43368459D01*
X99381541Y-43288368D01*
X99287365Y-43225442D01*
X99182721Y-43182097D01*
X99071633Y-43160000D01*
X98958367Y-43160000D01*
X98847279Y-43182097D01*
X98742635Y-43225442D01*
X98648459Y-43288368D01*
X98568368Y-43368459D01*
X98515000Y-43448330D01*
X98461632Y-43368459D01*
X98381541Y-43288368D01*
X98287365Y-43225442D01*
X98182721Y-43182097D01*
X98071633Y-43160000D01*
X97958367Y-43160000D01*
X97938854Y-43163881D01*
X97899653Y-43124680D01*
X97888685Y-43111315D01*
X97835390Y-43067578D01*
X97774587Y-43035078D01*
X97708612Y-43015065D01*
X97657189Y-43010000D01*
X97657188Y-43010000D01*
X97640000Y-43008307D01*
X97622812Y-43010000D01*
X85597173Y-43010000D01*
X85579984Y-43008307D01*
X85511372Y-43015065D01*
X85445396Y-43035078D01*
X85384594Y-43067578D01*
X85331299Y-43111315D01*
X85320335Y-43124675D01*
X84903129Y-43541881D01*
X84883617Y-43538000D01*
X84770351Y-43538000D01*
X84750839Y-43541881D01*
X84413637Y-43204680D01*
X84402669Y-43191315D01*
X84349374Y-43147578D01*
X84288571Y-43115078D01*
X84222596Y-43095065D01*
X84171173Y-43090000D01*
X84171172Y-43090000D01*
X84153984Y-43088307D01*
X84136796Y-43090000D01*
X75587185Y-43090000D01*
X75569999Y-43088307D01*
X75552813Y-43090000D01*
X75552811Y-43090000D01*
X75501388Y-43095065D01*
X75435413Y-43115078D01*
X75374610Y-43147578D01*
X75321315Y-43191315D01*
X75310355Y-43204670D01*
X75070329Y-43444697D01*
X74886001Y-43444697D01*
X74832092Y-43450007D01*
X74780254Y-43465731D01*
X74732480Y-43491267D01*
X74690606Y-43525632D01*
X74656241Y-43567506D01*
X74630705Y-43615280D01*
X74614981Y-43667118D01*
X74609671Y-43721027D01*
X74609671Y-44015220D01*
X74594299Y-44022291D01*
X74502612Y-44088792D01*
X74425660Y-44171902D01*
X74366400Y-44268429D01*
X74327111Y-44374661D01*
X74311054Y-44456250D01*
X54835375Y-44456250D01*
X54809875Y-44373496D01*
X54580626Y-44278895D01*
X54337326Y-44230836D01*
X54089324Y-44231166D01*
X53846153Y-44279872D01*
X53620125Y-44373496D01*
X53555551Y-44583063D01*
X47990000Y-44583063D01*
X47990000Y-42985000D01*
X105490000Y-42985000D01*
X105490001Y-46935000D01*
%TA.AperFunction,Conductor*%
D16*
G36*
X105490001Y-46935000D02*
G01*
X47990000Y-46935000D01*
X47990000Y-46396937D01*
X53555551Y-46396937D01*
X53620125Y-46606504D01*
X53849374Y-46701105D01*
X54092674Y-46749164D01*
X54340676Y-46748834D01*
X54583847Y-46700128D01*
X54809875Y-46606504D01*
X54874449Y-46396937D01*
X54215000Y-45737487D01*
X53555551Y-46396937D01*
X47990000Y-46396937D01*
X47990000Y-45367674D01*
X52955836Y-45367674D01*
X52956166Y-45615676D01*
X53004872Y-45858847D01*
X53098496Y-46084875D01*
X53308063Y-46149449D01*
X53967513Y-45490000D01*
X54462487Y-45490000D01*
X55121937Y-46149449D01*
X55254670Y-46108550D01*
X55254670Y-46174000D01*
X55259980Y-46227909D01*
X55275704Y-46279747D01*
X55301240Y-46327521D01*
X55335605Y-46369395D01*
X55377479Y-46403760D01*
X55425253Y-46429296D01*
X55477091Y-46445020D01*
X55531000Y-46450330D01*
X56899000Y-46450330D01*
X56952909Y-46445020D01*
X57004747Y-46429296D01*
X57052521Y-46403760D01*
X57094395Y-46369395D01*
X57128760Y-46327521D01*
X57154296Y-46279747D01*
X57170020Y-46227909D01*
X57175330Y-46174000D01*
X57175330Y-44806000D01*
X57170020Y-44752091D01*
X57154296Y-44700253D01*
X57128760Y-44652479D01*
X57094395Y-44610605D01*
X57052521Y-44576240D01*
X57004747Y-44550704D01*
X56952909Y-44534980D01*
X56899000Y-44529670D01*
X55531000Y-44529670D01*
X55477091Y-44534980D01*
X55425253Y-44550704D01*
X55377479Y-44576240D01*
X55335605Y-44610605D01*
X55301240Y-44652479D01*
X55275704Y-44700253D01*
X55259980Y-44752091D01*
X55254670Y-44806000D01*
X55254670Y-44871450D01*
X55121937Y-44830551D01*
X54462487Y-45490000D01*
X53967513Y-45490000D01*
X53308063Y-44830551D01*
X53098496Y-44895125D01*
X53003895Y-45124374D01*
X52955836Y-45367674D01*
X47990000Y-45367674D01*
X47990000Y-44583063D01*
X53555551Y-44583063D01*
X54215000Y-45242513D01*
X54874449Y-44583063D01*
X54835375Y-44456250D01*
X74311054Y-44456250D01*
X74454804Y-44600000D01*
X74965054Y-44600000D01*
X74965054Y-44580000D01*
X75230241Y-44580000D01*
X75253791Y-44612469D01*
X75336901Y-44689421D01*
X75433428Y-44748681D01*
X75539660Y-44787970D01*
X75621249Y-44804027D01*
X75764999Y-44660277D01*
X75764999Y-44600000D01*
X75825304Y-44600000D01*
X75961212Y-44464092D01*
X75987291Y-44520782D01*
X76053792Y-44612469D01*
X76136902Y-44689421D01*
X76155657Y-44700935D01*
X76258749Y-44804027D01*
X76339999Y-44788037D01*
X76421250Y-44804027D01*
X76524342Y-44700935D01*
X76543097Y-44689421D01*
X76626207Y-44612469D01*
X76692708Y-44520782D01*
X76740000Y-44417979D01*
X76787292Y-44520782D01*
X76853793Y-44612469D01*
X76936903Y-44689421D01*
X76955658Y-44700935D01*
X77058750Y-44804027D01*
X77140000Y-44788037D01*
X77221251Y-44804027D01*
X77324343Y-44700935D01*
X77343098Y-44689421D01*
X77426208Y-44612469D01*
X77492709Y-44520782D01*
X77518788Y-44464092D01*
X77654696Y-44600000D01*
X77715001Y-44600000D01*
X77715001Y-44660277D01*
X77858751Y-44804027D01*
X77940340Y-44787970D01*
X78046572Y-44748681D01*
X78143099Y-44689421D01*
X78226209Y-44612469D01*
X78249759Y-44580000D01*
X78514946Y-44580000D01*
X78514946Y-44600000D01*
X78976986Y-44600000D01*
X79032279Y-44622903D01*
X79143367Y-44645000D01*
X79256633Y-44645000D01*
X79367721Y-44622903D01*
X79472365Y-44579558D01*
X79566541Y-44516632D01*
X79646632Y-44436541D01*
X79709558Y-44342365D01*
X79752903Y-44237721D01*
X79775000Y-44126633D01*
X79775000Y-44013367D01*
X79752903Y-43902279D01*
X79709558Y-43797635D01*
X79704456Y-43790000D01*
X84009011Y-43790000D01*
X84255865Y-44036855D01*
X84251984Y-44056367D01*
X84251984Y-44169633D01*
X84274081Y-44280721D01*
X84317426Y-44385365D01*
X84380352Y-44479541D01*
X84460443Y-44559632D01*
X84554619Y-44622558D01*
X84659263Y-44665903D01*
X84770351Y-44688000D01*
X84883617Y-44688000D01*
X84994705Y-44665903D01*
X85099349Y-44622558D01*
X85193525Y-44559632D01*
X85242971Y-44510186D01*
X85260442Y-44552365D01*
X85323368Y-44646541D01*
X85403459Y-44726632D01*
X85497635Y-44789558D01*
X85602279Y-44832903D01*
X85713367Y-44855000D01*
X85826633Y-44855000D01*
X85937721Y-44832903D01*
X86042365Y-44789558D01*
X86136541Y-44726632D01*
X86216632Y-44646541D01*
X86279558Y-44552365D01*
X86322903Y-44447721D01*
X86337368Y-44375002D01*
X87761825Y-44375002D01*
X87783457Y-44396634D01*
X87877633Y-44459560D01*
X87982277Y-44502905D01*
X88093365Y-44525002D01*
X88206631Y-44525002D01*
X88317719Y-44502905D01*
X88422363Y-44459560D01*
X88516539Y-44396634D01*
X88596630Y-44316543D01*
X88659556Y-44222367D01*
X88702901Y-44117723D01*
X88724998Y-44006635D01*
X88724998Y-43893369D01*
X88702901Y-43782281D01*
X88672961Y-43710000D01*
X97440000Y-43710000D01*
X97440000Y-43791633D01*
X97462097Y-43902721D01*
X97505442Y-44007365D01*
X97568368Y-44101541D01*
X97648459Y-44181632D01*
X97742635Y-44244558D01*
X97779915Y-44260000D01*
X90047684Y-44260000D01*
X90036632Y-44243459D01*
X89956541Y-44163368D01*
X89862365Y-44100442D01*
X89757721Y-44057097D01*
X89646633Y-44035000D01*
X89533367Y-44035000D01*
X89422279Y-44057097D01*
X89317635Y-44100442D01*
X89223459Y-44163368D01*
X89143368Y-44243459D01*
X89080442Y-44337635D01*
X89037097Y-44442279D01*
X89015000Y-44553367D01*
X89015000Y-44666633D01*
X89018881Y-44686144D01*
X88617856Y-45087170D01*
X88612905Y-45062281D01*
X88569560Y-44957637D01*
X88506634Y-44863461D01*
X88426543Y-44783370D01*
X88332367Y-44720444D01*
X88227723Y-44677099D01*
X88116635Y-44655002D01*
X88003369Y-44655002D01*
X87892281Y-44677099D01*
X87787637Y-44720444D01*
X87693461Y-44783370D01*
X87613370Y-44863461D01*
X87550444Y-44957637D01*
X87507099Y-45062281D01*
X87485002Y-45173369D01*
X87485002Y-45286635D01*
X87488883Y-45306147D01*
X87041057Y-45753974D01*
X79708483Y-45753974D01*
X79709558Y-45752365D01*
X79752903Y-45647721D01*
X79775000Y-45536633D01*
X79775000Y-45423367D01*
X79752903Y-45312279D01*
X79709558Y-45207635D01*
X79646632Y-45113459D01*
X79566541Y-45033368D01*
X79472365Y-44970442D01*
X79367721Y-44927097D01*
X79256633Y-44905000D01*
X79143367Y-44905000D01*
X79032279Y-44927097D01*
X78976986Y-44950000D01*
X78514946Y-44950000D01*
X78514946Y-44970000D01*
X78164946Y-44970000D01*
X78164946Y-44950000D01*
X77654696Y-44950000D01*
X77560053Y-45044643D01*
X77286001Y-45044643D01*
X77232092Y-45049953D01*
X77180254Y-45065677D01*
X77140000Y-45087193D01*
X77099747Y-45065677D01*
X77047909Y-45049953D01*
X76994000Y-45044643D01*
X76486000Y-45044643D01*
X76432091Y-45049953D01*
X76380253Y-45065677D01*
X76339999Y-45087193D01*
X76299746Y-45065677D01*
X76247908Y-45049953D01*
X76193999Y-45044643D01*
X75919947Y-45044643D01*
X75825304Y-44950000D01*
X75315054Y-44950000D01*
X75315054Y-44970000D01*
X74965054Y-44970000D01*
X74965054Y-44950000D01*
X74454804Y-44950000D01*
X74311054Y-45093750D01*
X74327111Y-45175339D01*
X74366400Y-45281571D01*
X74425660Y-45378098D01*
X74502612Y-45461208D01*
X74594299Y-45527709D01*
X74609671Y-45534780D01*
X74609671Y-45828973D01*
X74614981Y-45882882D01*
X74630705Y-45934720D01*
X74656241Y-45982494D01*
X74690606Y-46024368D01*
X74732480Y-46058733D01*
X74780254Y-46084269D01*
X74832092Y-46099993D01*
X74886001Y-46105303D01*
X75394001Y-46105303D01*
X75447910Y-46099993D01*
X75499748Y-46084269D01*
X75540000Y-46062754D01*
X75580252Y-46084269D01*
X75632090Y-46099993D01*
X75685999Y-46105303D01*
X76193999Y-46105303D01*
X76247908Y-46099993D01*
X76299746Y-46084269D01*
X76340000Y-46062753D01*
X76380253Y-46084269D01*
X76432091Y-46099993D01*
X76486000Y-46105303D01*
X76670330Y-46105303D01*
X77254339Y-46689314D01*
X77265299Y-46702669D01*
X77308233Y-46737903D01*
X77318594Y-46746406D01*
X77379397Y-46778906D01*
X77445372Y-46798919D01*
X77513984Y-46805677D01*
X77531173Y-46803984D01*
X87728828Y-46803984D01*
X87746016Y-46805677D01*
X87763204Y-46803984D01*
X87763205Y-46803984D01*
X87814628Y-46798919D01*
X87880603Y-46778906D01*
X87941406Y-46746406D01*
X87994701Y-46702669D01*
X88005669Y-46689304D01*
X89513856Y-45181119D01*
X89533367Y-45185000D01*
X89595000Y-45185000D01*
X89595000Y-45286635D01*
X89617097Y-45397723D01*
X89660442Y-45502367D01*
X89723368Y-45596543D01*
X89803459Y-45676634D01*
X89897635Y-45739560D01*
X90002279Y-45782905D01*
X90113367Y-45805002D01*
X90226633Y-45805002D01*
X90337721Y-45782905D01*
X90442365Y-45739560D01*
X90536541Y-45676634D01*
X90616632Y-45596543D01*
X90627684Y-45580002D01*
X90949462Y-45580002D01*
X90907097Y-45682279D01*
X90885000Y-45793367D01*
X90885000Y-45906633D01*
X90907097Y-46017721D01*
X90950442Y-46122365D01*
X91013368Y-46216541D01*
X91093459Y-46296632D01*
X91187635Y-46359558D01*
X91292279Y-46402903D01*
X91403367Y-46425000D01*
X91516633Y-46425000D01*
X91627721Y-46402903D01*
X91732365Y-46359558D01*
X91826541Y-46296632D01*
X91906632Y-46216541D01*
X91917684Y-46200000D01*
X96941664Y-46200000D01*
X96962097Y-46302721D01*
X97005442Y-46407365D01*
X97068368Y-46501541D01*
X97148459Y-46581632D01*
X97242635Y-46644558D01*
X97347279Y-46687903D01*
X97458367Y-46710000D01*
X97571633Y-46710000D01*
X97682721Y-46687903D01*
X97787365Y-46644558D01*
X97881541Y-46581632D01*
X97961632Y-46501541D01*
X98024558Y-46407365D01*
X98067903Y-46302721D01*
X98090000Y-46191633D01*
X98090000Y-46078367D01*
X98067903Y-45967279D01*
X98024558Y-45862635D01*
X97961632Y-45768459D01*
X97881541Y-45688368D01*
X97787365Y-45625442D01*
X97682721Y-45582097D01*
X97672189Y-45580002D01*
X98415029Y-45580002D01*
X98943881Y-46108855D01*
X98940000Y-46128367D01*
X98940000Y-46241633D01*
X98962097Y-46352721D01*
X99005442Y-46457365D01*
X99068368Y-46551541D01*
X99148459Y-46631632D01*
X99242635Y-46694558D01*
X99347279Y-46737903D01*
X99458367Y-46760000D01*
X99571633Y-46760000D01*
X99682721Y-46737903D01*
X99787365Y-46694558D01*
X99881541Y-46631632D01*
X99961632Y-46551541D01*
X100024558Y-46457365D01*
X100067903Y-46352721D01*
X100090000Y-46241633D01*
X100090000Y-46128367D01*
X100067903Y-46017279D01*
X100024558Y-45912635D01*
X99961632Y-45818459D01*
X99881541Y-45738368D01*
X99787365Y-45675442D01*
X99682721Y-45632097D01*
X99571633Y-45610000D01*
X99458367Y-45610000D01*
X99438855Y-45613881D01*
X98819655Y-44994682D01*
X98808687Y-44981317D01*
X98755392Y-44937580D01*
X98694589Y-44905080D01*
X98628614Y-44885067D01*
X98577191Y-44880002D01*
X98577190Y-44880002D01*
X98560002Y-44878309D01*
X98542814Y-44880002D01*
X98362710Y-44880002D01*
X98388685Y-44858685D01*
X98399653Y-44845320D01*
X98938855Y-44306119D01*
X98958367Y-44310000D01*
X99071633Y-44310000D01*
X99182721Y-44287903D01*
X99287365Y-44244558D01*
X99381541Y-44181632D01*
X99461632Y-44101541D01*
X99524558Y-44007365D01*
X99567903Y-43902721D01*
X99590000Y-43791633D01*
X99590000Y-43678367D01*
X99567903Y-43567279D01*
X99524558Y-43462635D01*
X99461632Y-43368459D01*
X99381541Y-43288368D01*
X99287365Y-43225442D01*
X99182721Y-43182097D01*
X99071633Y-43160000D01*
X98958367Y-43160000D01*
X98847279Y-43182097D01*
X98742635Y-43225442D01*
X98648459Y-43288368D01*
X98568368Y-43368459D01*
X98515000Y-43448330D01*
X98461632Y-43368459D01*
X98381541Y-43288368D01*
X98287365Y-43225442D01*
X98182721Y-43182097D01*
X98071633Y-43160000D01*
X97958367Y-43160000D01*
X97938854Y-43163881D01*
X97899653Y-43124680D01*
X97888685Y-43111315D01*
X97835390Y-43067578D01*
X97774587Y-43035078D01*
X97708612Y-43015065D01*
X97657189Y-43010000D01*
X97657188Y-43010000D01*
X97640000Y-43008307D01*
X97622812Y-43010000D01*
X85597173Y-43010000D01*
X85579984Y-43008307D01*
X85511372Y-43015065D01*
X85445396Y-43035078D01*
X85384594Y-43067578D01*
X85331299Y-43111315D01*
X85320335Y-43124675D01*
X84903129Y-43541881D01*
X84883617Y-43538000D01*
X84770351Y-43538000D01*
X84750839Y-43541881D01*
X84413637Y-43204680D01*
X84402669Y-43191315D01*
X84349374Y-43147578D01*
X84288571Y-43115078D01*
X84222596Y-43095065D01*
X84171173Y-43090000D01*
X84171172Y-43090000D01*
X84153984Y-43088307D01*
X84136796Y-43090000D01*
X75587185Y-43090000D01*
X75569999Y-43088307D01*
X75552813Y-43090000D01*
X75552811Y-43090000D01*
X75501388Y-43095065D01*
X75435413Y-43115078D01*
X75374610Y-43147578D01*
X75321315Y-43191315D01*
X75310355Y-43204670D01*
X75070329Y-43444697D01*
X74886001Y-43444697D01*
X74832092Y-43450007D01*
X74780254Y-43465731D01*
X74732480Y-43491267D01*
X74690606Y-43525632D01*
X74656241Y-43567506D01*
X74630705Y-43615280D01*
X74614981Y-43667118D01*
X74609671Y-43721027D01*
X74609671Y-44015220D01*
X74594299Y-44022291D01*
X74502612Y-44088792D01*
X74425660Y-44171902D01*
X74366400Y-44268429D01*
X74327111Y-44374661D01*
X74311054Y-44456250D01*
X54835375Y-44456250D01*
X54809875Y-44373496D01*
X54580626Y-44278895D01*
X54337326Y-44230836D01*
X54089324Y-44231166D01*
X53846153Y-44279872D01*
X53620125Y-44373496D01*
X53555551Y-44583063D01*
X47990000Y-44583063D01*
X47990000Y-42985000D01*
X105490000Y-42985000D01*
X105490001Y-46935000D01*
G37*
%TD.AperFunction*%
D15*
X76054750Y-43800027D02*
X76625249Y-43800027D01*
X76635276Y-43790000D01*
X76844724Y-43790000D01*
X76854751Y-43800027D01*
X77425250Y-43800027D01*
X77435277Y-43790000D01*
X77715001Y-43790000D01*
X77715001Y-43800027D01*
X77735001Y-43800027D01*
X77735001Y-44065222D01*
X77702504Y-44088792D01*
X77625552Y-44171902D01*
X77566292Y-44268429D01*
X77560179Y-44284956D01*
X77425250Y-44150027D01*
X76854751Y-44150027D01*
X76740000Y-44264778D01*
X76625249Y-44150027D01*
X76054750Y-44150027D01*
X75919821Y-44284956D01*
X75913708Y-44268429D01*
X75854448Y-44171902D01*
X75777496Y-44088792D01*
X75744999Y-44065222D01*
X75744999Y-43800027D01*
X75764999Y-43800027D01*
X75764999Y-43790000D01*
X76044723Y-43790000D01*
X76054750Y-43800027D01*
%TA.AperFunction,Conductor*%
D16*
G36*
X76054750Y-43800027D02*
G01*
X76625249Y-43800027D01*
X76635276Y-43790000D01*
X76844724Y-43790000D01*
X76854751Y-43800027D01*
X77425250Y-43800027D01*
X77435277Y-43790000D01*
X77715001Y-43790000D01*
X77715001Y-43800027D01*
X77735001Y-43800027D01*
X77735001Y-44065222D01*
X77702504Y-44088792D01*
X77625552Y-44171902D01*
X77566292Y-44268429D01*
X77560179Y-44284956D01*
X77425250Y-44150027D01*
X76854751Y-44150027D01*
X76740000Y-44264778D01*
X76625249Y-44150027D01*
X76054750Y-44150027D01*
X75919821Y-44284956D01*
X75913708Y-44268429D01*
X75854448Y-44171902D01*
X75777496Y-44088792D01*
X75744999Y-44065222D01*
X75744999Y-43800027D01*
X75764999Y-43800027D01*
X75764999Y-43790000D01*
X76044723Y-43790000D01*
X76054750Y-43800027D01*
G37*
%TD.AperFunction*%
%TD*%
D15*
%TO.N,GND*%
X105490001Y-54385000D02*
X47990000Y-54385000D01*
X47990000Y-53846937D01*
X53555551Y-53846937D01*
X53620125Y-54056504D01*
X53849374Y-54151105D01*
X54092674Y-54199164D01*
X54340676Y-54198834D01*
X54583847Y-54150128D01*
X54809875Y-54056504D01*
X54874449Y-53846937D01*
X54215000Y-53187487D01*
X53555551Y-53846937D01*
X47990000Y-53846937D01*
X47990000Y-52817674D01*
X52955836Y-52817674D01*
X52956166Y-53065676D01*
X53004872Y-53308847D01*
X53098496Y-53534875D01*
X53308063Y-53599449D01*
X53967513Y-52940000D01*
X54462487Y-52940000D01*
X55121937Y-53599449D01*
X55254670Y-53558550D01*
X55254670Y-53624000D01*
X55259980Y-53677909D01*
X55275704Y-53729747D01*
X55301240Y-53777521D01*
X55335605Y-53819395D01*
X55377479Y-53853760D01*
X55425253Y-53879296D01*
X55477091Y-53895020D01*
X55531000Y-53900330D01*
X56899000Y-53900330D01*
X56952909Y-53895020D01*
X57004747Y-53879296D01*
X57052521Y-53853760D01*
X57094395Y-53819395D01*
X57128760Y-53777521D01*
X57154296Y-53729747D01*
X57170020Y-53677909D01*
X57175330Y-53624000D01*
X57175330Y-52256000D01*
X57170020Y-52202091D01*
X57154296Y-52150253D01*
X57128760Y-52102479D01*
X57094395Y-52060605D01*
X57052521Y-52026240D01*
X57004747Y-52000704D01*
X56952909Y-51984980D01*
X56899000Y-51979670D01*
X55531000Y-51979670D01*
X55477091Y-51984980D01*
X55425253Y-52000704D01*
X55377479Y-52026240D01*
X55335605Y-52060605D01*
X55301240Y-52102479D01*
X55275704Y-52150253D01*
X55259980Y-52202091D01*
X55254670Y-52256000D01*
X55254670Y-52321450D01*
X55121937Y-52280551D01*
X54462487Y-52940000D01*
X53967513Y-52940000D01*
X53308063Y-52280551D01*
X53098496Y-52345125D01*
X53003895Y-52574374D01*
X52955836Y-52817674D01*
X47990000Y-52817674D01*
X47990000Y-52033063D01*
X53555551Y-52033063D01*
X54215000Y-52692513D01*
X54874449Y-52033063D01*
X54835375Y-51906250D01*
X74311054Y-51906250D01*
X74454804Y-52050000D01*
X74965054Y-52050000D01*
X74965054Y-52030000D01*
X75230241Y-52030000D01*
X75253791Y-52062469D01*
X75336901Y-52139421D01*
X75433428Y-52198681D01*
X75539660Y-52237970D01*
X75621249Y-52254027D01*
X75764999Y-52110277D01*
X75764999Y-52050000D01*
X75825304Y-52050000D01*
X75961212Y-51914092D01*
X75987291Y-51970782D01*
X76053792Y-52062469D01*
X76136902Y-52139421D01*
X76155657Y-52150935D01*
X76258749Y-52254027D01*
X76339999Y-52238037D01*
X76421250Y-52254027D01*
X76524342Y-52150935D01*
X76543097Y-52139421D01*
X76626207Y-52062469D01*
X76692708Y-51970782D01*
X76740000Y-51867979D01*
X76787292Y-51970782D01*
X76853793Y-52062469D01*
X76936903Y-52139421D01*
X76955658Y-52150935D01*
X77058750Y-52254027D01*
X77140000Y-52238037D01*
X77221251Y-52254027D01*
X77324343Y-52150935D01*
X77343098Y-52139421D01*
X77426208Y-52062469D01*
X77492709Y-51970782D01*
X77518788Y-51914092D01*
X77654696Y-52050000D01*
X77715001Y-52050000D01*
X77715001Y-52110277D01*
X77858751Y-52254027D01*
X77940340Y-52237970D01*
X78046572Y-52198681D01*
X78143099Y-52139421D01*
X78226209Y-52062469D01*
X78249759Y-52030000D01*
X78514946Y-52030000D01*
X78514946Y-52050000D01*
X78976986Y-52050000D01*
X79032279Y-52072903D01*
X79143367Y-52095000D01*
X79256633Y-52095000D01*
X79367721Y-52072903D01*
X79472365Y-52029558D01*
X79566541Y-51966632D01*
X79646632Y-51886541D01*
X79709558Y-51792365D01*
X79752903Y-51687721D01*
X79775000Y-51576633D01*
X79775000Y-51463367D01*
X79752903Y-51352279D01*
X79709558Y-51247635D01*
X79704456Y-51240000D01*
X84009011Y-51240000D01*
X84255865Y-51486855D01*
X84251984Y-51506367D01*
X84251984Y-51619633D01*
X84274081Y-51730721D01*
X84317426Y-51835365D01*
X84380352Y-51929541D01*
X84460443Y-52009632D01*
X84554619Y-52072558D01*
X84659263Y-52115903D01*
X84770351Y-52138000D01*
X84883617Y-52138000D01*
X84994705Y-52115903D01*
X85099349Y-52072558D01*
X85193525Y-52009632D01*
X85242971Y-51960186D01*
X85260442Y-52002365D01*
X85323368Y-52096541D01*
X85403459Y-52176632D01*
X85497635Y-52239558D01*
X85602279Y-52282903D01*
X85713367Y-52305000D01*
X85826633Y-52305000D01*
X85937721Y-52282903D01*
X86042365Y-52239558D01*
X86136541Y-52176632D01*
X86216632Y-52096541D01*
X86279558Y-52002365D01*
X86322903Y-51897721D01*
X86337368Y-51825002D01*
X87761825Y-51825002D01*
X87783457Y-51846634D01*
X87877633Y-51909560D01*
X87982277Y-51952905D01*
X88093365Y-51975002D01*
X88206631Y-51975002D01*
X88317719Y-51952905D01*
X88422363Y-51909560D01*
X88516539Y-51846634D01*
X88596630Y-51766543D01*
X88659556Y-51672367D01*
X88702901Y-51567723D01*
X88724998Y-51456635D01*
X88724998Y-51343369D01*
X88702901Y-51232281D01*
X88672961Y-51160000D01*
X97440000Y-51160000D01*
X97440000Y-51241633D01*
X97462097Y-51352721D01*
X97505442Y-51457365D01*
X97568368Y-51551541D01*
X97648459Y-51631632D01*
X97742635Y-51694558D01*
X97779915Y-51710000D01*
X90047684Y-51710000D01*
X90036632Y-51693459D01*
X89956541Y-51613368D01*
X89862365Y-51550442D01*
X89757721Y-51507097D01*
X89646633Y-51485000D01*
X89533367Y-51485000D01*
X89422279Y-51507097D01*
X89317635Y-51550442D01*
X89223459Y-51613368D01*
X89143368Y-51693459D01*
X89080442Y-51787635D01*
X89037097Y-51892279D01*
X89015000Y-52003367D01*
X89015000Y-52116633D01*
X89018881Y-52136144D01*
X88617856Y-52537170D01*
X88612905Y-52512281D01*
X88569560Y-52407637D01*
X88506634Y-52313461D01*
X88426543Y-52233370D01*
X88332367Y-52170444D01*
X88227723Y-52127099D01*
X88116635Y-52105002D01*
X88003369Y-52105002D01*
X87892281Y-52127099D01*
X87787637Y-52170444D01*
X87693461Y-52233370D01*
X87613370Y-52313461D01*
X87550444Y-52407637D01*
X87507099Y-52512281D01*
X87485002Y-52623369D01*
X87485002Y-52736635D01*
X87488883Y-52756147D01*
X87041057Y-53203974D01*
X79708483Y-53203974D01*
X79709558Y-53202365D01*
X79752903Y-53097721D01*
X79775000Y-52986633D01*
X79775000Y-52873367D01*
X79752903Y-52762279D01*
X79709558Y-52657635D01*
X79646632Y-52563459D01*
X79566541Y-52483368D01*
X79472365Y-52420442D01*
X79367721Y-52377097D01*
X79256633Y-52355000D01*
X79143367Y-52355000D01*
X79032279Y-52377097D01*
X78976986Y-52400000D01*
X78514946Y-52400000D01*
X78514946Y-52420000D01*
X78164946Y-52420000D01*
X78164946Y-52400000D01*
X77654696Y-52400000D01*
X77560053Y-52494643D01*
X77286001Y-52494643D01*
X77232092Y-52499953D01*
X77180254Y-52515677D01*
X77140000Y-52537193D01*
X77099747Y-52515677D01*
X77047909Y-52499953D01*
X76994000Y-52494643D01*
X76486000Y-52494643D01*
X76432091Y-52499953D01*
X76380253Y-52515677D01*
X76339999Y-52537193D01*
X76299746Y-52515677D01*
X76247908Y-52499953D01*
X76193999Y-52494643D01*
X75919947Y-52494643D01*
X75825304Y-52400000D01*
X75315054Y-52400000D01*
X75315054Y-52420000D01*
X74965054Y-52420000D01*
X74965054Y-52400000D01*
X74454804Y-52400000D01*
X74311054Y-52543750D01*
X74327111Y-52625339D01*
X74366400Y-52731571D01*
X74425660Y-52828098D01*
X74502612Y-52911208D01*
X74594299Y-52977709D01*
X74609671Y-52984780D01*
X74609671Y-53278973D01*
X74614981Y-53332882D01*
X74630705Y-53384720D01*
X74656241Y-53432494D01*
X74690606Y-53474368D01*
X74732480Y-53508733D01*
X74780254Y-53534269D01*
X74832092Y-53549993D01*
X74886001Y-53555303D01*
X75394001Y-53555303D01*
X75447910Y-53549993D01*
X75499748Y-53534269D01*
X75540000Y-53512754D01*
X75580252Y-53534269D01*
X75632090Y-53549993D01*
X75685999Y-53555303D01*
X76193999Y-53555303D01*
X76247908Y-53549993D01*
X76299746Y-53534269D01*
X76340000Y-53512753D01*
X76380253Y-53534269D01*
X76432091Y-53549993D01*
X76486000Y-53555303D01*
X76670330Y-53555303D01*
X77254339Y-54139314D01*
X77265299Y-54152669D01*
X77308233Y-54187903D01*
X77318594Y-54196406D01*
X77379397Y-54228906D01*
X77445372Y-54248919D01*
X77513984Y-54255677D01*
X77531173Y-54253984D01*
X87728828Y-54253984D01*
X87746016Y-54255677D01*
X87763204Y-54253984D01*
X87763205Y-54253984D01*
X87814628Y-54248919D01*
X87880603Y-54228906D01*
X87941406Y-54196406D01*
X87994701Y-54152669D01*
X88005669Y-54139304D01*
X89513856Y-52631119D01*
X89533367Y-52635000D01*
X89595000Y-52635000D01*
X89595000Y-52736635D01*
X89617097Y-52847723D01*
X89660442Y-52952367D01*
X89723368Y-53046543D01*
X89803459Y-53126634D01*
X89897635Y-53189560D01*
X90002279Y-53232905D01*
X90113367Y-53255002D01*
X90226633Y-53255002D01*
X90337721Y-53232905D01*
X90442365Y-53189560D01*
X90536541Y-53126634D01*
X90616632Y-53046543D01*
X90627684Y-53030002D01*
X90949462Y-53030002D01*
X90907097Y-53132279D01*
X90885000Y-53243367D01*
X90885000Y-53356633D01*
X90907097Y-53467721D01*
X90950442Y-53572365D01*
X91013368Y-53666541D01*
X91093459Y-53746632D01*
X91187635Y-53809558D01*
X91292279Y-53852903D01*
X91403367Y-53875000D01*
X91516633Y-53875000D01*
X91627721Y-53852903D01*
X91732365Y-53809558D01*
X91826541Y-53746632D01*
X91906632Y-53666541D01*
X91917684Y-53650000D01*
X96941664Y-53650000D01*
X96962097Y-53752721D01*
X97005442Y-53857365D01*
X97068368Y-53951541D01*
X97148459Y-54031632D01*
X97242635Y-54094558D01*
X97347279Y-54137903D01*
X97458367Y-54160000D01*
X97571633Y-54160000D01*
X97682721Y-54137903D01*
X97787365Y-54094558D01*
X97881541Y-54031632D01*
X97961632Y-53951541D01*
X98024558Y-53857365D01*
X98067903Y-53752721D01*
X98090000Y-53641633D01*
X98090000Y-53528367D01*
X98067903Y-53417279D01*
X98024558Y-53312635D01*
X97961632Y-53218459D01*
X97881541Y-53138368D01*
X97787365Y-53075442D01*
X97682721Y-53032097D01*
X97672189Y-53030002D01*
X98415029Y-53030002D01*
X98943881Y-53558855D01*
X98940000Y-53578367D01*
X98940000Y-53691633D01*
X98962097Y-53802721D01*
X99005442Y-53907365D01*
X99068368Y-54001541D01*
X99148459Y-54081632D01*
X99242635Y-54144558D01*
X99347279Y-54187903D01*
X99458367Y-54210000D01*
X99571633Y-54210000D01*
X99682721Y-54187903D01*
X99787365Y-54144558D01*
X99881541Y-54081632D01*
X99961632Y-54001541D01*
X100024558Y-53907365D01*
X100067903Y-53802721D01*
X100090000Y-53691633D01*
X100090000Y-53578367D01*
X100067903Y-53467279D01*
X100024558Y-53362635D01*
X99961632Y-53268459D01*
X99881541Y-53188368D01*
X99787365Y-53125442D01*
X99682721Y-53082097D01*
X99571633Y-53060000D01*
X99458367Y-53060000D01*
X99438855Y-53063881D01*
X98819655Y-52444682D01*
X98808687Y-52431317D01*
X98755392Y-52387580D01*
X98694589Y-52355080D01*
X98628614Y-52335067D01*
X98577191Y-52330002D01*
X98577190Y-52330002D01*
X98560002Y-52328309D01*
X98542814Y-52330002D01*
X98362710Y-52330002D01*
X98388685Y-52308685D01*
X98399653Y-52295320D01*
X98938855Y-51756119D01*
X98958367Y-51760000D01*
X99071633Y-51760000D01*
X99182721Y-51737903D01*
X99287365Y-51694558D01*
X99381541Y-51631632D01*
X99461632Y-51551541D01*
X99524558Y-51457365D01*
X99567903Y-51352721D01*
X99590000Y-51241633D01*
X99590000Y-51128367D01*
X99567903Y-51017279D01*
X99524558Y-50912635D01*
X99461632Y-50818459D01*
X99381541Y-50738368D01*
X99287365Y-50675442D01*
X99182721Y-50632097D01*
X99071633Y-50610000D01*
X98958367Y-50610000D01*
X98847279Y-50632097D01*
X98742635Y-50675442D01*
X98648459Y-50738368D01*
X98568368Y-50818459D01*
X98515000Y-50898330D01*
X98461632Y-50818459D01*
X98381541Y-50738368D01*
X98287365Y-50675442D01*
X98182721Y-50632097D01*
X98071633Y-50610000D01*
X97958367Y-50610000D01*
X97938854Y-50613881D01*
X97899653Y-50574680D01*
X97888685Y-50561315D01*
X97835390Y-50517578D01*
X97774587Y-50485078D01*
X97708612Y-50465065D01*
X97657189Y-50460000D01*
X97657188Y-50460000D01*
X97640000Y-50458307D01*
X97622812Y-50460000D01*
X85597173Y-50460000D01*
X85579984Y-50458307D01*
X85511372Y-50465065D01*
X85445396Y-50485078D01*
X85384594Y-50517578D01*
X85331299Y-50561315D01*
X85320335Y-50574675D01*
X84903129Y-50991881D01*
X84883617Y-50988000D01*
X84770351Y-50988000D01*
X84750839Y-50991881D01*
X84413637Y-50654680D01*
X84402669Y-50641315D01*
X84349374Y-50597578D01*
X84288571Y-50565078D01*
X84222596Y-50545065D01*
X84171173Y-50540000D01*
X84171172Y-50540000D01*
X84153984Y-50538307D01*
X84136796Y-50540000D01*
X75587185Y-50540000D01*
X75569999Y-50538307D01*
X75552813Y-50540000D01*
X75552811Y-50540000D01*
X75501388Y-50545065D01*
X75435413Y-50565078D01*
X75374610Y-50597578D01*
X75321315Y-50641315D01*
X75310355Y-50654670D01*
X75070329Y-50894697D01*
X74886001Y-50894697D01*
X74832092Y-50900007D01*
X74780254Y-50915731D01*
X74732480Y-50941267D01*
X74690606Y-50975632D01*
X74656241Y-51017506D01*
X74630705Y-51065280D01*
X74614981Y-51117118D01*
X74609671Y-51171027D01*
X74609671Y-51465220D01*
X74594299Y-51472291D01*
X74502612Y-51538792D01*
X74425660Y-51621902D01*
X74366400Y-51718429D01*
X74327111Y-51824661D01*
X74311054Y-51906250D01*
X54835375Y-51906250D01*
X54809875Y-51823496D01*
X54580626Y-51728895D01*
X54337326Y-51680836D01*
X54089324Y-51681166D01*
X53846153Y-51729872D01*
X53620125Y-51823496D01*
X53555551Y-52033063D01*
X47990000Y-52033063D01*
X47990000Y-50435000D01*
X105490000Y-50435000D01*
X105490001Y-54385000D01*
%TA.AperFunction,Conductor*%
D16*
G36*
X105490001Y-54385000D02*
G01*
X47990000Y-54385000D01*
X47990000Y-53846937D01*
X53555551Y-53846937D01*
X53620125Y-54056504D01*
X53849374Y-54151105D01*
X54092674Y-54199164D01*
X54340676Y-54198834D01*
X54583847Y-54150128D01*
X54809875Y-54056504D01*
X54874449Y-53846937D01*
X54215000Y-53187487D01*
X53555551Y-53846937D01*
X47990000Y-53846937D01*
X47990000Y-52817674D01*
X52955836Y-52817674D01*
X52956166Y-53065676D01*
X53004872Y-53308847D01*
X53098496Y-53534875D01*
X53308063Y-53599449D01*
X53967513Y-52940000D01*
X54462487Y-52940000D01*
X55121937Y-53599449D01*
X55254670Y-53558550D01*
X55254670Y-53624000D01*
X55259980Y-53677909D01*
X55275704Y-53729747D01*
X55301240Y-53777521D01*
X55335605Y-53819395D01*
X55377479Y-53853760D01*
X55425253Y-53879296D01*
X55477091Y-53895020D01*
X55531000Y-53900330D01*
X56899000Y-53900330D01*
X56952909Y-53895020D01*
X57004747Y-53879296D01*
X57052521Y-53853760D01*
X57094395Y-53819395D01*
X57128760Y-53777521D01*
X57154296Y-53729747D01*
X57170020Y-53677909D01*
X57175330Y-53624000D01*
X57175330Y-52256000D01*
X57170020Y-52202091D01*
X57154296Y-52150253D01*
X57128760Y-52102479D01*
X57094395Y-52060605D01*
X57052521Y-52026240D01*
X57004747Y-52000704D01*
X56952909Y-51984980D01*
X56899000Y-51979670D01*
X55531000Y-51979670D01*
X55477091Y-51984980D01*
X55425253Y-52000704D01*
X55377479Y-52026240D01*
X55335605Y-52060605D01*
X55301240Y-52102479D01*
X55275704Y-52150253D01*
X55259980Y-52202091D01*
X55254670Y-52256000D01*
X55254670Y-52321450D01*
X55121937Y-52280551D01*
X54462487Y-52940000D01*
X53967513Y-52940000D01*
X53308063Y-52280551D01*
X53098496Y-52345125D01*
X53003895Y-52574374D01*
X52955836Y-52817674D01*
X47990000Y-52817674D01*
X47990000Y-52033063D01*
X53555551Y-52033063D01*
X54215000Y-52692513D01*
X54874449Y-52033063D01*
X54835375Y-51906250D01*
X74311054Y-51906250D01*
X74454804Y-52050000D01*
X74965054Y-52050000D01*
X74965054Y-52030000D01*
X75230241Y-52030000D01*
X75253791Y-52062469D01*
X75336901Y-52139421D01*
X75433428Y-52198681D01*
X75539660Y-52237970D01*
X75621249Y-52254027D01*
X75764999Y-52110277D01*
X75764999Y-52050000D01*
X75825304Y-52050000D01*
X75961212Y-51914092D01*
X75987291Y-51970782D01*
X76053792Y-52062469D01*
X76136902Y-52139421D01*
X76155657Y-52150935D01*
X76258749Y-52254027D01*
X76339999Y-52238037D01*
X76421250Y-52254027D01*
X76524342Y-52150935D01*
X76543097Y-52139421D01*
X76626207Y-52062469D01*
X76692708Y-51970782D01*
X76740000Y-51867979D01*
X76787292Y-51970782D01*
X76853793Y-52062469D01*
X76936903Y-52139421D01*
X76955658Y-52150935D01*
X77058750Y-52254027D01*
X77140000Y-52238037D01*
X77221251Y-52254027D01*
X77324343Y-52150935D01*
X77343098Y-52139421D01*
X77426208Y-52062469D01*
X77492709Y-51970782D01*
X77518788Y-51914092D01*
X77654696Y-52050000D01*
X77715001Y-52050000D01*
X77715001Y-52110277D01*
X77858751Y-52254027D01*
X77940340Y-52237970D01*
X78046572Y-52198681D01*
X78143099Y-52139421D01*
X78226209Y-52062469D01*
X78249759Y-52030000D01*
X78514946Y-52030000D01*
X78514946Y-52050000D01*
X78976986Y-52050000D01*
X79032279Y-52072903D01*
X79143367Y-52095000D01*
X79256633Y-52095000D01*
X79367721Y-52072903D01*
X79472365Y-52029558D01*
X79566541Y-51966632D01*
X79646632Y-51886541D01*
X79709558Y-51792365D01*
X79752903Y-51687721D01*
X79775000Y-51576633D01*
X79775000Y-51463367D01*
X79752903Y-51352279D01*
X79709558Y-51247635D01*
X79704456Y-51240000D01*
X84009011Y-51240000D01*
X84255865Y-51486855D01*
X84251984Y-51506367D01*
X84251984Y-51619633D01*
X84274081Y-51730721D01*
X84317426Y-51835365D01*
X84380352Y-51929541D01*
X84460443Y-52009632D01*
X84554619Y-52072558D01*
X84659263Y-52115903D01*
X84770351Y-52138000D01*
X84883617Y-52138000D01*
X84994705Y-52115903D01*
X85099349Y-52072558D01*
X85193525Y-52009632D01*
X85242971Y-51960186D01*
X85260442Y-52002365D01*
X85323368Y-52096541D01*
X85403459Y-52176632D01*
X85497635Y-52239558D01*
X85602279Y-52282903D01*
X85713367Y-52305000D01*
X85826633Y-52305000D01*
X85937721Y-52282903D01*
X86042365Y-52239558D01*
X86136541Y-52176632D01*
X86216632Y-52096541D01*
X86279558Y-52002365D01*
X86322903Y-51897721D01*
X86337368Y-51825002D01*
X87761825Y-51825002D01*
X87783457Y-51846634D01*
X87877633Y-51909560D01*
X87982277Y-51952905D01*
X88093365Y-51975002D01*
X88206631Y-51975002D01*
X88317719Y-51952905D01*
X88422363Y-51909560D01*
X88516539Y-51846634D01*
X88596630Y-51766543D01*
X88659556Y-51672367D01*
X88702901Y-51567723D01*
X88724998Y-51456635D01*
X88724998Y-51343369D01*
X88702901Y-51232281D01*
X88672961Y-51160000D01*
X97440000Y-51160000D01*
X97440000Y-51241633D01*
X97462097Y-51352721D01*
X97505442Y-51457365D01*
X97568368Y-51551541D01*
X97648459Y-51631632D01*
X97742635Y-51694558D01*
X97779915Y-51710000D01*
X90047684Y-51710000D01*
X90036632Y-51693459D01*
X89956541Y-51613368D01*
X89862365Y-51550442D01*
X89757721Y-51507097D01*
X89646633Y-51485000D01*
X89533367Y-51485000D01*
X89422279Y-51507097D01*
X89317635Y-51550442D01*
X89223459Y-51613368D01*
X89143368Y-51693459D01*
X89080442Y-51787635D01*
X89037097Y-51892279D01*
X89015000Y-52003367D01*
X89015000Y-52116633D01*
X89018881Y-52136144D01*
X88617856Y-52537170D01*
X88612905Y-52512281D01*
X88569560Y-52407637D01*
X88506634Y-52313461D01*
X88426543Y-52233370D01*
X88332367Y-52170444D01*
X88227723Y-52127099D01*
X88116635Y-52105002D01*
X88003369Y-52105002D01*
X87892281Y-52127099D01*
X87787637Y-52170444D01*
X87693461Y-52233370D01*
X87613370Y-52313461D01*
X87550444Y-52407637D01*
X87507099Y-52512281D01*
X87485002Y-52623369D01*
X87485002Y-52736635D01*
X87488883Y-52756147D01*
X87041057Y-53203974D01*
X79708483Y-53203974D01*
X79709558Y-53202365D01*
X79752903Y-53097721D01*
X79775000Y-52986633D01*
X79775000Y-52873367D01*
X79752903Y-52762279D01*
X79709558Y-52657635D01*
X79646632Y-52563459D01*
X79566541Y-52483368D01*
X79472365Y-52420442D01*
X79367721Y-52377097D01*
X79256633Y-52355000D01*
X79143367Y-52355000D01*
X79032279Y-52377097D01*
X78976986Y-52400000D01*
X78514946Y-52400000D01*
X78514946Y-52420000D01*
X78164946Y-52420000D01*
X78164946Y-52400000D01*
X77654696Y-52400000D01*
X77560053Y-52494643D01*
X77286001Y-52494643D01*
X77232092Y-52499953D01*
X77180254Y-52515677D01*
X77140000Y-52537193D01*
X77099747Y-52515677D01*
X77047909Y-52499953D01*
X76994000Y-52494643D01*
X76486000Y-52494643D01*
X76432091Y-52499953D01*
X76380253Y-52515677D01*
X76339999Y-52537193D01*
X76299746Y-52515677D01*
X76247908Y-52499953D01*
X76193999Y-52494643D01*
X75919947Y-52494643D01*
X75825304Y-52400000D01*
X75315054Y-52400000D01*
X75315054Y-52420000D01*
X74965054Y-52420000D01*
X74965054Y-52400000D01*
X74454804Y-52400000D01*
X74311054Y-52543750D01*
X74327111Y-52625339D01*
X74366400Y-52731571D01*
X74425660Y-52828098D01*
X74502612Y-52911208D01*
X74594299Y-52977709D01*
X74609671Y-52984780D01*
X74609671Y-53278973D01*
X74614981Y-53332882D01*
X74630705Y-53384720D01*
X74656241Y-53432494D01*
X74690606Y-53474368D01*
X74732480Y-53508733D01*
X74780254Y-53534269D01*
X74832092Y-53549993D01*
X74886001Y-53555303D01*
X75394001Y-53555303D01*
X75447910Y-53549993D01*
X75499748Y-53534269D01*
X75540000Y-53512754D01*
X75580252Y-53534269D01*
X75632090Y-53549993D01*
X75685999Y-53555303D01*
X76193999Y-53555303D01*
X76247908Y-53549993D01*
X76299746Y-53534269D01*
X76340000Y-53512753D01*
X76380253Y-53534269D01*
X76432091Y-53549993D01*
X76486000Y-53555303D01*
X76670330Y-53555303D01*
X77254339Y-54139314D01*
X77265299Y-54152669D01*
X77308233Y-54187903D01*
X77318594Y-54196406D01*
X77379397Y-54228906D01*
X77445372Y-54248919D01*
X77513984Y-54255677D01*
X77531173Y-54253984D01*
X87728828Y-54253984D01*
X87746016Y-54255677D01*
X87763204Y-54253984D01*
X87763205Y-54253984D01*
X87814628Y-54248919D01*
X87880603Y-54228906D01*
X87941406Y-54196406D01*
X87994701Y-54152669D01*
X88005669Y-54139304D01*
X89513856Y-52631119D01*
X89533367Y-52635000D01*
X89595000Y-52635000D01*
X89595000Y-52736635D01*
X89617097Y-52847723D01*
X89660442Y-52952367D01*
X89723368Y-53046543D01*
X89803459Y-53126634D01*
X89897635Y-53189560D01*
X90002279Y-53232905D01*
X90113367Y-53255002D01*
X90226633Y-53255002D01*
X90337721Y-53232905D01*
X90442365Y-53189560D01*
X90536541Y-53126634D01*
X90616632Y-53046543D01*
X90627684Y-53030002D01*
X90949462Y-53030002D01*
X90907097Y-53132279D01*
X90885000Y-53243367D01*
X90885000Y-53356633D01*
X90907097Y-53467721D01*
X90950442Y-53572365D01*
X91013368Y-53666541D01*
X91093459Y-53746632D01*
X91187635Y-53809558D01*
X91292279Y-53852903D01*
X91403367Y-53875000D01*
X91516633Y-53875000D01*
X91627721Y-53852903D01*
X91732365Y-53809558D01*
X91826541Y-53746632D01*
X91906632Y-53666541D01*
X91917684Y-53650000D01*
X96941664Y-53650000D01*
X96962097Y-53752721D01*
X97005442Y-53857365D01*
X97068368Y-53951541D01*
X97148459Y-54031632D01*
X97242635Y-54094558D01*
X97347279Y-54137903D01*
X97458367Y-54160000D01*
X97571633Y-54160000D01*
X97682721Y-54137903D01*
X97787365Y-54094558D01*
X97881541Y-54031632D01*
X97961632Y-53951541D01*
X98024558Y-53857365D01*
X98067903Y-53752721D01*
X98090000Y-53641633D01*
X98090000Y-53528367D01*
X98067903Y-53417279D01*
X98024558Y-53312635D01*
X97961632Y-53218459D01*
X97881541Y-53138368D01*
X97787365Y-53075442D01*
X97682721Y-53032097D01*
X97672189Y-53030002D01*
X98415029Y-53030002D01*
X98943881Y-53558855D01*
X98940000Y-53578367D01*
X98940000Y-53691633D01*
X98962097Y-53802721D01*
X99005442Y-53907365D01*
X99068368Y-54001541D01*
X99148459Y-54081632D01*
X99242635Y-54144558D01*
X99347279Y-54187903D01*
X99458367Y-54210000D01*
X99571633Y-54210000D01*
X99682721Y-54187903D01*
X99787365Y-54144558D01*
X99881541Y-54081632D01*
X99961632Y-54001541D01*
X100024558Y-53907365D01*
X100067903Y-53802721D01*
X100090000Y-53691633D01*
X100090000Y-53578367D01*
X100067903Y-53467279D01*
X100024558Y-53362635D01*
X99961632Y-53268459D01*
X99881541Y-53188368D01*
X99787365Y-53125442D01*
X99682721Y-53082097D01*
X99571633Y-53060000D01*
X99458367Y-53060000D01*
X99438855Y-53063881D01*
X98819655Y-52444682D01*
X98808687Y-52431317D01*
X98755392Y-52387580D01*
X98694589Y-52355080D01*
X98628614Y-52335067D01*
X98577191Y-52330002D01*
X98577190Y-52330002D01*
X98560002Y-52328309D01*
X98542814Y-52330002D01*
X98362710Y-52330002D01*
X98388685Y-52308685D01*
X98399653Y-52295320D01*
X98938855Y-51756119D01*
X98958367Y-51760000D01*
X99071633Y-51760000D01*
X99182721Y-51737903D01*
X99287365Y-51694558D01*
X99381541Y-51631632D01*
X99461632Y-51551541D01*
X99524558Y-51457365D01*
X99567903Y-51352721D01*
X99590000Y-51241633D01*
X99590000Y-51128367D01*
X99567903Y-51017279D01*
X99524558Y-50912635D01*
X99461632Y-50818459D01*
X99381541Y-50738368D01*
X99287365Y-50675442D01*
X99182721Y-50632097D01*
X99071633Y-50610000D01*
X98958367Y-50610000D01*
X98847279Y-50632097D01*
X98742635Y-50675442D01*
X98648459Y-50738368D01*
X98568368Y-50818459D01*
X98515000Y-50898330D01*
X98461632Y-50818459D01*
X98381541Y-50738368D01*
X98287365Y-50675442D01*
X98182721Y-50632097D01*
X98071633Y-50610000D01*
X97958367Y-50610000D01*
X97938854Y-50613881D01*
X97899653Y-50574680D01*
X97888685Y-50561315D01*
X97835390Y-50517578D01*
X97774587Y-50485078D01*
X97708612Y-50465065D01*
X97657189Y-50460000D01*
X97657188Y-50460000D01*
X97640000Y-50458307D01*
X97622812Y-50460000D01*
X85597173Y-50460000D01*
X85579984Y-50458307D01*
X85511372Y-50465065D01*
X85445396Y-50485078D01*
X85384594Y-50517578D01*
X85331299Y-50561315D01*
X85320335Y-50574675D01*
X84903129Y-50991881D01*
X84883617Y-50988000D01*
X84770351Y-50988000D01*
X84750839Y-50991881D01*
X84413637Y-50654680D01*
X84402669Y-50641315D01*
X84349374Y-50597578D01*
X84288571Y-50565078D01*
X84222596Y-50545065D01*
X84171173Y-50540000D01*
X84171172Y-50540000D01*
X84153984Y-50538307D01*
X84136796Y-50540000D01*
X75587185Y-50540000D01*
X75569999Y-50538307D01*
X75552813Y-50540000D01*
X75552811Y-50540000D01*
X75501388Y-50545065D01*
X75435413Y-50565078D01*
X75374610Y-50597578D01*
X75321315Y-50641315D01*
X75310355Y-50654670D01*
X75070329Y-50894697D01*
X74886001Y-50894697D01*
X74832092Y-50900007D01*
X74780254Y-50915731D01*
X74732480Y-50941267D01*
X74690606Y-50975632D01*
X74656241Y-51017506D01*
X74630705Y-51065280D01*
X74614981Y-51117118D01*
X74609671Y-51171027D01*
X74609671Y-51465220D01*
X74594299Y-51472291D01*
X74502612Y-51538792D01*
X74425660Y-51621902D01*
X74366400Y-51718429D01*
X74327111Y-51824661D01*
X74311054Y-51906250D01*
X54835375Y-51906250D01*
X54809875Y-51823496D01*
X54580626Y-51728895D01*
X54337326Y-51680836D01*
X54089324Y-51681166D01*
X53846153Y-51729872D01*
X53620125Y-51823496D01*
X53555551Y-52033063D01*
X47990000Y-52033063D01*
X47990000Y-50435000D01*
X105490000Y-50435000D01*
X105490001Y-54385000D01*
G37*
%TD.AperFunction*%
D15*
X76054750Y-51250027D02*
X76625249Y-51250027D01*
X76635276Y-51240000D01*
X76844724Y-51240000D01*
X76854751Y-51250027D01*
X77425250Y-51250027D01*
X77435277Y-51240000D01*
X77715001Y-51240000D01*
X77715001Y-51250027D01*
X77735001Y-51250027D01*
X77735001Y-51515222D01*
X77702504Y-51538792D01*
X77625552Y-51621902D01*
X77566292Y-51718429D01*
X77560179Y-51734956D01*
X77425250Y-51600027D01*
X76854751Y-51600027D01*
X76740000Y-51714778D01*
X76625249Y-51600027D01*
X76054750Y-51600027D01*
X75919821Y-51734956D01*
X75913708Y-51718429D01*
X75854448Y-51621902D01*
X75777496Y-51538792D01*
X75744999Y-51515222D01*
X75744999Y-51250027D01*
X75764999Y-51250027D01*
X75764999Y-51240000D01*
X76044723Y-51240000D01*
X76054750Y-51250027D01*
%TA.AperFunction,Conductor*%
D16*
G36*
X76054750Y-51250027D02*
G01*
X76625249Y-51250027D01*
X76635276Y-51240000D01*
X76844724Y-51240000D01*
X76854751Y-51250027D01*
X77425250Y-51250027D01*
X77435277Y-51240000D01*
X77715001Y-51240000D01*
X77715001Y-51250027D01*
X77735001Y-51250027D01*
X77735001Y-51515222D01*
X77702504Y-51538792D01*
X77625552Y-51621902D01*
X77566292Y-51718429D01*
X77560179Y-51734956D01*
X77425250Y-51600027D01*
X76854751Y-51600027D01*
X76740000Y-51714778D01*
X76625249Y-51600027D01*
X76054750Y-51600027D01*
X75919821Y-51734956D01*
X75913708Y-51718429D01*
X75854448Y-51621902D01*
X75777496Y-51538792D01*
X75744999Y-51515222D01*
X75744999Y-51250027D01*
X75764999Y-51250027D01*
X75764999Y-51240000D01*
X76044723Y-51240000D01*
X76054750Y-51250027D01*
G37*
%TD.AperFunction*%
%TD*%
D15*
%TO.N,GND*%
X105490001Y-61835000D02*
X47990000Y-61835000D01*
X47990000Y-61296937D01*
X53555551Y-61296937D01*
X53620125Y-61506504D01*
X53849374Y-61601105D01*
X54092674Y-61649164D01*
X54340676Y-61648834D01*
X54583847Y-61600128D01*
X54809875Y-61506504D01*
X54874449Y-61296937D01*
X54215000Y-60637487D01*
X53555551Y-61296937D01*
X47990000Y-61296937D01*
X47990000Y-60267674D01*
X52955836Y-60267674D01*
X52956166Y-60515676D01*
X53004872Y-60758847D01*
X53098496Y-60984875D01*
X53308063Y-61049449D01*
X53967513Y-60390000D01*
X54462487Y-60390000D01*
X55121937Y-61049449D01*
X55254670Y-61008550D01*
X55254670Y-61074000D01*
X55259980Y-61127909D01*
X55275704Y-61179747D01*
X55301240Y-61227521D01*
X55335605Y-61269395D01*
X55377479Y-61303760D01*
X55425253Y-61329296D01*
X55477091Y-61345020D01*
X55531000Y-61350330D01*
X56899000Y-61350330D01*
X56952909Y-61345020D01*
X57004747Y-61329296D01*
X57052521Y-61303760D01*
X57094395Y-61269395D01*
X57128760Y-61227521D01*
X57154296Y-61179747D01*
X57170020Y-61127909D01*
X57175330Y-61074000D01*
X57175330Y-59706000D01*
X57170020Y-59652091D01*
X57154296Y-59600253D01*
X57128760Y-59552479D01*
X57094395Y-59510605D01*
X57052521Y-59476240D01*
X57004747Y-59450704D01*
X56952909Y-59434980D01*
X56899000Y-59429670D01*
X55531000Y-59429670D01*
X55477091Y-59434980D01*
X55425253Y-59450704D01*
X55377479Y-59476240D01*
X55335605Y-59510605D01*
X55301240Y-59552479D01*
X55275704Y-59600253D01*
X55259980Y-59652091D01*
X55254670Y-59706000D01*
X55254670Y-59771450D01*
X55121937Y-59730551D01*
X54462487Y-60390000D01*
X53967513Y-60390000D01*
X53308063Y-59730551D01*
X53098496Y-59795125D01*
X53003895Y-60024374D01*
X52955836Y-60267674D01*
X47990000Y-60267674D01*
X47990000Y-59483063D01*
X53555551Y-59483063D01*
X54215000Y-60142513D01*
X54874449Y-59483063D01*
X54835375Y-59356250D01*
X74311054Y-59356250D01*
X74454804Y-59500000D01*
X74965054Y-59500000D01*
X74965054Y-59480000D01*
X75230241Y-59480000D01*
X75253791Y-59512469D01*
X75336901Y-59589421D01*
X75433428Y-59648681D01*
X75539660Y-59687970D01*
X75621249Y-59704027D01*
X75764999Y-59560277D01*
X75764999Y-59500000D01*
X75825304Y-59500000D01*
X75961212Y-59364092D01*
X75987291Y-59420782D01*
X76053792Y-59512469D01*
X76136902Y-59589421D01*
X76155657Y-59600935D01*
X76258749Y-59704027D01*
X76339999Y-59688037D01*
X76421250Y-59704027D01*
X76524342Y-59600935D01*
X76543097Y-59589421D01*
X76626207Y-59512469D01*
X76692708Y-59420782D01*
X76740000Y-59317979D01*
X76787292Y-59420782D01*
X76853793Y-59512469D01*
X76936903Y-59589421D01*
X76955658Y-59600935D01*
X77058750Y-59704027D01*
X77140000Y-59688037D01*
X77221251Y-59704027D01*
X77324343Y-59600935D01*
X77343098Y-59589421D01*
X77426208Y-59512469D01*
X77492709Y-59420782D01*
X77518788Y-59364092D01*
X77654696Y-59500000D01*
X77715001Y-59500000D01*
X77715001Y-59560277D01*
X77858751Y-59704027D01*
X77940340Y-59687970D01*
X78046572Y-59648681D01*
X78143099Y-59589421D01*
X78226209Y-59512469D01*
X78249759Y-59480000D01*
X78514946Y-59480000D01*
X78514946Y-59500000D01*
X78976986Y-59500000D01*
X79032279Y-59522903D01*
X79143367Y-59545000D01*
X79256633Y-59545000D01*
X79367721Y-59522903D01*
X79472365Y-59479558D01*
X79566541Y-59416632D01*
X79646632Y-59336541D01*
X79709558Y-59242365D01*
X79752903Y-59137721D01*
X79775000Y-59026633D01*
X79775000Y-58913367D01*
X79752903Y-58802279D01*
X79709558Y-58697635D01*
X79704456Y-58690000D01*
X84009011Y-58690000D01*
X84255865Y-58936855D01*
X84251984Y-58956367D01*
X84251984Y-59069633D01*
X84274081Y-59180721D01*
X84317426Y-59285365D01*
X84380352Y-59379541D01*
X84460443Y-59459632D01*
X84554619Y-59522558D01*
X84659263Y-59565903D01*
X84770351Y-59588000D01*
X84883617Y-59588000D01*
X84994705Y-59565903D01*
X85099349Y-59522558D01*
X85193525Y-59459632D01*
X85242971Y-59410186D01*
X85260442Y-59452365D01*
X85323368Y-59546541D01*
X85403459Y-59626632D01*
X85497635Y-59689558D01*
X85602279Y-59732903D01*
X85713367Y-59755000D01*
X85826633Y-59755000D01*
X85937721Y-59732903D01*
X86042365Y-59689558D01*
X86136541Y-59626632D01*
X86216632Y-59546541D01*
X86279558Y-59452365D01*
X86322903Y-59347721D01*
X86337368Y-59275002D01*
X87761825Y-59275002D01*
X87783457Y-59296634D01*
X87877633Y-59359560D01*
X87982277Y-59402905D01*
X88093365Y-59425002D01*
X88206631Y-59425002D01*
X88317719Y-59402905D01*
X88422363Y-59359560D01*
X88516539Y-59296634D01*
X88596630Y-59216543D01*
X88659556Y-59122367D01*
X88702901Y-59017723D01*
X88724998Y-58906635D01*
X88724998Y-58793369D01*
X88702901Y-58682281D01*
X88672961Y-58610000D01*
X97440000Y-58610000D01*
X97440000Y-58691633D01*
X97462097Y-58802721D01*
X97505442Y-58907365D01*
X97568368Y-59001541D01*
X97648459Y-59081632D01*
X97742635Y-59144558D01*
X97779915Y-59160000D01*
X90047684Y-59160000D01*
X90036632Y-59143459D01*
X89956541Y-59063368D01*
X89862365Y-59000442D01*
X89757721Y-58957097D01*
X89646633Y-58935000D01*
X89533367Y-58935000D01*
X89422279Y-58957097D01*
X89317635Y-59000442D01*
X89223459Y-59063368D01*
X89143368Y-59143459D01*
X89080442Y-59237635D01*
X89037097Y-59342279D01*
X89015000Y-59453367D01*
X89015000Y-59566633D01*
X89018881Y-59586144D01*
X88617856Y-59987170D01*
X88612905Y-59962281D01*
X88569560Y-59857637D01*
X88506634Y-59763461D01*
X88426543Y-59683370D01*
X88332367Y-59620444D01*
X88227723Y-59577099D01*
X88116635Y-59555002D01*
X88003369Y-59555002D01*
X87892281Y-59577099D01*
X87787637Y-59620444D01*
X87693461Y-59683370D01*
X87613370Y-59763461D01*
X87550444Y-59857637D01*
X87507099Y-59962281D01*
X87485002Y-60073369D01*
X87485002Y-60186635D01*
X87488883Y-60206147D01*
X87041057Y-60653974D01*
X79708483Y-60653974D01*
X79709558Y-60652365D01*
X79752903Y-60547721D01*
X79775000Y-60436633D01*
X79775000Y-60323367D01*
X79752903Y-60212279D01*
X79709558Y-60107635D01*
X79646632Y-60013459D01*
X79566541Y-59933368D01*
X79472365Y-59870442D01*
X79367721Y-59827097D01*
X79256633Y-59805000D01*
X79143367Y-59805000D01*
X79032279Y-59827097D01*
X78976986Y-59850000D01*
X78514946Y-59850000D01*
X78514946Y-59870000D01*
X78164946Y-59870000D01*
X78164946Y-59850000D01*
X77654696Y-59850000D01*
X77560053Y-59944643D01*
X77286001Y-59944643D01*
X77232092Y-59949953D01*
X77180254Y-59965677D01*
X77140000Y-59987193D01*
X77099747Y-59965677D01*
X77047909Y-59949953D01*
X76994000Y-59944643D01*
X76486000Y-59944643D01*
X76432091Y-59949953D01*
X76380253Y-59965677D01*
X76339999Y-59987193D01*
X76299746Y-59965677D01*
X76247908Y-59949953D01*
X76193999Y-59944643D01*
X75919947Y-59944643D01*
X75825304Y-59850000D01*
X75315054Y-59850000D01*
X75315054Y-59870000D01*
X74965054Y-59870000D01*
X74965054Y-59850000D01*
X74454804Y-59850000D01*
X74311054Y-59993750D01*
X74327111Y-60075339D01*
X74366400Y-60181571D01*
X74425660Y-60278098D01*
X74502612Y-60361208D01*
X74594299Y-60427709D01*
X74609671Y-60434780D01*
X74609671Y-60728973D01*
X74614981Y-60782882D01*
X74630705Y-60834720D01*
X74656241Y-60882494D01*
X74690606Y-60924368D01*
X74732480Y-60958733D01*
X74780254Y-60984269D01*
X74832092Y-60999993D01*
X74886001Y-61005303D01*
X75394001Y-61005303D01*
X75447910Y-60999993D01*
X75499748Y-60984269D01*
X75540000Y-60962754D01*
X75580252Y-60984269D01*
X75632090Y-60999993D01*
X75685999Y-61005303D01*
X76193999Y-61005303D01*
X76247908Y-60999993D01*
X76299746Y-60984269D01*
X76340000Y-60962753D01*
X76380253Y-60984269D01*
X76432091Y-60999993D01*
X76486000Y-61005303D01*
X76670330Y-61005303D01*
X77254339Y-61589314D01*
X77265299Y-61602669D01*
X77308233Y-61637903D01*
X77318594Y-61646406D01*
X77379397Y-61678906D01*
X77445372Y-61698919D01*
X77513984Y-61705677D01*
X77531173Y-61703984D01*
X87728828Y-61703984D01*
X87746016Y-61705677D01*
X87763204Y-61703984D01*
X87763205Y-61703984D01*
X87814628Y-61698919D01*
X87880603Y-61678906D01*
X87941406Y-61646406D01*
X87994701Y-61602669D01*
X88005669Y-61589304D01*
X89513856Y-60081119D01*
X89533367Y-60085000D01*
X89595000Y-60085000D01*
X89595000Y-60186635D01*
X89617097Y-60297723D01*
X89660442Y-60402367D01*
X89723368Y-60496543D01*
X89803459Y-60576634D01*
X89897635Y-60639560D01*
X90002279Y-60682905D01*
X90113367Y-60705002D01*
X90226633Y-60705002D01*
X90337721Y-60682905D01*
X90442365Y-60639560D01*
X90536541Y-60576634D01*
X90616632Y-60496543D01*
X90627684Y-60480002D01*
X90949462Y-60480002D01*
X90907097Y-60582279D01*
X90885000Y-60693367D01*
X90885000Y-60806633D01*
X90907097Y-60917721D01*
X90950442Y-61022365D01*
X91013368Y-61116541D01*
X91093459Y-61196632D01*
X91187635Y-61259558D01*
X91292279Y-61302903D01*
X91403367Y-61325000D01*
X91516633Y-61325000D01*
X91627721Y-61302903D01*
X91732365Y-61259558D01*
X91826541Y-61196632D01*
X91906632Y-61116541D01*
X91917684Y-61100000D01*
X96941664Y-61100000D01*
X96962097Y-61202721D01*
X97005442Y-61307365D01*
X97068368Y-61401541D01*
X97148459Y-61481632D01*
X97242635Y-61544558D01*
X97347279Y-61587903D01*
X97458367Y-61610000D01*
X97571633Y-61610000D01*
X97682721Y-61587903D01*
X97787365Y-61544558D01*
X97881541Y-61481632D01*
X97961632Y-61401541D01*
X98024558Y-61307365D01*
X98067903Y-61202721D01*
X98090000Y-61091633D01*
X98090000Y-60978367D01*
X98067903Y-60867279D01*
X98024558Y-60762635D01*
X97961632Y-60668459D01*
X97881541Y-60588368D01*
X97787365Y-60525442D01*
X97682721Y-60482097D01*
X97672189Y-60480002D01*
X98415029Y-60480002D01*
X98943881Y-61008855D01*
X98940000Y-61028367D01*
X98940000Y-61141633D01*
X98962097Y-61252721D01*
X99005442Y-61357365D01*
X99068368Y-61451541D01*
X99148459Y-61531632D01*
X99242635Y-61594558D01*
X99347279Y-61637903D01*
X99458367Y-61660000D01*
X99571633Y-61660000D01*
X99682721Y-61637903D01*
X99787365Y-61594558D01*
X99881541Y-61531632D01*
X99961632Y-61451541D01*
X100024558Y-61357365D01*
X100067903Y-61252721D01*
X100090000Y-61141633D01*
X100090000Y-61028367D01*
X100067903Y-60917279D01*
X100024558Y-60812635D01*
X99961632Y-60718459D01*
X99881541Y-60638368D01*
X99787365Y-60575442D01*
X99682721Y-60532097D01*
X99571633Y-60510000D01*
X99458367Y-60510000D01*
X99438855Y-60513881D01*
X98819655Y-59894682D01*
X98808687Y-59881317D01*
X98755392Y-59837580D01*
X98694589Y-59805080D01*
X98628614Y-59785067D01*
X98577191Y-59780002D01*
X98577190Y-59780002D01*
X98560002Y-59778309D01*
X98542814Y-59780002D01*
X98362710Y-59780002D01*
X98388685Y-59758685D01*
X98399653Y-59745320D01*
X98938855Y-59206119D01*
X98958367Y-59210000D01*
X99071633Y-59210000D01*
X99182721Y-59187903D01*
X99287365Y-59144558D01*
X99381541Y-59081632D01*
X99461632Y-59001541D01*
X99524558Y-58907365D01*
X99567903Y-58802721D01*
X99590000Y-58691633D01*
X99590000Y-58578367D01*
X99567903Y-58467279D01*
X99524558Y-58362635D01*
X99461632Y-58268459D01*
X99381541Y-58188368D01*
X99287365Y-58125442D01*
X99182721Y-58082097D01*
X99071633Y-58060000D01*
X98958367Y-58060000D01*
X98847279Y-58082097D01*
X98742635Y-58125442D01*
X98648459Y-58188368D01*
X98568368Y-58268459D01*
X98515000Y-58348330D01*
X98461632Y-58268459D01*
X98381541Y-58188368D01*
X98287365Y-58125442D01*
X98182721Y-58082097D01*
X98071633Y-58060000D01*
X97958367Y-58060000D01*
X97938854Y-58063881D01*
X97899653Y-58024680D01*
X97888685Y-58011315D01*
X97835390Y-57967578D01*
X97774587Y-57935078D01*
X97708612Y-57915065D01*
X97657189Y-57910000D01*
X97657188Y-57910000D01*
X97640000Y-57908307D01*
X97622812Y-57910000D01*
X85597173Y-57910000D01*
X85579984Y-57908307D01*
X85511372Y-57915065D01*
X85445396Y-57935078D01*
X85384594Y-57967578D01*
X85331299Y-58011315D01*
X85320335Y-58024675D01*
X84903129Y-58441881D01*
X84883617Y-58438000D01*
X84770351Y-58438000D01*
X84750839Y-58441881D01*
X84413637Y-58104680D01*
X84402669Y-58091315D01*
X84349374Y-58047578D01*
X84288571Y-58015078D01*
X84222596Y-57995065D01*
X84171173Y-57990000D01*
X84171172Y-57990000D01*
X84153984Y-57988307D01*
X84136796Y-57990000D01*
X75587185Y-57990000D01*
X75569999Y-57988307D01*
X75552813Y-57990000D01*
X75552811Y-57990000D01*
X75501388Y-57995065D01*
X75435413Y-58015078D01*
X75374610Y-58047578D01*
X75321315Y-58091315D01*
X75310355Y-58104670D01*
X75070329Y-58344697D01*
X74886001Y-58344697D01*
X74832092Y-58350007D01*
X74780254Y-58365731D01*
X74732480Y-58391267D01*
X74690606Y-58425632D01*
X74656241Y-58467506D01*
X74630705Y-58515280D01*
X74614981Y-58567118D01*
X74609671Y-58621027D01*
X74609671Y-58915220D01*
X74594299Y-58922291D01*
X74502612Y-58988792D01*
X74425660Y-59071902D01*
X74366400Y-59168429D01*
X74327111Y-59274661D01*
X74311054Y-59356250D01*
X54835375Y-59356250D01*
X54809875Y-59273496D01*
X54580626Y-59178895D01*
X54337326Y-59130836D01*
X54089324Y-59131166D01*
X53846153Y-59179872D01*
X53620125Y-59273496D01*
X53555551Y-59483063D01*
X47990000Y-59483063D01*
X47990000Y-57885000D01*
X105490000Y-57885000D01*
X105490001Y-61835000D01*
%TA.AperFunction,Conductor*%
D16*
G36*
X105490001Y-61835000D02*
G01*
X47990000Y-61835000D01*
X47990000Y-61296937D01*
X53555551Y-61296937D01*
X53620125Y-61506504D01*
X53849374Y-61601105D01*
X54092674Y-61649164D01*
X54340676Y-61648834D01*
X54583847Y-61600128D01*
X54809875Y-61506504D01*
X54874449Y-61296937D01*
X54215000Y-60637487D01*
X53555551Y-61296937D01*
X47990000Y-61296937D01*
X47990000Y-60267674D01*
X52955836Y-60267674D01*
X52956166Y-60515676D01*
X53004872Y-60758847D01*
X53098496Y-60984875D01*
X53308063Y-61049449D01*
X53967513Y-60390000D01*
X54462487Y-60390000D01*
X55121937Y-61049449D01*
X55254670Y-61008550D01*
X55254670Y-61074000D01*
X55259980Y-61127909D01*
X55275704Y-61179747D01*
X55301240Y-61227521D01*
X55335605Y-61269395D01*
X55377479Y-61303760D01*
X55425253Y-61329296D01*
X55477091Y-61345020D01*
X55531000Y-61350330D01*
X56899000Y-61350330D01*
X56952909Y-61345020D01*
X57004747Y-61329296D01*
X57052521Y-61303760D01*
X57094395Y-61269395D01*
X57128760Y-61227521D01*
X57154296Y-61179747D01*
X57170020Y-61127909D01*
X57175330Y-61074000D01*
X57175330Y-59706000D01*
X57170020Y-59652091D01*
X57154296Y-59600253D01*
X57128760Y-59552479D01*
X57094395Y-59510605D01*
X57052521Y-59476240D01*
X57004747Y-59450704D01*
X56952909Y-59434980D01*
X56899000Y-59429670D01*
X55531000Y-59429670D01*
X55477091Y-59434980D01*
X55425253Y-59450704D01*
X55377479Y-59476240D01*
X55335605Y-59510605D01*
X55301240Y-59552479D01*
X55275704Y-59600253D01*
X55259980Y-59652091D01*
X55254670Y-59706000D01*
X55254670Y-59771450D01*
X55121937Y-59730551D01*
X54462487Y-60390000D01*
X53967513Y-60390000D01*
X53308063Y-59730551D01*
X53098496Y-59795125D01*
X53003895Y-60024374D01*
X52955836Y-60267674D01*
X47990000Y-60267674D01*
X47990000Y-59483063D01*
X53555551Y-59483063D01*
X54215000Y-60142513D01*
X54874449Y-59483063D01*
X54835375Y-59356250D01*
X74311054Y-59356250D01*
X74454804Y-59500000D01*
X74965054Y-59500000D01*
X74965054Y-59480000D01*
X75230241Y-59480000D01*
X75253791Y-59512469D01*
X75336901Y-59589421D01*
X75433428Y-59648681D01*
X75539660Y-59687970D01*
X75621249Y-59704027D01*
X75764999Y-59560277D01*
X75764999Y-59500000D01*
X75825304Y-59500000D01*
X75961212Y-59364092D01*
X75987291Y-59420782D01*
X76053792Y-59512469D01*
X76136902Y-59589421D01*
X76155657Y-59600935D01*
X76258749Y-59704027D01*
X76339999Y-59688037D01*
X76421250Y-59704027D01*
X76524342Y-59600935D01*
X76543097Y-59589421D01*
X76626207Y-59512469D01*
X76692708Y-59420782D01*
X76740000Y-59317979D01*
X76787292Y-59420782D01*
X76853793Y-59512469D01*
X76936903Y-59589421D01*
X76955658Y-59600935D01*
X77058750Y-59704027D01*
X77140000Y-59688037D01*
X77221251Y-59704027D01*
X77324343Y-59600935D01*
X77343098Y-59589421D01*
X77426208Y-59512469D01*
X77492709Y-59420782D01*
X77518788Y-59364092D01*
X77654696Y-59500000D01*
X77715001Y-59500000D01*
X77715001Y-59560277D01*
X77858751Y-59704027D01*
X77940340Y-59687970D01*
X78046572Y-59648681D01*
X78143099Y-59589421D01*
X78226209Y-59512469D01*
X78249759Y-59480000D01*
X78514946Y-59480000D01*
X78514946Y-59500000D01*
X78976986Y-59500000D01*
X79032279Y-59522903D01*
X79143367Y-59545000D01*
X79256633Y-59545000D01*
X79367721Y-59522903D01*
X79472365Y-59479558D01*
X79566541Y-59416632D01*
X79646632Y-59336541D01*
X79709558Y-59242365D01*
X79752903Y-59137721D01*
X79775000Y-59026633D01*
X79775000Y-58913367D01*
X79752903Y-58802279D01*
X79709558Y-58697635D01*
X79704456Y-58690000D01*
X84009011Y-58690000D01*
X84255865Y-58936855D01*
X84251984Y-58956367D01*
X84251984Y-59069633D01*
X84274081Y-59180721D01*
X84317426Y-59285365D01*
X84380352Y-59379541D01*
X84460443Y-59459632D01*
X84554619Y-59522558D01*
X84659263Y-59565903D01*
X84770351Y-59588000D01*
X84883617Y-59588000D01*
X84994705Y-59565903D01*
X85099349Y-59522558D01*
X85193525Y-59459632D01*
X85242971Y-59410186D01*
X85260442Y-59452365D01*
X85323368Y-59546541D01*
X85403459Y-59626632D01*
X85497635Y-59689558D01*
X85602279Y-59732903D01*
X85713367Y-59755000D01*
X85826633Y-59755000D01*
X85937721Y-59732903D01*
X86042365Y-59689558D01*
X86136541Y-59626632D01*
X86216632Y-59546541D01*
X86279558Y-59452365D01*
X86322903Y-59347721D01*
X86337368Y-59275002D01*
X87761825Y-59275002D01*
X87783457Y-59296634D01*
X87877633Y-59359560D01*
X87982277Y-59402905D01*
X88093365Y-59425002D01*
X88206631Y-59425002D01*
X88317719Y-59402905D01*
X88422363Y-59359560D01*
X88516539Y-59296634D01*
X88596630Y-59216543D01*
X88659556Y-59122367D01*
X88702901Y-59017723D01*
X88724998Y-58906635D01*
X88724998Y-58793369D01*
X88702901Y-58682281D01*
X88672961Y-58610000D01*
X97440000Y-58610000D01*
X97440000Y-58691633D01*
X97462097Y-58802721D01*
X97505442Y-58907365D01*
X97568368Y-59001541D01*
X97648459Y-59081632D01*
X97742635Y-59144558D01*
X97779915Y-59160000D01*
X90047684Y-59160000D01*
X90036632Y-59143459D01*
X89956541Y-59063368D01*
X89862365Y-59000442D01*
X89757721Y-58957097D01*
X89646633Y-58935000D01*
X89533367Y-58935000D01*
X89422279Y-58957097D01*
X89317635Y-59000442D01*
X89223459Y-59063368D01*
X89143368Y-59143459D01*
X89080442Y-59237635D01*
X89037097Y-59342279D01*
X89015000Y-59453367D01*
X89015000Y-59566633D01*
X89018881Y-59586144D01*
X88617856Y-59987170D01*
X88612905Y-59962281D01*
X88569560Y-59857637D01*
X88506634Y-59763461D01*
X88426543Y-59683370D01*
X88332367Y-59620444D01*
X88227723Y-59577099D01*
X88116635Y-59555002D01*
X88003369Y-59555002D01*
X87892281Y-59577099D01*
X87787637Y-59620444D01*
X87693461Y-59683370D01*
X87613370Y-59763461D01*
X87550444Y-59857637D01*
X87507099Y-59962281D01*
X87485002Y-60073369D01*
X87485002Y-60186635D01*
X87488883Y-60206147D01*
X87041057Y-60653974D01*
X79708483Y-60653974D01*
X79709558Y-60652365D01*
X79752903Y-60547721D01*
X79775000Y-60436633D01*
X79775000Y-60323367D01*
X79752903Y-60212279D01*
X79709558Y-60107635D01*
X79646632Y-60013459D01*
X79566541Y-59933368D01*
X79472365Y-59870442D01*
X79367721Y-59827097D01*
X79256633Y-59805000D01*
X79143367Y-59805000D01*
X79032279Y-59827097D01*
X78976986Y-59850000D01*
X78514946Y-59850000D01*
X78514946Y-59870000D01*
X78164946Y-59870000D01*
X78164946Y-59850000D01*
X77654696Y-59850000D01*
X77560053Y-59944643D01*
X77286001Y-59944643D01*
X77232092Y-59949953D01*
X77180254Y-59965677D01*
X77140000Y-59987193D01*
X77099747Y-59965677D01*
X77047909Y-59949953D01*
X76994000Y-59944643D01*
X76486000Y-59944643D01*
X76432091Y-59949953D01*
X76380253Y-59965677D01*
X76339999Y-59987193D01*
X76299746Y-59965677D01*
X76247908Y-59949953D01*
X76193999Y-59944643D01*
X75919947Y-59944643D01*
X75825304Y-59850000D01*
X75315054Y-59850000D01*
X75315054Y-59870000D01*
X74965054Y-59870000D01*
X74965054Y-59850000D01*
X74454804Y-59850000D01*
X74311054Y-59993750D01*
X74327111Y-60075339D01*
X74366400Y-60181571D01*
X74425660Y-60278098D01*
X74502612Y-60361208D01*
X74594299Y-60427709D01*
X74609671Y-60434780D01*
X74609671Y-60728973D01*
X74614981Y-60782882D01*
X74630705Y-60834720D01*
X74656241Y-60882494D01*
X74690606Y-60924368D01*
X74732480Y-60958733D01*
X74780254Y-60984269D01*
X74832092Y-60999993D01*
X74886001Y-61005303D01*
X75394001Y-61005303D01*
X75447910Y-60999993D01*
X75499748Y-60984269D01*
X75540000Y-60962754D01*
X75580252Y-60984269D01*
X75632090Y-60999993D01*
X75685999Y-61005303D01*
X76193999Y-61005303D01*
X76247908Y-60999993D01*
X76299746Y-60984269D01*
X76340000Y-60962753D01*
X76380253Y-60984269D01*
X76432091Y-60999993D01*
X76486000Y-61005303D01*
X76670330Y-61005303D01*
X77254339Y-61589314D01*
X77265299Y-61602669D01*
X77308233Y-61637903D01*
X77318594Y-61646406D01*
X77379397Y-61678906D01*
X77445372Y-61698919D01*
X77513984Y-61705677D01*
X77531173Y-61703984D01*
X87728828Y-61703984D01*
X87746016Y-61705677D01*
X87763204Y-61703984D01*
X87763205Y-61703984D01*
X87814628Y-61698919D01*
X87880603Y-61678906D01*
X87941406Y-61646406D01*
X87994701Y-61602669D01*
X88005669Y-61589304D01*
X89513856Y-60081119D01*
X89533367Y-60085000D01*
X89595000Y-60085000D01*
X89595000Y-60186635D01*
X89617097Y-60297723D01*
X89660442Y-60402367D01*
X89723368Y-60496543D01*
X89803459Y-60576634D01*
X89897635Y-60639560D01*
X90002279Y-60682905D01*
X90113367Y-60705002D01*
X90226633Y-60705002D01*
X90337721Y-60682905D01*
X90442365Y-60639560D01*
X90536541Y-60576634D01*
X90616632Y-60496543D01*
X90627684Y-60480002D01*
X90949462Y-60480002D01*
X90907097Y-60582279D01*
X90885000Y-60693367D01*
X90885000Y-60806633D01*
X90907097Y-60917721D01*
X90950442Y-61022365D01*
X91013368Y-61116541D01*
X91093459Y-61196632D01*
X91187635Y-61259558D01*
X91292279Y-61302903D01*
X91403367Y-61325000D01*
X91516633Y-61325000D01*
X91627721Y-61302903D01*
X91732365Y-61259558D01*
X91826541Y-61196632D01*
X91906632Y-61116541D01*
X91917684Y-61100000D01*
X96941664Y-61100000D01*
X96962097Y-61202721D01*
X97005442Y-61307365D01*
X97068368Y-61401541D01*
X97148459Y-61481632D01*
X97242635Y-61544558D01*
X97347279Y-61587903D01*
X97458367Y-61610000D01*
X97571633Y-61610000D01*
X97682721Y-61587903D01*
X97787365Y-61544558D01*
X97881541Y-61481632D01*
X97961632Y-61401541D01*
X98024558Y-61307365D01*
X98067903Y-61202721D01*
X98090000Y-61091633D01*
X98090000Y-60978367D01*
X98067903Y-60867279D01*
X98024558Y-60762635D01*
X97961632Y-60668459D01*
X97881541Y-60588368D01*
X97787365Y-60525442D01*
X97682721Y-60482097D01*
X97672189Y-60480002D01*
X98415029Y-60480002D01*
X98943881Y-61008855D01*
X98940000Y-61028367D01*
X98940000Y-61141633D01*
X98962097Y-61252721D01*
X99005442Y-61357365D01*
X99068368Y-61451541D01*
X99148459Y-61531632D01*
X99242635Y-61594558D01*
X99347279Y-61637903D01*
X99458367Y-61660000D01*
X99571633Y-61660000D01*
X99682721Y-61637903D01*
X99787365Y-61594558D01*
X99881541Y-61531632D01*
X99961632Y-61451541D01*
X100024558Y-61357365D01*
X100067903Y-61252721D01*
X100090000Y-61141633D01*
X100090000Y-61028367D01*
X100067903Y-60917279D01*
X100024558Y-60812635D01*
X99961632Y-60718459D01*
X99881541Y-60638368D01*
X99787365Y-60575442D01*
X99682721Y-60532097D01*
X99571633Y-60510000D01*
X99458367Y-60510000D01*
X99438855Y-60513881D01*
X98819655Y-59894682D01*
X98808687Y-59881317D01*
X98755392Y-59837580D01*
X98694589Y-59805080D01*
X98628614Y-59785067D01*
X98577191Y-59780002D01*
X98577190Y-59780002D01*
X98560002Y-59778309D01*
X98542814Y-59780002D01*
X98362710Y-59780002D01*
X98388685Y-59758685D01*
X98399653Y-59745320D01*
X98938855Y-59206119D01*
X98958367Y-59210000D01*
X99071633Y-59210000D01*
X99182721Y-59187903D01*
X99287365Y-59144558D01*
X99381541Y-59081632D01*
X99461632Y-59001541D01*
X99524558Y-58907365D01*
X99567903Y-58802721D01*
X99590000Y-58691633D01*
X99590000Y-58578367D01*
X99567903Y-58467279D01*
X99524558Y-58362635D01*
X99461632Y-58268459D01*
X99381541Y-58188368D01*
X99287365Y-58125442D01*
X99182721Y-58082097D01*
X99071633Y-58060000D01*
X98958367Y-58060000D01*
X98847279Y-58082097D01*
X98742635Y-58125442D01*
X98648459Y-58188368D01*
X98568368Y-58268459D01*
X98515000Y-58348330D01*
X98461632Y-58268459D01*
X98381541Y-58188368D01*
X98287365Y-58125442D01*
X98182721Y-58082097D01*
X98071633Y-58060000D01*
X97958367Y-58060000D01*
X97938854Y-58063881D01*
X97899653Y-58024680D01*
X97888685Y-58011315D01*
X97835390Y-57967578D01*
X97774587Y-57935078D01*
X97708612Y-57915065D01*
X97657189Y-57910000D01*
X97657188Y-57910000D01*
X97640000Y-57908307D01*
X97622812Y-57910000D01*
X85597173Y-57910000D01*
X85579984Y-57908307D01*
X85511372Y-57915065D01*
X85445396Y-57935078D01*
X85384594Y-57967578D01*
X85331299Y-58011315D01*
X85320335Y-58024675D01*
X84903129Y-58441881D01*
X84883617Y-58438000D01*
X84770351Y-58438000D01*
X84750839Y-58441881D01*
X84413637Y-58104680D01*
X84402669Y-58091315D01*
X84349374Y-58047578D01*
X84288571Y-58015078D01*
X84222596Y-57995065D01*
X84171173Y-57990000D01*
X84171172Y-57990000D01*
X84153984Y-57988307D01*
X84136796Y-57990000D01*
X75587185Y-57990000D01*
X75569999Y-57988307D01*
X75552813Y-57990000D01*
X75552811Y-57990000D01*
X75501388Y-57995065D01*
X75435413Y-58015078D01*
X75374610Y-58047578D01*
X75321315Y-58091315D01*
X75310355Y-58104670D01*
X75070329Y-58344697D01*
X74886001Y-58344697D01*
X74832092Y-58350007D01*
X74780254Y-58365731D01*
X74732480Y-58391267D01*
X74690606Y-58425632D01*
X74656241Y-58467506D01*
X74630705Y-58515280D01*
X74614981Y-58567118D01*
X74609671Y-58621027D01*
X74609671Y-58915220D01*
X74594299Y-58922291D01*
X74502612Y-58988792D01*
X74425660Y-59071902D01*
X74366400Y-59168429D01*
X74327111Y-59274661D01*
X74311054Y-59356250D01*
X54835375Y-59356250D01*
X54809875Y-59273496D01*
X54580626Y-59178895D01*
X54337326Y-59130836D01*
X54089324Y-59131166D01*
X53846153Y-59179872D01*
X53620125Y-59273496D01*
X53555551Y-59483063D01*
X47990000Y-59483063D01*
X47990000Y-57885000D01*
X105490000Y-57885000D01*
X105490001Y-61835000D01*
G37*
%TD.AperFunction*%
D15*
X76054750Y-58700027D02*
X76625249Y-58700027D01*
X76635276Y-58690000D01*
X76844724Y-58690000D01*
X76854751Y-58700027D01*
X77425250Y-58700027D01*
X77435277Y-58690000D01*
X77715001Y-58690000D01*
X77715001Y-58700027D01*
X77735001Y-58700027D01*
X77735001Y-58965222D01*
X77702504Y-58988792D01*
X77625552Y-59071902D01*
X77566292Y-59168429D01*
X77560179Y-59184956D01*
X77425250Y-59050027D01*
X76854751Y-59050027D01*
X76740000Y-59164778D01*
X76625249Y-59050027D01*
X76054750Y-59050027D01*
X75919821Y-59184956D01*
X75913708Y-59168429D01*
X75854448Y-59071902D01*
X75777496Y-58988792D01*
X75744999Y-58965222D01*
X75744999Y-58700027D01*
X75764999Y-58700027D01*
X75764999Y-58690000D01*
X76044723Y-58690000D01*
X76054750Y-58700027D01*
%TA.AperFunction,Conductor*%
D16*
G36*
X76054750Y-58700027D02*
G01*
X76625249Y-58700027D01*
X76635276Y-58690000D01*
X76844724Y-58690000D01*
X76854751Y-58700027D01*
X77425250Y-58700027D01*
X77435277Y-58690000D01*
X77715001Y-58690000D01*
X77715001Y-58700027D01*
X77735001Y-58700027D01*
X77735001Y-58965222D01*
X77702504Y-58988792D01*
X77625552Y-59071902D01*
X77566292Y-59168429D01*
X77560179Y-59184956D01*
X77425250Y-59050027D01*
X76854751Y-59050027D01*
X76740000Y-59164778D01*
X76625249Y-59050027D01*
X76054750Y-59050027D01*
X75919821Y-59184956D01*
X75913708Y-59168429D01*
X75854448Y-59071902D01*
X75777496Y-58988792D01*
X75744999Y-58965222D01*
X75744999Y-58700027D01*
X75764999Y-58700027D01*
X75764999Y-58690000D01*
X76044723Y-58690000D01*
X76054750Y-58700027D01*
G37*
%TD.AperFunction*%
%TD*%
D15*
%TO.N,GND*%
X105490001Y-69285000D02*
X47990000Y-69285000D01*
X47990000Y-68746937D01*
X53555551Y-68746937D01*
X53620125Y-68956504D01*
X53849374Y-69051105D01*
X54092674Y-69099164D01*
X54340676Y-69098834D01*
X54583847Y-69050128D01*
X54809875Y-68956504D01*
X54874449Y-68746937D01*
X54215000Y-68087487D01*
X53555551Y-68746937D01*
X47990000Y-68746937D01*
X47990000Y-67717674D01*
X52955836Y-67717674D01*
X52956166Y-67965676D01*
X53004872Y-68208847D01*
X53098496Y-68434875D01*
X53308063Y-68499449D01*
X53967513Y-67840000D01*
X54462487Y-67840000D01*
X55121937Y-68499449D01*
X55254670Y-68458550D01*
X55254670Y-68524000D01*
X55259980Y-68577909D01*
X55275704Y-68629747D01*
X55301240Y-68677521D01*
X55335605Y-68719395D01*
X55377479Y-68753760D01*
X55425253Y-68779296D01*
X55477091Y-68795020D01*
X55531000Y-68800330D01*
X56899000Y-68800330D01*
X56952909Y-68795020D01*
X57004747Y-68779296D01*
X57052521Y-68753760D01*
X57094395Y-68719395D01*
X57128760Y-68677521D01*
X57154296Y-68629747D01*
X57170020Y-68577909D01*
X57175330Y-68524000D01*
X57175330Y-67156000D01*
X57170020Y-67102091D01*
X57154296Y-67050253D01*
X57128760Y-67002479D01*
X57094395Y-66960605D01*
X57052521Y-66926240D01*
X57004747Y-66900704D01*
X56952909Y-66884980D01*
X56899000Y-66879670D01*
X55531000Y-66879670D01*
X55477091Y-66884980D01*
X55425253Y-66900704D01*
X55377479Y-66926240D01*
X55335605Y-66960605D01*
X55301240Y-67002479D01*
X55275704Y-67050253D01*
X55259980Y-67102091D01*
X55254670Y-67156000D01*
X55254670Y-67221450D01*
X55121937Y-67180551D01*
X54462487Y-67840000D01*
X53967513Y-67840000D01*
X53308063Y-67180551D01*
X53098496Y-67245125D01*
X53003895Y-67474374D01*
X52955836Y-67717674D01*
X47990000Y-67717674D01*
X47990000Y-66933063D01*
X53555551Y-66933063D01*
X54215000Y-67592513D01*
X54874449Y-66933063D01*
X54835375Y-66806250D01*
X74311054Y-66806250D01*
X74454804Y-66950000D01*
X74965054Y-66950000D01*
X74965054Y-66930000D01*
X75230241Y-66930000D01*
X75253791Y-66962469D01*
X75336901Y-67039421D01*
X75433428Y-67098681D01*
X75539660Y-67137970D01*
X75621249Y-67154027D01*
X75764999Y-67010277D01*
X75764999Y-66950000D01*
X75825304Y-66950000D01*
X75961212Y-66814092D01*
X75987291Y-66870782D01*
X76053792Y-66962469D01*
X76136902Y-67039421D01*
X76155657Y-67050935D01*
X76258749Y-67154027D01*
X76339999Y-67138037D01*
X76421250Y-67154027D01*
X76524342Y-67050935D01*
X76543097Y-67039421D01*
X76626207Y-66962469D01*
X76692708Y-66870782D01*
X76740000Y-66767979D01*
X76787292Y-66870782D01*
X76853793Y-66962469D01*
X76936903Y-67039421D01*
X76955658Y-67050935D01*
X77058750Y-67154027D01*
X77140000Y-67138037D01*
X77221251Y-67154027D01*
X77324343Y-67050935D01*
X77343098Y-67039421D01*
X77426208Y-66962469D01*
X77492709Y-66870782D01*
X77518788Y-66814092D01*
X77654696Y-66950000D01*
X77715001Y-66950000D01*
X77715001Y-67010277D01*
X77858751Y-67154027D01*
X77940340Y-67137970D01*
X78046572Y-67098681D01*
X78143099Y-67039421D01*
X78226209Y-66962469D01*
X78249759Y-66930000D01*
X78514946Y-66930000D01*
X78514946Y-66950000D01*
X78976986Y-66950000D01*
X79032279Y-66972903D01*
X79143367Y-66995000D01*
X79256633Y-66995000D01*
X79367721Y-66972903D01*
X79472365Y-66929558D01*
X79566541Y-66866632D01*
X79646632Y-66786541D01*
X79709558Y-66692365D01*
X79752903Y-66587721D01*
X79775000Y-66476633D01*
X79775000Y-66363367D01*
X79752903Y-66252279D01*
X79709558Y-66147635D01*
X79704456Y-66140000D01*
X84009011Y-66140000D01*
X84255865Y-66386855D01*
X84251984Y-66406367D01*
X84251984Y-66519633D01*
X84274081Y-66630721D01*
X84317426Y-66735365D01*
X84380352Y-66829541D01*
X84460443Y-66909632D01*
X84554619Y-66972558D01*
X84659263Y-67015903D01*
X84770351Y-67038000D01*
X84883617Y-67038000D01*
X84994705Y-67015903D01*
X85099349Y-66972558D01*
X85193525Y-66909632D01*
X85242971Y-66860186D01*
X85260442Y-66902365D01*
X85323368Y-66996541D01*
X85403459Y-67076632D01*
X85497635Y-67139558D01*
X85602279Y-67182903D01*
X85713367Y-67205000D01*
X85826633Y-67205000D01*
X85937721Y-67182903D01*
X86042365Y-67139558D01*
X86136541Y-67076632D01*
X86216632Y-66996541D01*
X86279558Y-66902365D01*
X86322903Y-66797721D01*
X86337368Y-66725002D01*
X87761825Y-66725002D01*
X87783457Y-66746634D01*
X87877633Y-66809560D01*
X87982277Y-66852905D01*
X88093365Y-66875002D01*
X88206631Y-66875002D01*
X88317719Y-66852905D01*
X88422363Y-66809560D01*
X88516539Y-66746634D01*
X88596630Y-66666543D01*
X88659556Y-66572367D01*
X88702901Y-66467723D01*
X88724998Y-66356635D01*
X88724998Y-66243369D01*
X88702901Y-66132281D01*
X88672961Y-66060000D01*
X97440000Y-66060000D01*
X97440000Y-66141633D01*
X97462097Y-66252721D01*
X97505442Y-66357365D01*
X97568368Y-66451541D01*
X97648459Y-66531632D01*
X97742635Y-66594558D01*
X97779915Y-66610000D01*
X90047684Y-66610000D01*
X90036632Y-66593459D01*
X89956541Y-66513368D01*
X89862365Y-66450442D01*
X89757721Y-66407097D01*
X89646633Y-66385000D01*
X89533367Y-66385000D01*
X89422279Y-66407097D01*
X89317635Y-66450442D01*
X89223459Y-66513368D01*
X89143368Y-66593459D01*
X89080442Y-66687635D01*
X89037097Y-66792279D01*
X89015000Y-66903367D01*
X89015000Y-67016633D01*
X89018881Y-67036144D01*
X88617856Y-67437170D01*
X88612905Y-67412281D01*
X88569560Y-67307637D01*
X88506634Y-67213461D01*
X88426543Y-67133370D01*
X88332367Y-67070444D01*
X88227723Y-67027099D01*
X88116635Y-67005002D01*
X88003369Y-67005002D01*
X87892281Y-67027099D01*
X87787637Y-67070444D01*
X87693461Y-67133370D01*
X87613370Y-67213461D01*
X87550444Y-67307637D01*
X87507099Y-67412281D01*
X87485002Y-67523369D01*
X87485002Y-67636635D01*
X87488883Y-67656147D01*
X87041057Y-68103974D01*
X79708483Y-68103974D01*
X79709558Y-68102365D01*
X79752903Y-67997721D01*
X79775000Y-67886633D01*
X79775000Y-67773367D01*
X79752903Y-67662279D01*
X79709558Y-67557635D01*
X79646632Y-67463459D01*
X79566541Y-67383368D01*
X79472365Y-67320442D01*
X79367721Y-67277097D01*
X79256633Y-67255000D01*
X79143367Y-67255000D01*
X79032279Y-67277097D01*
X78976986Y-67300000D01*
X78514946Y-67300000D01*
X78514946Y-67320000D01*
X78164946Y-67320000D01*
X78164946Y-67300000D01*
X77654696Y-67300000D01*
X77560053Y-67394643D01*
X77286001Y-67394643D01*
X77232092Y-67399953D01*
X77180254Y-67415677D01*
X77140000Y-67437193D01*
X77099747Y-67415677D01*
X77047909Y-67399953D01*
X76994000Y-67394643D01*
X76486000Y-67394643D01*
X76432091Y-67399953D01*
X76380253Y-67415677D01*
X76339999Y-67437193D01*
X76299746Y-67415677D01*
X76247908Y-67399953D01*
X76193999Y-67394643D01*
X75919947Y-67394643D01*
X75825304Y-67300000D01*
X75315054Y-67300000D01*
X75315054Y-67320000D01*
X74965054Y-67320000D01*
X74965054Y-67300000D01*
X74454804Y-67300000D01*
X74311054Y-67443750D01*
X74327111Y-67525339D01*
X74366400Y-67631571D01*
X74425660Y-67728098D01*
X74502612Y-67811208D01*
X74594299Y-67877709D01*
X74609671Y-67884780D01*
X74609671Y-68178973D01*
X74614981Y-68232882D01*
X74630705Y-68284720D01*
X74656241Y-68332494D01*
X74690606Y-68374368D01*
X74732480Y-68408733D01*
X74780254Y-68434269D01*
X74832092Y-68449993D01*
X74886001Y-68455303D01*
X75394001Y-68455303D01*
X75447910Y-68449993D01*
X75499748Y-68434269D01*
X75540000Y-68412754D01*
X75580252Y-68434269D01*
X75632090Y-68449993D01*
X75685999Y-68455303D01*
X76193999Y-68455303D01*
X76247908Y-68449993D01*
X76299746Y-68434269D01*
X76340000Y-68412753D01*
X76380253Y-68434269D01*
X76432091Y-68449993D01*
X76486000Y-68455303D01*
X76670330Y-68455303D01*
X77254339Y-69039314D01*
X77265299Y-69052669D01*
X77308233Y-69087903D01*
X77318594Y-69096406D01*
X77379397Y-69128906D01*
X77445372Y-69148919D01*
X77513984Y-69155677D01*
X77531173Y-69153984D01*
X87728828Y-69153984D01*
X87746016Y-69155677D01*
X87763204Y-69153984D01*
X87763205Y-69153984D01*
X87814628Y-69148919D01*
X87880603Y-69128906D01*
X87941406Y-69096406D01*
X87994701Y-69052669D01*
X88005669Y-69039304D01*
X89513856Y-67531119D01*
X89533367Y-67535000D01*
X89595000Y-67535000D01*
X89595000Y-67636635D01*
X89617097Y-67747723D01*
X89660442Y-67852367D01*
X89723368Y-67946543D01*
X89803459Y-68026634D01*
X89897635Y-68089560D01*
X90002279Y-68132905D01*
X90113367Y-68155002D01*
X90226633Y-68155002D01*
X90337721Y-68132905D01*
X90442365Y-68089560D01*
X90536541Y-68026634D01*
X90616632Y-67946543D01*
X90627684Y-67930002D01*
X90949462Y-67930002D01*
X90907097Y-68032279D01*
X90885000Y-68143367D01*
X90885000Y-68256633D01*
X90907097Y-68367721D01*
X90950442Y-68472365D01*
X91013368Y-68566541D01*
X91093459Y-68646632D01*
X91187635Y-68709558D01*
X91292279Y-68752903D01*
X91403367Y-68775000D01*
X91516633Y-68775000D01*
X91627721Y-68752903D01*
X91732365Y-68709558D01*
X91826541Y-68646632D01*
X91906632Y-68566541D01*
X91917684Y-68550000D01*
X96941664Y-68550000D01*
X96962097Y-68652721D01*
X97005442Y-68757365D01*
X97068368Y-68851541D01*
X97148459Y-68931632D01*
X97242635Y-68994558D01*
X97347279Y-69037903D01*
X97458367Y-69060000D01*
X97571633Y-69060000D01*
X97682721Y-69037903D01*
X97787365Y-68994558D01*
X97881541Y-68931632D01*
X97961632Y-68851541D01*
X98024558Y-68757365D01*
X98067903Y-68652721D01*
X98090000Y-68541633D01*
X98090000Y-68428367D01*
X98067903Y-68317279D01*
X98024558Y-68212635D01*
X97961632Y-68118459D01*
X97881541Y-68038368D01*
X97787365Y-67975442D01*
X97682721Y-67932097D01*
X97672189Y-67930002D01*
X98415029Y-67930002D01*
X98943881Y-68458855D01*
X98940000Y-68478367D01*
X98940000Y-68591633D01*
X98962097Y-68702721D01*
X99005442Y-68807365D01*
X99068368Y-68901541D01*
X99148459Y-68981632D01*
X99242635Y-69044558D01*
X99347279Y-69087903D01*
X99458367Y-69110000D01*
X99571633Y-69110000D01*
X99682721Y-69087903D01*
X99787365Y-69044558D01*
X99881541Y-68981632D01*
X99961632Y-68901541D01*
X100024558Y-68807365D01*
X100067903Y-68702721D01*
X100090000Y-68591633D01*
X100090000Y-68478367D01*
X100067903Y-68367279D01*
X100024558Y-68262635D01*
X99961632Y-68168459D01*
X99881541Y-68088368D01*
X99787365Y-68025442D01*
X99682721Y-67982097D01*
X99571633Y-67960000D01*
X99458367Y-67960000D01*
X99438855Y-67963881D01*
X98819655Y-67344682D01*
X98808687Y-67331317D01*
X98755392Y-67287580D01*
X98694589Y-67255080D01*
X98628614Y-67235067D01*
X98577191Y-67230002D01*
X98577190Y-67230002D01*
X98560002Y-67228309D01*
X98542814Y-67230002D01*
X98362710Y-67230002D01*
X98388685Y-67208685D01*
X98399653Y-67195320D01*
X98938855Y-66656119D01*
X98958367Y-66660000D01*
X99071633Y-66660000D01*
X99182721Y-66637903D01*
X99287365Y-66594558D01*
X99381541Y-66531632D01*
X99461632Y-66451541D01*
X99524558Y-66357365D01*
X99567903Y-66252721D01*
X99590000Y-66141633D01*
X99590000Y-66028367D01*
X99567903Y-65917279D01*
X99524558Y-65812635D01*
X99461632Y-65718459D01*
X99381541Y-65638368D01*
X99287365Y-65575442D01*
X99182721Y-65532097D01*
X99071633Y-65510000D01*
X98958367Y-65510000D01*
X98847279Y-65532097D01*
X98742635Y-65575442D01*
X98648459Y-65638368D01*
X98568368Y-65718459D01*
X98515000Y-65798330D01*
X98461632Y-65718459D01*
X98381541Y-65638368D01*
X98287365Y-65575442D01*
X98182721Y-65532097D01*
X98071633Y-65510000D01*
X97958367Y-65510000D01*
X97938854Y-65513881D01*
X97899653Y-65474680D01*
X97888685Y-65461315D01*
X97835390Y-65417578D01*
X97774587Y-65385078D01*
X97708612Y-65365065D01*
X97657189Y-65360000D01*
X97657188Y-65360000D01*
X97640000Y-65358307D01*
X97622812Y-65360000D01*
X85597173Y-65360000D01*
X85579984Y-65358307D01*
X85511372Y-65365065D01*
X85445396Y-65385078D01*
X85384594Y-65417578D01*
X85331299Y-65461315D01*
X85320335Y-65474675D01*
X84903129Y-65891881D01*
X84883617Y-65888000D01*
X84770351Y-65888000D01*
X84750839Y-65891881D01*
X84413637Y-65554680D01*
X84402669Y-65541315D01*
X84349374Y-65497578D01*
X84288571Y-65465078D01*
X84222596Y-65445065D01*
X84171173Y-65440000D01*
X84171172Y-65440000D01*
X84153984Y-65438307D01*
X84136796Y-65440000D01*
X75587185Y-65440000D01*
X75569999Y-65438307D01*
X75552813Y-65440000D01*
X75552811Y-65440000D01*
X75501388Y-65445065D01*
X75435413Y-65465078D01*
X75374610Y-65497578D01*
X75321315Y-65541315D01*
X75310355Y-65554670D01*
X75070329Y-65794697D01*
X74886001Y-65794697D01*
X74832092Y-65800007D01*
X74780254Y-65815731D01*
X74732480Y-65841267D01*
X74690606Y-65875632D01*
X74656241Y-65917506D01*
X74630705Y-65965280D01*
X74614981Y-66017118D01*
X74609671Y-66071027D01*
X74609671Y-66365220D01*
X74594299Y-66372291D01*
X74502612Y-66438792D01*
X74425660Y-66521902D01*
X74366400Y-66618429D01*
X74327111Y-66724661D01*
X74311054Y-66806250D01*
X54835375Y-66806250D01*
X54809875Y-66723496D01*
X54580626Y-66628895D01*
X54337326Y-66580836D01*
X54089324Y-66581166D01*
X53846153Y-66629872D01*
X53620125Y-66723496D01*
X53555551Y-66933063D01*
X47990000Y-66933063D01*
X47990000Y-65335000D01*
X105490000Y-65335000D01*
X105490001Y-69285000D01*
%TA.AperFunction,Conductor*%
D16*
G36*
X105490001Y-69285000D02*
G01*
X47990000Y-69285000D01*
X47990000Y-68746937D01*
X53555551Y-68746937D01*
X53620125Y-68956504D01*
X53849374Y-69051105D01*
X54092674Y-69099164D01*
X54340676Y-69098834D01*
X54583847Y-69050128D01*
X54809875Y-68956504D01*
X54874449Y-68746937D01*
X54215000Y-68087487D01*
X53555551Y-68746937D01*
X47990000Y-68746937D01*
X47990000Y-67717674D01*
X52955836Y-67717674D01*
X52956166Y-67965676D01*
X53004872Y-68208847D01*
X53098496Y-68434875D01*
X53308063Y-68499449D01*
X53967513Y-67840000D01*
X54462487Y-67840000D01*
X55121937Y-68499449D01*
X55254670Y-68458550D01*
X55254670Y-68524000D01*
X55259980Y-68577909D01*
X55275704Y-68629747D01*
X55301240Y-68677521D01*
X55335605Y-68719395D01*
X55377479Y-68753760D01*
X55425253Y-68779296D01*
X55477091Y-68795020D01*
X55531000Y-68800330D01*
X56899000Y-68800330D01*
X56952909Y-68795020D01*
X57004747Y-68779296D01*
X57052521Y-68753760D01*
X57094395Y-68719395D01*
X57128760Y-68677521D01*
X57154296Y-68629747D01*
X57170020Y-68577909D01*
X57175330Y-68524000D01*
X57175330Y-67156000D01*
X57170020Y-67102091D01*
X57154296Y-67050253D01*
X57128760Y-67002479D01*
X57094395Y-66960605D01*
X57052521Y-66926240D01*
X57004747Y-66900704D01*
X56952909Y-66884980D01*
X56899000Y-66879670D01*
X55531000Y-66879670D01*
X55477091Y-66884980D01*
X55425253Y-66900704D01*
X55377479Y-66926240D01*
X55335605Y-66960605D01*
X55301240Y-67002479D01*
X55275704Y-67050253D01*
X55259980Y-67102091D01*
X55254670Y-67156000D01*
X55254670Y-67221450D01*
X55121937Y-67180551D01*
X54462487Y-67840000D01*
X53967513Y-67840000D01*
X53308063Y-67180551D01*
X53098496Y-67245125D01*
X53003895Y-67474374D01*
X52955836Y-67717674D01*
X47990000Y-67717674D01*
X47990000Y-66933063D01*
X53555551Y-66933063D01*
X54215000Y-67592513D01*
X54874449Y-66933063D01*
X54835375Y-66806250D01*
X74311054Y-66806250D01*
X74454804Y-66950000D01*
X74965054Y-66950000D01*
X74965054Y-66930000D01*
X75230241Y-66930000D01*
X75253791Y-66962469D01*
X75336901Y-67039421D01*
X75433428Y-67098681D01*
X75539660Y-67137970D01*
X75621249Y-67154027D01*
X75764999Y-67010277D01*
X75764999Y-66950000D01*
X75825304Y-66950000D01*
X75961212Y-66814092D01*
X75987291Y-66870782D01*
X76053792Y-66962469D01*
X76136902Y-67039421D01*
X76155657Y-67050935D01*
X76258749Y-67154027D01*
X76339999Y-67138037D01*
X76421250Y-67154027D01*
X76524342Y-67050935D01*
X76543097Y-67039421D01*
X76626207Y-66962469D01*
X76692708Y-66870782D01*
X76740000Y-66767979D01*
X76787292Y-66870782D01*
X76853793Y-66962469D01*
X76936903Y-67039421D01*
X76955658Y-67050935D01*
X77058750Y-67154027D01*
X77140000Y-67138037D01*
X77221251Y-67154027D01*
X77324343Y-67050935D01*
X77343098Y-67039421D01*
X77426208Y-66962469D01*
X77492709Y-66870782D01*
X77518788Y-66814092D01*
X77654696Y-66950000D01*
X77715001Y-66950000D01*
X77715001Y-67010277D01*
X77858751Y-67154027D01*
X77940340Y-67137970D01*
X78046572Y-67098681D01*
X78143099Y-67039421D01*
X78226209Y-66962469D01*
X78249759Y-66930000D01*
X78514946Y-66930000D01*
X78514946Y-66950000D01*
X78976986Y-66950000D01*
X79032279Y-66972903D01*
X79143367Y-66995000D01*
X79256633Y-66995000D01*
X79367721Y-66972903D01*
X79472365Y-66929558D01*
X79566541Y-66866632D01*
X79646632Y-66786541D01*
X79709558Y-66692365D01*
X79752903Y-66587721D01*
X79775000Y-66476633D01*
X79775000Y-66363367D01*
X79752903Y-66252279D01*
X79709558Y-66147635D01*
X79704456Y-66140000D01*
X84009011Y-66140000D01*
X84255865Y-66386855D01*
X84251984Y-66406367D01*
X84251984Y-66519633D01*
X84274081Y-66630721D01*
X84317426Y-66735365D01*
X84380352Y-66829541D01*
X84460443Y-66909632D01*
X84554619Y-66972558D01*
X84659263Y-67015903D01*
X84770351Y-67038000D01*
X84883617Y-67038000D01*
X84994705Y-67015903D01*
X85099349Y-66972558D01*
X85193525Y-66909632D01*
X85242971Y-66860186D01*
X85260442Y-66902365D01*
X85323368Y-66996541D01*
X85403459Y-67076632D01*
X85497635Y-67139558D01*
X85602279Y-67182903D01*
X85713367Y-67205000D01*
X85826633Y-67205000D01*
X85937721Y-67182903D01*
X86042365Y-67139558D01*
X86136541Y-67076632D01*
X86216632Y-66996541D01*
X86279558Y-66902365D01*
X86322903Y-66797721D01*
X86337368Y-66725002D01*
X87761825Y-66725002D01*
X87783457Y-66746634D01*
X87877633Y-66809560D01*
X87982277Y-66852905D01*
X88093365Y-66875002D01*
X88206631Y-66875002D01*
X88317719Y-66852905D01*
X88422363Y-66809560D01*
X88516539Y-66746634D01*
X88596630Y-66666543D01*
X88659556Y-66572367D01*
X88702901Y-66467723D01*
X88724998Y-66356635D01*
X88724998Y-66243369D01*
X88702901Y-66132281D01*
X88672961Y-66060000D01*
X97440000Y-66060000D01*
X97440000Y-66141633D01*
X97462097Y-66252721D01*
X97505442Y-66357365D01*
X97568368Y-66451541D01*
X97648459Y-66531632D01*
X97742635Y-66594558D01*
X97779915Y-66610000D01*
X90047684Y-66610000D01*
X90036632Y-66593459D01*
X89956541Y-66513368D01*
X89862365Y-66450442D01*
X89757721Y-66407097D01*
X89646633Y-66385000D01*
X89533367Y-66385000D01*
X89422279Y-66407097D01*
X89317635Y-66450442D01*
X89223459Y-66513368D01*
X89143368Y-66593459D01*
X89080442Y-66687635D01*
X89037097Y-66792279D01*
X89015000Y-66903367D01*
X89015000Y-67016633D01*
X89018881Y-67036144D01*
X88617856Y-67437170D01*
X88612905Y-67412281D01*
X88569560Y-67307637D01*
X88506634Y-67213461D01*
X88426543Y-67133370D01*
X88332367Y-67070444D01*
X88227723Y-67027099D01*
X88116635Y-67005002D01*
X88003369Y-67005002D01*
X87892281Y-67027099D01*
X87787637Y-67070444D01*
X87693461Y-67133370D01*
X87613370Y-67213461D01*
X87550444Y-67307637D01*
X87507099Y-67412281D01*
X87485002Y-67523369D01*
X87485002Y-67636635D01*
X87488883Y-67656147D01*
X87041057Y-68103974D01*
X79708483Y-68103974D01*
X79709558Y-68102365D01*
X79752903Y-67997721D01*
X79775000Y-67886633D01*
X79775000Y-67773367D01*
X79752903Y-67662279D01*
X79709558Y-67557635D01*
X79646632Y-67463459D01*
X79566541Y-67383368D01*
X79472365Y-67320442D01*
X79367721Y-67277097D01*
X79256633Y-67255000D01*
X79143367Y-67255000D01*
X79032279Y-67277097D01*
X78976986Y-67300000D01*
X78514946Y-67300000D01*
X78514946Y-67320000D01*
X78164946Y-67320000D01*
X78164946Y-67300000D01*
X77654696Y-67300000D01*
X77560053Y-67394643D01*
X77286001Y-67394643D01*
X77232092Y-67399953D01*
X77180254Y-67415677D01*
X77140000Y-67437193D01*
X77099747Y-67415677D01*
X77047909Y-67399953D01*
X76994000Y-67394643D01*
X76486000Y-67394643D01*
X76432091Y-67399953D01*
X76380253Y-67415677D01*
X76339999Y-67437193D01*
X76299746Y-67415677D01*
X76247908Y-67399953D01*
X76193999Y-67394643D01*
X75919947Y-67394643D01*
X75825304Y-67300000D01*
X75315054Y-67300000D01*
X75315054Y-67320000D01*
X74965054Y-67320000D01*
X74965054Y-67300000D01*
X74454804Y-67300000D01*
X74311054Y-67443750D01*
X74327111Y-67525339D01*
X74366400Y-67631571D01*
X74425660Y-67728098D01*
X74502612Y-67811208D01*
X74594299Y-67877709D01*
X74609671Y-67884780D01*
X74609671Y-68178973D01*
X74614981Y-68232882D01*
X74630705Y-68284720D01*
X74656241Y-68332494D01*
X74690606Y-68374368D01*
X74732480Y-68408733D01*
X74780254Y-68434269D01*
X74832092Y-68449993D01*
X74886001Y-68455303D01*
X75394001Y-68455303D01*
X75447910Y-68449993D01*
X75499748Y-68434269D01*
X75540000Y-68412754D01*
X75580252Y-68434269D01*
X75632090Y-68449993D01*
X75685999Y-68455303D01*
X76193999Y-68455303D01*
X76247908Y-68449993D01*
X76299746Y-68434269D01*
X76340000Y-68412753D01*
X76380253Y-68434269D01*
X76432091Y-68449993D01*
X76486000Y-68455303D01*
X76670330Y-68455303D01*
X77254339Y-69039314D01*
X77265299Y-69052669D01*
X77308233Y-69087903D01*
X77318594Y-69096406D01*
X77379397Y-69128906D01*
X77445372Y-69148919D01*
X77513984Y-69155677D01*
X77531173Y-69153984D01*
X87728828Y-69153984D01*
X87746016Y-69155677D01*
X87763204Y-69153984D01*
X87763205Y-69153984D01*
X87814628Y-69148919D01*
X87880603Y-69128906D01*
X87941406Y-69096406D01*
X87994701Y-69052669D01*
X88005669Y-69039304D01*
X89513856Y-67531119D01*
X89533367Y-67535000D01*
X89595000Y-67535000D01*
X89595000Y-67636635D01*
X89617097Y-67747723D01*
X89660442Y-67852367D01*
X89723368Y-67946543D01*
X89803459Y-68026634D01*
X89897635Y-68089560D01*
X90002279Y-68132905D01*
X90113367Y-68155002D01*
X90226633Y-68155002D01*
X90337721Y-68132905D01*
X90442365Y-68089560D01*
X90536541Y-68026634D01*
X90616632Y-67946543D01*
X90627684Y-67930002D01*
X90949462Y-67930002D01*
X90907097Y-68032279D01*
X90885000Y-68143367D01*
X90885000Y-68256633D01*
X90907097Y-68367721D01*
X90950442Y-68472365D01*
X91013368Y-68566541D01*
X91093459Y-68646632D01*
X91187635Y-68709558D01*
X91292279Y-68752903D01*
X91403367Y-68775000D01*
X91516633Y-68775000D01*
X91627721Y-68752903D01*
X91732365Y-68709558D01*
X91826541Y-68646632D01*
X91906632Y-68566541D01*
X91917684Y-68550000D01*
X96941664Y-68550000D01*
X96962097Y-68652721D01*
X97005442Y-68757365D01*
X97068368Y-68851541D01*
X97148459Y-68931632D01*
X97242635Y-68994558D01*
X97347279Y-69037903D01*
X97458367Y-69060000D01*
X97571633Y-69060000D01*
X97682721Y-69037903D01*
X97787365Y-68994558D01*
X97881541Y-68931632D01*
X97961632Y-68851541D01*
X98024558Y-68757365D01*
X98067903Y-68652721D01*
X98090000Y-68541633D01*
X98090000Y-68428367D01*
X98067903Y-68317279D01*
X98024558Y-68212635D01*
X97961632Y-68118459D01*
X97881541Y-68038368D01*
X97787365Y-67975442D01*
X97682721Y-67932097D01*
X97672189Y-67930002D01*
X98415029Y-67930002D01*
X98943881Y-68458855D01*
X98940000Y-68478367D01*
X98940000Y-68591633D01*
X98962097Y-68702721D01*
X99005442Y-68807365D01*
X99068368Y-68901541D01*
X99148459Y-68981632D01*
X99242635Y-69044558D01*
X99347279Y-69087903D01*
X99458367Y-69110000D01*
X99571633Y-69110000D01*
X99682721Y-69087903D01*
X99787365Y-69044558D01*
X99881541Y-68981632D01*
X99961632Y-68901541D01*
X100024558Y-68807365D01*
X100067903Y-68702721D01*
X100090000Y-68591633D01*
X100090000Y-68478367D01*
X100067903Y-68367279D01*
X100024558Y-68262635D01*
X99961632Y-68168459D01*
X99881541Y-68088368D01*
X99787365Y-68025442D01*
X99682721Y-67982097D01*
X99571633Y-67960000D01*
X99458367Y-67960000D01*
X99438855Y-67963881D01*
X98819655Y-67344682D01*
X98808687Y-67331317D01*
X98755392Y-67287580D01*
X98694589Y-67255080D01*
X98628614Y-67235067D01*
X98577191Y-67230002D01*
X98577190Y-67230002D01*
X98560002Y-67228309D01*
X98542814Y-67230002D01*
X98362710Y-67230002D01*
X98388685Y-67208685D01*
X98399653Y-67195320D01*
X98938855Y-66656119D01*
X98958367Y-66660000D01*
X99071633Y-66660000D01*
X99182721Y-66637903D01*
X99287365Y-66594558D01*
X99381541Y-66531632D01*
X99461632Y-66451541D01*
X99524558Y-66357365D01*
X99567903Y-66252721D01*
X99590000Y-66141633D01*
X99590000Y-66028367D01*
X99567903Y-65917279D01*
X99524558Y-65812635D01*
X99461632Y-65718459D01*
X99381541Y-65638368D01*
X99287365Y-65575442D01*
X99182721Y-65532097D01*
X99071633Y-65510000D01*
X98958367Y-65510000D01*
X98847279Y-65532097D01*
X98742635Y-65575442D01*
X98648459Y-65638368D01*
X98568368Y-65718459D01*
X98515000Y-65798330D01*
X98461632Y-65718459D01*
X98381541Y-65638368D01*
X98287365Y-65575442D01*
X98182721Y-65532097D01*
X98071633Y-65510000D01*
X97958367Y-65510000D01*
X97938854Y-65513881D01*
X97899653Y-65474680D01*
X97888685Y-65461315D01*
X97835390Y-65417578D01*
X97774587Y-65385078D01*
X97708612Y-65365065D01*
X97657189Y-65360000D01*
X97657188Y-65360000D01*
X97640000Y-65358307D01*
X97622812Y-65360000D01*
X85597173Y-65360000D01*
X85579984Y-65358307D01*
X85511372Y-65365065D01*
X85445396Y-65385078D01*
X85384594Y-65417578D01*
X85331299Y-65461315D01*
X85320335Y-65474675D01*
X84903129Y-65891881D01*
X84883617Y-65888000D01*
X84770351Y-65888000D01*
X84750839Y-65891881D01*
X84413637Y-65554680D01*
X84402669Y-65541315D01*
X84349374Y-65497578D01*
X84288571Y-65465078D01*
X84222596Y-65445065D01*
X84171173Y-65440000D01*
X84171172Y-65440000D01*
X84153984Y-65438307D01*
X84136796Y-65440000D01*
X75587185Y-65440000D01*
X75569999Y-65438307D01*
X75552813Y-65440000D01*
X75552811Y-65440000D01*
X75501388Y-65445065D01*
X75435413Y-65465078D01*
X75374610Y-65497578D01*
X75321315Y-65541315D01*
X75310355Y-65554670D01*
X75070329Y-65794697D01*
X74886001Y-65794697D01*
X74832092Y-65800007D01*
X74780254Y-65815731D01*
X74732480Y-65841267D01*
X74690606Y-65875632D01*
X74656241Y-65917506D01*
X74630705Y-65965280D01*
X74614981Y-66017118D01*
X74609671Y-66071027D01*
X74609671Y-66365220D01*
X74594299Y-66372291D01*
X74502612Y-66438792D01*
X74425660Y-66521902D01*
X74366400Y-66618429D01*
X74327111Y-66724661D01*
X74311054Y-66806250D01*
X54835375Y-66806250D01*
X54809875Y-66723496D01*
X54580626Y-66628895D01*
X54337326Y-66580836D01*
X54089324Y-66581166D01*
X53846153Y-66629872D01*
X53620125Y-66723496D01*
X53555551Y-66933063D01*
X47990000Y-66933063D01*
X47990000Y-65335000D01*
X105490000Y-65335000D01*
X105490001Y-69285000D01*
G37*
%TD.AperFunction*%
D15*
X76054750Y-66150027D02*
X76625249Y-66150027D01*
X76635276Y-66140000D01*
X76844724Y-66140000D01*
X76854751Y-66150027D01*
X77425250Y-66150027D01*
X77435277Y-66140000D01*
X77715001Y-66140000D01*
X77715001Y-66150027D01*
X77735001Y-66150027D01*
X77735001Y-66415222D01*
X77702504Y-66438792D01*
X77625552Y-66521902D01*
X77566292Y-66618429D01*
X77560179Y-66634956D01*
X77425250Y-66500027D01*
X76854751Y-66500027D01*
X76740000Y-66614778D01*
X76625249Y-66500027D01*
X76054750Y-66500027D01*
X75919821Y-66634956D01*
X75913708Y-66618429D01*
X75854448Y-66521902D01*
X75777496Y-66438792D01*
X75744999Y-66415222D01*
X75744999Y-66150027D01*
X75764999Y-66150027D01*
X75764999Y-66140000D01*
X76044723Y-66140000D01*
X76054750Y-66150027D01*
%TA.AperFunction,Conductor*%
D16*
G36*
X76054750Y-66150027D02*
G01*
X76625249Y-66150027D01*
X76635276Y-66140000D01*
X76844724Y-66140000D01*
X76854751Y-66150027D01*
X77425250Y-66150027D01*
X77435277Y-66140000D01*
X77715001Y-66140000D01*
X77715001Y-66150027D01*
X77735001Y-66150027D01*
X77735001Y-66415222D01*
X77702504Y-66438792D01*
X77625552Y-66521902D01*
X77566292Y-66618429D01*
X77560179Y-66634956D01*
X77425250Y-66500027D01*
X76854751Y-66500027D01*
X76740000Y-66614778D01*
X76625249Y-66500027D01*
X76054750Y-66500027D01*
X75919821Y-66634956D01*
X75913708Y-66618429D01*
X75854448Y-66521902D01*
X75777496Y-66438792D01*
X75744999Y-66415222D01*
X75744999Y-66150027D01*
X75764999Y-66150027D01*
X75764999Y-66140000D01*
X76044723Y-66140000D01*
X76054750Y-66150027D01*
G37*
%TD.AperFunction*%
%TD*%
M02*
