M48
; DRILL file {KiCad (5.1.9)-1} date 02/15/22 00:45:05
; FORMAT={-:-/ absolute / metric / decimal}
; #@! TF.CreationDate,2022-02-15T00:45:05-06:00
; #@! TF.GenerationSoftware,Kicad,Pcbnew,(5.1.9)-1
; #@! TF.FileFunction,NonPlated,1,2,NPTH
FMAT,2
METRIC
T1C0.500
T2C2.000
%
G90
G05
T1
X41.46Y-28.505
X41.49Y-69.035
X42.52Y-28.505
X42.55Y-69.035
X43.304Y-28.505
X43.334Y-69.035
X44.088Y-28.505
X44.118Y-69.035
X44.872Y-28.505
X44.902Y-69.035
X45.656Y-28.505
X45.686Y-69.035
X46.44Y-28.505
X46.47Y-69.035
X47.4Y-21.585
X47.4Y-22.665
X47.4Y-23.445
X47.4Y-24.225
X47.4Y-73.305
X47.4Y-74.085
X47.4Y-74.865
X47.4Y-75.945
X47.51Y-28.495
X47.51Y-29.273
X47.51Y-30.051
X47.51Y-30.829
X47.51Y-31.607
X47.51Y-35.945
X47.51Y-36.723
X47.51Y-37.501
X47.51Y-38.279
X47.51Y-39.057
X47.51Y-43.395
X47.51Y-44.173
X47.51Y-44.951
X47.51Y-45.729
X47.51Y-46.507
X47.51Y-50.845
X47.51Y-51.623
X47.51Y-52.401
X47.51Y-53.179
X47.51Y-53.957
X47.51Y-58.295
X47.51Y-59.073
X47.51Y-59.851
X47.51Y-60.629
X47.51Y-61.407
X47.51Y-65.745
X47.51Y-66.523
X47.51Y-67.301
X47.51Y-68.079
X47.51Y-68.857
X105.8Y-21.545
X105.8Y-22.625
X105.8Y-23.405
X105.8Y-24.185
X105.8Y-73.265
X105.8Y-74.045
X105.8Y-74.825
X105.8Y-75.905
X105.98Y-28.543
X105.98Y-29.321
X105.98Y-30.099
X105.98Y-30.877
X105.98Y-31.655
X105.98Y-35.993
X105.98Y-36.771
X105.98Y-37.549
X105.98Y-38.327
X105.98Y-39.105
X105.98Y-43.443
X105.98Y-44.221
X105.98Y-44.999
X105.98Y-45.777
X105.98Y-46.555
X105.98Y-50.893
X105.98Y-51.671
X105.98Y-52.449
X105.98Y-53.227
X105.98Y-54.005
X105.98Y-58.343
X105.98Y-59.121
X105.98Y-59.899
X105.98Y-60.677
X105.98Y-61.455
X105.98Y-65.793
X105.98Y-66.571
X105.98Y-67.349
X105.98Y-68.127
X105.98Y-68.905
X107.07Y-28.545
X107.07Y-69.055
X107.854Y-28.545
X107.854Y-69.055
X108.638Y-28.545
X108.638Y-69.055
X109.422Y-28.545
X109.422Y-69.055
X110.206Y-28.545
X110.206Y-69.055
X110.99Y-28.545
X110.99Y-69.055
X112.05Y-28.545
X112.05Y-69.055
T2
X43.74Y-73.61
X109.74Y-23.785
T0
M30
