M48
; DRILL file {KiCad (5.1.9)-1} date 02/15/22 00:45:05
; FORMAT={-:-/ absolute / metric / decimal}
; #@! TF.CreationDate,2022-02-15T00:45:05-06:00
; #@! TF.GenerationSoftware,Kicad,Pcbnew,(5.1.9)-1
; #@! TF.FileFunction,Plated,1,2,PTH
FMAT,2
METRIC
T1C0.300
T2C0.860
%
G90
G05
T1
X48.883Y-28.675
X48.883Y-31.325
X48.883Y-36.125
X48.883Y-38.775
X48.883Y-43.575
X48.883Y-46.225
X48.883Y-51.025
X48.883Y-53.675
X48.883Y-58.475
X48.883Y-61.125
X48.883Y-65.925
X48.883Y-68.575
X58.91Y-30.015
X58.91Y-37.465
X58.91Y-44.915
X58.91Y-52.365
X58.91Y-59.815
X58.91Y-67.265
X65.18Y-30.005
X65.18Y-37.455
X65.18Y-44.905
X65.18Y-52.355
X65.18Y-59.805
X65.18Y-67.255
X71.45Y-30.005
X71.45Y-37.455
X71.45Y-44.905
X71.45Y-52.355
X71.45Y-59.805
X71.45Y-67.255
X73.15Y-28.675
X73.15Y-31.045
X73.15Y-36.125
X73.15Y-38.495
X73.15Y-43.575
X73.15Y-45.945
X73.15Y-51.025
X73.15Y-53.395
X73.15Y-58.475
X73.15Y-60.845
X73.15Y-65.925
X73.15Y-68.295
X79.2Y-29.17
X79.2Y-30.58
X79.2Y-36.62
X79.2Y-38.03
X79.2Y-44.07
X79.2Y-45.48
X79.2Y-51.52
X79.2Y-52.93
X79.2Y-58.97
X79.2Y-60.38
X79.2Y-66.42
X79.2Y-67.83
X80.805Y-30.215
X80.805Y-37.665
X80.805Y-45.115
X80.805Y-52.565
X80.805Y-60.015
X80.805Y-67.465
X84.827Y-29.213
X84.827Y-36.663
X84.827Y-44.113
X84.827Y-51.563
X84.827Y-59.013
X84.827Y-66.463
X85.77Y-29.38
X85.77Y-36.83
X85.77Y-44.28
X85.77Y-51.73
X85.77Y-59.18
X85.77Y-66.63
X88.06Y-30.33
X88.06Y-37.78
X88.06Y-45.23
X88.06Y-52.68
X88.06Y-60.13
X88.06Y-67.58
X88.15Y-29.05
X88.15Y-36.5
X88.15Y-43.95
X88.15Y-51.4
X88.15Y-58.85
X88.15Y-66.3
X89.59Y-29.71
X89.59Y-37.16
X89.59Y-44.61
X89.59Y-52.06
X89.59Y-59.51
X89.59Y-66.96
X90.17Y-30.33
X90.17Y-37.78
X90.17Y-45.23
X90.17Y-52.68
X90.17Y-60.13
X90.17Y-67.58
X91.46Y-30.95
X91.46Y-38.4
X91.46Y-45.85
X91.46Y-53.3
X91.46Y-60.75
X91.46Y-68.2
X96.18Y-29.06
X96.18Y-36.51
X96.18Y-43.96
X96.18Y-51.41
X96.18Y-58.86
X96.18Y-66.31
X97.515Y-31.235
X97.515Y-38.685
X97.515Y-46.135
X97.515Y-53.585
X97.515Y-61.035
X97.515Y-68.485
X98.015Y-28.835
X98.015Y-36.285
X98.015Y-43.735
X98.015Y-51.185
X98.015Y-58.635
X98.015Y-66.085
X98.515Y-31.285
X98.515Y-38.735
X98.515Y-46.185
X98.515Y-53.635
X98.515Y-61.085
X98.515Y-68.535
X99.015Y-28.835
X99.015Y-36.285
X99.015Y-43.735
X99.015Y-51.185
X99.015Y-58.635
X99.015Y-66.085
X99.515Y-31.285
X99.515Y-38.735
X99.515Y-46.185
X99.515Y-53.635
X99.515Y-61.085
X99.515Y-68.535
X100.015Y-28.835
X100.015Y-36.285
X100.015Y-43.735
X100.015Y-51.185
X100.015Y-58.635
X100.015Y-66.085
X104.83Y-28.675
X104.83Y-31.325
X104.83Y-36.125
X104.83Y-38.775
X104.83Y-43.575
X104.83Y-46.225
X104.83Y-51.025
X104.83Y-53.675
X104.83Y-58.475
X104.83Y-61.125
X104.83Y-65.925
X104.83Y-68.575
T2
X54.215Y-30.59
X54.215Y-38.04
X54.215Y-45.49
X54.215Y-52.94
X54.215Y-60.39
X54.215Y-67.84
X56.215Y-30.59
X56.215Y-38.04
X56.215Y-45.49
X56.215Y-52.94
X56.215Y-60.39
X56.215Y-67.84
T0
M30
