%TF.GenerationSoftware,KiCad,Pcbnew,(5.1.9)-1*%
%TF.CreationDate,2022-02-15T00:45:03-06:00*%
%TF.ProjectId,CC_TOF_PANELIZED,43435f54-4f46-45f5-9041-4e454c495a45,000*%
%TF.SameCoordinates,Original*%
%TF.FileFunction,Legend,Bot*%
%TF.FilePolarity,Positive*%
%FSLAX46Y46*%
G04 Gerber Fmt 4.6, Leading zero omitted, Abs format (unit mm)*
G04 Created by KiCad (PCBNEW (5.1.9)-1) date 2022-02-15 00:45:03*
%MOMM*%
%LPD*%
G01*
G04 APERTURE LIST*
%ADD10C,0.120000*%
%ADD11C,0.152400*%
%ADD12C,0.150000*%
G04 APERTURE END LIST*
D10*
%TO.C,U2*%
X80143223Y-66279180D02*
G75*
G03*
X80143223Y-66279180I-136783J0D01*
G01*
X80059477Y-66279180D02*
G75*
G03*
X80059477Y-66279180I-53037J0D01*
G01*
D11*
X73882500Y-68776000D02*
X73882500Y-65474000D01*
X73882500Y-65474000D02*
X79597500Y-65474000D01*
X79597500Y-65474000D02*
X79597500Y-68776000D01*
X79597500Y-68776000D02*
X73882500Y-68776000D01*
D10*
X80143223Y-58829180D02*
G75*
G03*
X80143223Y-58829180I-136783J0D01*
G01*
X80059477Y-58829180D02*
G75*
G03*
X80059477Y-58829180I-53037J0D01*
G01*
D11*
X73882500Y-61326000D02*
X73882500Y-58024000D01*
X73882500Y-58024000D02*
X79597500Y-58024000D01*
X79597500Y-58024000D02*
X79597500Y-61326000D01*
X79597500Y-61326000D02*
X73882500Y-61326000D01*
D10*
X80143223Y-51379180D02*
G75*
G03*
X80143223Y-51379180I-136783J0D01*
G01*
X80059477Y-51379180D02*
G75*
G03*
X80059477Y-51379180I-53037J0D01*
G01*
D11*
X73882500Y-53876000D02*
X73882500Y-50574000D01*
X73882500Y-50574000D02*
X79597500Y-50574000D01*
X79597500Y-50574000D02*
X79597500Y-53876000D01*
X79597500Y-53876000D02*
X73882500Y-53876000D01*
D10*
X80143223Y-43929180D02*
G75*
G03*
X80143223Y-43929180I-136783J0D01*
G01*
X80059477Y-43929180D02*
G75*
G03*
X80059477Y-43929180I-53037J0D01*
G01*
D11*
X73882500Y-46426000D02*
X73882500Y-43124000D01*
X73882500Y-43124000D02*
X79597500Y-43124000D01*
X79597500Y-43124000D02*
X79597500Y-46426000D01*
X79597500Y-46426000D02*
X73882500Y-46426000D01*
D10*
X80143223Y-36479180D02*
G75*
G03*
X80143223Y-36479180I-136783J0D01*
G01*
X80059477Y-36479180D02*
G75*
G03*
X80059477Y-36479180I-53037J0D01*
G01*
D11*
X73882500Y-38976000D02*
X73882500Y-35674000D01*
X73882500Y-35674000D02*
X79597500Y-35674000D01*
X79597500Y-35674000D02*
X79597500Y-38976000D01*
X79597500Y-38976000D02*
X73882500Y-38976000D01*
X79597500Y-31526000D02*
X73882500Y-31526000D01*
X79597500Y-28224000D02*
X79597500Y-31526000D01*
X73882500Y-28224000D02*
X79597500Y-28224000D01*
X73882500Y-31526000D02*
X73882500Y-28224000D01*
D10*
X80059477Y-29029180D02*
G75*
G03*
X80059477Y-29029180I-53037J0D01*
G01*
X80143223Y-29029180D02*
G75*
G03*
X80143223Y-29029180I-136783J0D01*
G01*
D12*
X73349523Y-66736904D02*
X73349523Y-67384523D01*
X73311428Y-67460714D01*
X73273333Y-67498809D01*
X73197142Y-67536904D01*
X73044761Y-67536904D01*
X72968571Y-67498809D01*
X72930476Y-67460714D01*
X72892380Y-67384523D01*
X72892380Y-66736904D01*
X72549523Y-66813095D02*
X72511428Y-66775000D01*
X72435238Y-66736904D01*
X72244761Y-66736904D01*
X72168571Y-66775000D01*
X72130476Y-66813095D01*
X72092380Y-66889285D01*
X72092380Y-66965476D01*
X72130476Y-67079761D01*
X72587619Y-67536904D01*
X72092380Y-67536904D01*
X73349523Y-59286904D02*
X73349523Y-59934523D01*
X73311428Y-60010714D01*
X73273333Y-60048809D01*
X73197142Y-60086904D01*
X73044761Y-60086904D01*
X72968571Y-60048809D01*
X72930476Y-60010714D01*
X72892380Y-59934523D01*
X72892380Y-59286904D01*
X72549523Y-59363095D02*
X72511428Y-59325000D01*
X72435238Y-59286904D01*
X72244761Y-59286904D01*
X72168571Y-59325000D01*
X72130476Y-59363095D01*
X72092380Y-59439285D01*
X72092380Y-59515476D01*
X72130476Y-59629761D01*
X72587619Y-60086904D01*
X72092380Y-60086904D01*
X73349523Y-51836904D02*
X73349523Y-52484523D01*
X73311428Y-52560714D01*
X73273333Y-52598809D01*
X73197142Y-52636904D01*
X73044761Y-52636904D01*
X72968571Y-52598809D01*
X72930476Y-52560714D01*
X72892380Y-52484523D01*
X72892380Y-51836904D01*
X72549523Y-51913095D02*
X72511428Y-51875000D01*
X72435238Y-51836904D01*
X72244761Y-51836904D01*
X72168571Y-51875000D01*
X72130476Y-51913095D01*
X72092380Y-51989285D01*
X72092380Y-52065476D01*
X72130476Y-52179761D01*
X72587619Y-52636904D01*
X72092380Y-52636904D01*
X73349523Y-44386904D02*
X73349523Y-45034523D01*
X73311428Y-45110714D01*
X73273333Y-45148809D01*
X73197142Y-45186904D01*
X73044761Y-45186904D01*
X72968571Y-45148809D01*
X72930476Y-45110714D01*
X72892380Y-45034523D01*
X72892380Y-44386904D01*
X72549523Y-44463095D02*
X72511428Y-44425000D01*
X72435238Y-44386904D01*
X72244761Y-44386904D01*
X72168571Y-44425000D01*
X72130476Y-44463095D01*
X72092380Y-44539285D01*
X72092380Y-44615476D01*
X72130476Y-44729761D01*
X72587619Y-45186904D01*
X72092380Y-45186904D01*
X73349523Y-36936904D02*
X73349523Y-37584523D01*
X73311428Y-37660714D01*
X73273333Y-37698809D01*
X73197142Y-37736904D01*
X73044761Y-37736904D01*
X72968571Y-37698809D01*
X72930476Y-37660714D01*
X72892380Y-37584523D01*
X72892380Y-36936904D01*
X72549523Y-37013095D02*
X72511428Y-36975000D01*
X72435238Y-36936904D01*
X72244761Y-36936904D01*
X72168571Y-36975000D01*
X72130476Y-37013095D01*
X72092380Y-37089285D01*
X72092380Y-37165476D01*
X72130476Y-37279761D01*
X72587619Y-37736904D01*
X72092380Y-37736904D01*
X73349523Y-29486904D02*
X73349523Y-30134523D01*
X73311428Y-30210714D01*
X73273333Y-30248809D01*
X73197142Y-30286904D01*
X73044761Y-30286904D01*
X72968571Y-30248809D01*
X72930476Y-30210714D01*
X72892380Y-30134523D01*
X72892380Y-29486904D01*
X72549523Y-29563095D02*
X72511428Y-29525000D01*
X72435238Y-29486904D01*
X72244761Y-29486904D01*
X72168571Y-29525000D01*
X72130476Y-29563095D01*
X72092380Y-29639285D01*
X72092380Y-29715476D01*
X72130476Y-29829761D01*
X72587619Y-30286904D01*
X72092380Y-30286904D01*
%TD*%
M02*
