%TF.GenerationSoftware,KiCad,Pcbnew,(5.1.9)-1*%
%TF.CreationDate,2022-02-15T00:45:03-06:00*%
%TF.ProjectId,CC_TOF_PANELIZED,43435f54-4f46-45f5-9041-4e454c495a45,000*%
%TF.SameCoordinates,Original*%
%TF.FileFunction,Soldermask,Bot*%
%TF.FilePolarity,Negative*%
%FSLAX46Y46*%
G04 Gerber Fmt 4.6, Leading zero omitted, Abs format (unit mm)*
G04 Created by KiCad (PCBNEW (5.1.9)-1) date 2022-02-15 00:45:03*
%MOMM*%
%LPD*%
G01*
G04 APERTURE LIST*
%ADD10R,1.368000X1.368000*%
%ADD11C,1.368000*%
%ADD12R,0.508000X0.508000*%
%ADD13C,0.500000*%
%ADD14C,2.000000*%
G04 APERTURE END LIST*
D10*
%TO.C,J2*%
X56215000Y-67840000D03*
D11*
X54215000Y-67840000D03*
%TD*%
D10*
%TO.C,J2*%
X56215000Y-60390000D03*
D11*
X54215000Y-60390000D03*
%TD*%
D10*
%TO.C,J2*%
X56215000Y-52940000D03*
D11*
X54215000Y-52940000D03*
%TD*%
D10*
%TO.C,J2*%
X56215000Y-45490000D03*
D11*
X54215000Y-45490000D03*
%TD*%
D10*
%TO.C,J2*%
X56215000Y-38040000D03*
D11*
X54215000Y-38040000D03*
%TD*%
D12*
%TO.C,U2*%
X78339999Y-66325027D03*
X77540001Y-66325027D03*
X76740000Y-66325027D03*
X75939999Y-66325027D03*
X75140001Y-66325027D03*
X75140054Y-67125000D03*
X75140001Y-67924973D03*
X75939999Y-67924973D03*
X76740000Y-67924973D03*
X77540001Y-67924973D03*
X78339999Y-67924973D03*
X78339946Y-67125000D03*
%TD*%
%TO.C,U2*%
X78339999Y-58875027D03*
X77540001Y-58875027D03*
X76740000Y-58875027D03*
X75939999Y-58875027D03*
X75140001Y-58875027D03*
X75140054Y-59675000D03*
X75140001Y-60474973D03*
X75939999Y-60474973D03*
X76740000Y-60474973D03*
X77540001Y-60474973D03*
X78339999Y-60474973D03*
X78339946Y-59675000D03*
%TD*%
%TO.C,U2*%
X78339999Y-51425027D03*
X77540001Y-51425027D03*
X76740000Y-51425027D03*
X75939999Y-51425027D03*
X75140001Y-51425027D03*
X75140054Y-52225000D03*
X75140001Y-53024973D03*
X75939999Y-53024973D03*
X76740000Y-53024973D03*
X77540001Y-53024973D03*
X78339999Y-53024973D03*
X78339946Y-52225000D03*
%TD*%
%TO.C,U2*%
X78339999Y-43975027D03*
X77540001Y-43975027D03*
X76740000Y-43975027D03*
X75939999Y-43975027D03*
X75140001Y-43975027D03*
X75140054Y-44775000D03*
X75140001Y-45574973D03*
X75939999Y-45574973D03*
X76740000Y-45574973D03*
X77540001Y-45574973D03*
X78339999Y-45574973D03*
X78339946Y-44775000D03*
%TD*%
%TO.C,U2*%
X78339999Y-36525027D03*
X77540001Y-36525027D03*
X76740000Y-36525027D03*
X75939999Y-36525027D03*
X75140001Y-36525027D03*
X75140054Y-37325000D03*
X75140001Y-38124973D03*
X75939999Y-38124973D03*
X76740000Y-38124973D03*
X77540001Y-38124973D03*
X78339999Y-38124973D03*
X78339946Y-37325000D03*
%TD*%
D13*
%TO.C,REF\u002A\u002A*%
X47510000Y-68079000D03*
%TD*%
%TO.C,REF\u002A\u002A*%
X47510000Y-60629000D03*
%TD*%
%TO.C,REF\u002A\u002A*%
X47510000Y-53179000D03*
%TD*%
%TO.C,REF\u002A\u002A*%
X47510000Y-45729000D03*
%TD*%
%TO.C,REF\u002A\u002A*%
X47510000Y-38279000D03*
%TD*%
%TO.C,REF\u002A\u002A*%
X47510000Y-65745000D03*
%TD*%
%TO.C,REF\u002A\u002A*%
X47510000Y-58295000D03*
%TD*%
%TO.C,REF\u002A\u002A*%
X47510000Y-50845000D03*
%TD*%
%TO.C,REF\u002A\u002A*%
X47510000Y-43395000D03*
%TD*%
%TO.C,REF\u002A\u002A*%
X47510000Y-35945000D03*
%TD*%
%TO.C,REF\u002A\u002A*%
X105980000Y-66571000D03*
%TD*%
%TO.C,REF\u002A\u002A*%
X105980000Y-59121000D03*
%TD*%
%TO.C,REF\u002A\u002A*%
X105980000Y-51671000D03*
%TD*%
%TO.C,REF\u002A\u002A*%
X105980000Y-44221000D03*
%TD*%
%TO.C,REF\u002A\u002A*%
X105980000Y-36771000D03*
%TD*%
%TO.C,REF\u002A\u002A*%
X105980000Y-67349000D03*
%TD*%
%TO.C,REF\u002A\u002A*%
X105980000Y-59899000D03*
%TD*%
%TO.C,REF\u002A\u002A*%
X105980000Y-52449000D03*
%TD*%
%TO.C,REF\u002A\u002A*%
X105980000Y-44999000D03*
%TD*%
%TO.C,REF\u002A\u002A*%
X105980000Y-37549000D03*
%TD*%
%TO.C,REF\u002A\u002A*%
X105980000Y-68905000D03*
%TD*%
%TO.C,REF\u002A\u002A*%
X105980000Y-61455000D03*
%TD*%
%TO.C,REF\u002A\u002A*%
X105980000Y-54005000D03*
%TD*%
%TO.C,REF\u002A\u002A*%
X105980000Y-46555000D03*
%TD*%
%TO.C,REF\u002A\u002A*%
X105980000Y-39105000D03*
%TD*%
%TO.C,REF\u002A\u002A*%
X47510000Y-66523000D03*
%TD*%
%TO.C,REF\u002A\u002A*%
X47510000Y-59073000D03*
%TD*%
%TO.C,REF\u002A\u002A*%
X47510000Y-51623000D03*
%TD*%
%TO.C,REF\u002A\u002A*%
X47510000Y-44173000D03*
%TD*%
%TO.C,REF\u002A\u002A*%
X47510000Y-36723000D03*
%TD*%
%TO.C,REF\u002A\u002A*%
X105980000Y-68127000D03*
%TD*%
%TO.C,REF\u002A\u002A*%
X105980000Y-60677000D03*
%TD*%
%TO.C,REF\u002A\u002A*%
X105980000Y-53227000D03*
%TD*%
%TO.C,REF\u002A\u002A*%
X105980000Y-45777000D03*
%TD*%
%TO.C,REF\u002A\u002A*%
X105980000Y-38327000D03*
%TD*%
%TO.C,REF\u002A\u002A*%
X47510000Y-67301000D03*
%TD*%
%TO.C,REF\u002A\u002A*%
X47510000Y-59851000D03*
%TD*%
%TO.C,REF\u002A\u002A*%
X47510000Y-52401000D03*
%TD*%
%TO.C,REF\u002A\u002A*%
X47510000Y-44951000D03*
%TD*%
%TO.C,REF\u002A\u002A*%
X47510000Y-37501000D03*
%TD*%
%TO.C,REF\u002A\u002A*%
X105980000Y-65793000D03*
%TD*%
%TO.C,REF\u002A\u002A*%
X105980000Y-58343000D03*
%TD*%
%TO.C,REF\u002A\u002A*%
X105980000Y-50893000D03*
%TD*%
%TO.C,REF\u002A\u002A*%
X105980000Y-43443000D03*
%TD*%
%TO.C,REF\u002A\u002A*%
X105980000Y-35993000D03*
%TD*%
%TO.C,REF\u002A\u002A*%
X47510000Y-68857000D03*
%TD*%
%TO.C,REF\u002A\u002A*%
X47510000Y-61407000D03*
%TD*%
%TO.C,REF\u002A\u002A*%
X47510000Y-53957000D03*
%TD*%
%TO.C,REF\u002A\u002A*%
X47510000Y-46507000D03*
%TD*%
%TO.C,REF\u002A\u002A*%
X47510000Y-39057000D03*
%TD*%
%TO.C,REF\u002A\u002A*%
X41460000Y-28505000D03*
%TD*%
%TO.C,REF\u002A\u002A*%
X43304000Y-28505000D03*
%TD*%
%TO.C,REF\u002A\u002A*%
X42520000Y-28505000D03*
%TD*%
%TO.C,REF\u002A\u002A*%
X44088000Y-28505000D03*
%TD*%
%TO.C,REF\u002A\u002A*%
X44872000Y-28505000D03*
%TD*%
%TO.C,REF\u002A\u002A*%
X45656000Y-28505000D03*
%TD*%
%TO.C,REF\u002A\u002A*%
X46440000Y-28505000D03*
%TD*%
%TO.C,REF\u002A\u002A*%
X41490000Y-69035000D03*
%TD*%
%TO.C,REF\u002A\u002A*%
X43334000Y-69035000D03*
%TD*%
%TO.C,REF\u002A\u002A*%
X42550000Y-69035000D03*
%TD*%
%TO.C,REF\u002A\u002A*%
X44118000Y-69035000D03*
%TD*%
%TO.C,REF\u002A\u002A*%
X44902000Y-69035000D03*
%TD*%
%TO.C,REF\u002A\u002A*%
X45686000Y-69035000D03*
%TD*%
%TO.C,REF\u002A\u002A*%
X46470000Y-69035000D03*
%TD*%
%TO.C,REF\u002A\u002A*%
X112050000Y-69055000D03*
%TD*%
%TO.C,REF\u002A\u002A*%
X110990000Y-69055000D03*
%TD*%
%TO.C,REF\u002A\u002A*%
X110206000Y-69055000D03*
%TD*%
%TO.C,REF\u002A\u002A*%
X109422000Y-69055000D03*
%TD*%
%TO.C,REF\u002A\u002A*%
X108638000Y-69055000D03*
%TD*%
%TO.C,REF\u002A\u002A*%
X107854000Y-69055000D03*
%TD*%
%TO.C,REF\u002A\u002A*%
X107070000Y-69055000D03*
%TD*%
%TO.C,REF\u002A\u002A*%
X112050000Y-28545000D03*
%TD*%
%TO.C,REF\u002A\u002A*%
X110990000Y-28545000D03*
%TD*%
%TO.C,REF\u002A\u002A*%
X110206000Y-28545000D03*
%TD*%
%TO.C,REF\u002A\u002A*%
X47510000Y-28495000D03*
%TD*%
%TO.C,REF\u002A\u002A*%
X47510000Y-29273000D03*
%TD*%
%TO.C,REF\u002A\u002A*%
X47510000Y-30051000D03*
%TD*%
%TO.C,REF\u002A\u002A*%
X47510000Y-30829000D03*
%TD*%
%TO.C,REF\u002A\u002A*%
X47510000Y-31607000D03*
%TD*%
%TO.C,REF\u002A\u002A*%
X105980000Y-28543000D03*
%TD*%
%TO.C,REF\u002A\u002A*%
X105980000Y-29321000D03*
%TD*%
%TO.C,REF\u002A\u002A*%
X105980000Y-30099000D03*
%TD*%
%TO.C,REF\u002A\u002A*%
X105980000Y-30877000D03*
%TD*%
%TO.C,REF\u002A\u002A*%
X105980000Y-31655000D03*
%TD*%
D14*
%TO.C,REF\u002A\u002A*%
X43740000Y-73610000D03*
%TD*%
%TO.C,REF\u002A\u002A*%
X109740000Y-23785000D03*
%TD*%
D13*
%TO.C,REF\u002A\u002A*%
X47400000Y-74865000D03*
%TD*%
%TO.C,REF\u002A\u002A*%
X47400000Y-73305000D03*
%TD*%
%TO.C,REF\u002A\u002A*%
X47400000Y-75945000D03*
%TD*%
%TO.C,REF\u002A\u002A*%
X47400000Y-74085000D03*
%TD*%
%TO.C,REF\u002A\u002A*%
X105800000Y-74825000D03*
%TD*%
%TO.C,REF\u002A\u002A*%
X105800000Y-73265000D03*
%TD*%
%TO.C,REF\u002A\u002A*%
X105800000Y-75905000D03*
%TD*%
%TO.C,REF\u002A\u002A*%
X105800000Y-74045000D03*
%TD*%
%TO.C,REF\u002A\u002A*%
X105800000Y-22625000D03*
%TD*%
%TO.C,REF\u002A\u002A*%
X105800000Y-24185000D03*
%TD*%
%TO.C,REF\u002A\u002A*%
X105800000Y-21545000D03*
%TD*%
%TO.C,REF\u002A\u002A*%
X105800000Y-23405000D03*
%TD*%
%TO.C,REF\u002A\u002A*%
X47400000Y-22665000D03*
%TD*%
%TO.C,REF\u002A\u002A*%
X47400000Y-24225000D03*
%TD*%
%TO.C,REF\u002A\u002A*%
X47400000Y-21585000D03*
%TD*%
%TO.C,REF\u002A\u002A*%
X47400000Y-23445000D03*
%TD*%
%TO.C,REF\u002A\u002A*%
X107070000Y-28545000D03*
%TD*%
%TO.C,REF\u002A\u002A*%
X107854000Y-28545000D03*
%TD*%
%TO.C,REF\u002A\u002A*%
X108638000Y-28545000D03*
%TD*%
%TO.C,REF\u002A\u002A*%
X109422000Y-28545000D03*
%TD*%
D12*
%TO.C,U2*%
X78339946Y-29875000D03*
X78339999Y-30674973D03*
X77540001Y-30674973D03*
X76740000Y-30674973D03*
X75939999Y-30674973D03*
X75140001Y-30674973D03*
X75140054Y-29875000D03*
X75140001Y-29075027D03*
X75939999Y-29075027D03*
X76740000Y-29075027D03*
X77540001Y-29075027D03*
X78339999Y-29075027D03*
%TD*%
D11*
%TO.C,J2*%
X54215000Y-30590000D03*
D10*
X56215000Y-30590000D03*
%TD*%
M02*
