%TF.GenerationSoftware,KiCad,Pcbnew,(5.1.9)-1*%
%TF.CreationDate,2022-02-15T00:45:03-06:00*%
%TF.ProjectId,CC_TOF_PANELIZED,43435f54-4f46-45f5-9041-4e454c495a45,000*%
%TF.SameCoordinates,Original*%
%TF.FileFunction,Legend,Top*%
%TF.FilePolarity,Positive*%
%FSLAX46Y46*%
G04 Gerber Fmt 4.6, Leading zero omitted, Abs format (unit mm)*
G04 Created by KiCad (PCBNEW (5.1.9)-1) date 2022-02-15 00:45:03*
%MOMM*%
%LPD*%
G01*
G04 APERTURE LIST*
%ADD10C,0.150000*%
%ADD11C,0.200000*%
%ADD12C,0.127000*%
%ADD13C,0.120000*%
G04 APERTURE END LIST*
D10*
X62674761Y-65711904D02*
X63131904Y-65711904D01*
X62903333Y-66511904D02*
X62903333Y-65711904D01*
X63512857Y-66511904D02*
X63436666Y-66473809D01*
X63398571Y-66435714D01*
X63360476Y-66359523D01*
X63360476Y-66130952D01*
X63398571Y-66054761D01*
X63436666Y-66016666D01*
X63512857Y-65978571D01*
X63627142Y-65978571D01*
X63703333Y-66016666D01*
X63741428Y-66054761D01*
X63779523Y-66130952D01*
X63779523Y-66359523D01*
X63741428Y-66435714D01*
X63703333Y-66473809D01*
X63627142Y-66511904D01*
X63512857Y-66511904D01*
X64389047Y-66092857D02*
X64122380Y-66092857D01*
X64122380Y-66511904D02*
X64122380Y-65711904D01*
X64503333Y-65711904D01*
X64617619Y-66588095D02*
X65227142Y-66588095D01*
X65341428Y-65978571D02*
X65531904Y-66511904D01*
X65722380Y-65978571D01*
X65989047Y-65788095D02*
X66027142Y-65750000D01*
X66103333Y-65711904D01*
X66293809Y-65711904D01*
X66370000Y-65750000D01*
X66408095Y-65788095D01*
X66446190Y-65864285D01*
X66446190Y-65940476D01*
X66408095Y-66054761D01*
X65950952Y-66511904D01*
X66446190Y-66511904D01*
X66789047Y-66435714D02*
X66827142Y-66473809D01*
X66789047Y-66511904D01*
X66750952Y-66473809D01*
X66789047Y-66435714D01*
X66789047Y-66511904D01*
X67322380Y-65711904D02*
X67398571Y-65711904D01*
X67474761Y-65750000D01*
X67512857Y-65788095D01*
X67550952Y-65864285D01*
X67589047Y-66016666D01*
X67589047Y-66207142D01*
X67550952Y-66359523D01*
X67512857Y-66435714D01*
X67474761Y-66473809D01*
X67398571Y-66511904D01*
X67322380Y-66511904D01*
X67246190Y-66473809D01*
X67208095Y-66435714D01*
X67170000Y-66359523D01*
X67131904Y-66207142D01*
X67131904Y-66016666D01*
X67170000Y-65864285D01*
X67208095Y-65788095D01*
X67246190Y-65750000D01*
X67322380Y-65711904D01*
X62674761Y-58261904D02*
X63131904Y-58261904D01*
X62903333Y-59061904D02*
X62903333Y-58261904D01*
X63512857Y-59061904D02*
X63436666Y-59023809D01*
X63398571Y-58985714D01*
X63360476Y-58909523D01*
X63360476Y-58680952D01*
X63398571Y-58604761D01*
X63436666Y-58566666D01*
X63512857Y-58528571D01*
X63627142Y-58528571D01*
X63703333Y-58566666D01*
X63741428Y-58604761D01*
X63779523Y-58680952D01*
X63779523Y-58909523D01*
X63741428Y-58985714D01*
X63703333Y-59023809D01*
X63627142Y-59061904D01*
X63512857Y-59061904D01*
X64389047Y-58642857D02*
X64122380Y-58642857D01*
X64122380Y-59061904D02*
X64122380Y-58261904D01*
X64503333Y-58261904D01*
X64617619Y-59138095D02*
X65227142Y-59138095D01*
X65341428Y-58528571D02*
X65531904Y-59061904D01*
X65722380Y-58528571D01*
X65989047Y-58338095D02*
X66027142Y-58300000D01*
X66103333Y-58261904D01*
X66293809Y-58261904D01*
X66370000Y-58300000D01*
X66408095Y-58338095D01*
X66446190Y-58414285D01*
X66446190Y-58490476D01*
X66408095Y-58604761D01*
X65950952Y-59061904D01*
X66446190Y-59061904D01*
X66789047Y-58985714D02*
X66827142Y-59023809D01*
X66789047Y-59061904D01*
X66750952Y-59023809D01*
X66789047Y-58985714D01*
X66789047Y-59061904D01*
X67322380Y-58261904D02*
X67398571Y-58261904D01*
X67474761Y-58300000D01*
X67512857Y-58338095D01*
X67550952Y-58414285D01*
X67589047Y-58566666D01*
X67589047Y-58757142D01*
X67550952Y-58909523D01*
X67512857Y-58985714D01*
X67474761Y-59023809D01*
X67398571Y-59061904D01*
X67322380Y-59061904D01*
X67246190Y-59023809D01*
X67208095Y-58985714D01*
X67170000Y-58909523D01*
X67131904Y-58757142D01*
X67131904Y-58566666D01*
X67170000Y-58414285D01*
X67208095Y-58338095D01*
X67246190Y-58300000D01*
X67322380Y-58261904D01*
X62674761Y-50811904D02*
X63131904Y-50811904D01*
X62903333Y-51611904D02*
X62903333Y-50811904D01*
X63512857Y-51611904D02*
X63436666Y-51573809D01*
X63398571Y-51535714D01*
X63360476Y-51459523D01*
X63360476Y-51230952D01*
X63398571Y-51154761D01*
X63436666Y-51116666D01*
X63512857Y-51078571D01*
X63627142Y-51078571D01*
X63703333Y-51116666D01*
X63741428Y-51154761D01*
X63779523Y-51230952D01*
X63779523Y-51459523D01*
X63741428Y-51535714D01*
X63703333Y-51573809D01*
X63627142Y-51611904D01*
X63512857Y-51611904D01*
X64389047Y-51192857D02*
X64122380Y-51192857D01*
X64122380Y-51611904D02*
X64122380Y-50811904D01*
X64503333Y-50811904D01*
X64617619Y-51688095D02*
X65227142Y-51688095D01*
X65341428Y-51078571D02*
X65531904Y-51611904D01*
X65722380Y-51078571D01*
X65989047Y-50888095D02*
X66027142Y-50850000D01*
X66103333Y-50811904D01*
X66293809Y-50811904D01*
X66370000Y-50850000D01*
X66408095Y-50888095D01*
X66446190Y-50964285D01*
X66446190Y-51040476D01*
X66408095Y-51154761D01*
X65950952Y-51611904D01*
X66446190Y-51611904D01*
X66789047Y-51535714D02*
X66827142Y-51573809D01*
X66789047Y-51611904D01*
X66750952Y-51573809D01*
X66789047Y-51535714D01*
X66789047Y-51611904D01*
X67322380Y-50811904D02*
X67398571Y-50811904D01*
X67474761Y-50850000D01*
X67512857Y-50888095D01*
X67550952Y-50964285D01*
X67589047Y-51116666D01*
X67589047Y-51307142D01*
X67550952Y-51459523D01*
X67512857Y-51535714D01*
X67474761Y-51573809D01*
X67398571Y-51611904D01*
X67322380Y-51611904D01*
X67246190Y-51573809D01*
X67208095Y-51535714D01*
X67170000Y-51459523D01*
X67131904Y-51307142D01*
X67131904Y-51116666D01*
X67170000Y-50964285D01*
X67208095Y-50888095D01*
X67246190Y-50850000D01*
X67322380Y-50811904D01*
X62674761Y-43361904D02*
X63131904Y-43361904D01*
X62903333Y-44161904D02*
X62903333Y-43361904D01*
X63512857Y-44161904D02*
X63436666Y-44123809D01*
X63398571Y-44085714D01*
X63360476Y-44009523D01*
X63360476Y-43780952D01*
X63398571Y-43704761D01*
X63436666Y-43666666D01*
X63512857Y-43628571D01*
X63627142Y-43628571D01*
X63703333Y-43666666D01*
X63741428Y-43704761D01*
X63779523Y-43780952D01*
X63779523Y-44009523D01*
X63741428Y-44085714D01*
X63703333Y-44123809D01*
X63627142Y-44161904D01*
X63512857Y-44161904D01*
X64389047Y-43742857D02*
X64122380Y-43742857D01*
X64122380Y-44161904D02*
X64122380Y-43361904D01*
X64503333Y-43361904D01*
X64617619Y-44238095D02*
X65227142Y-44238095D01*
X65341428Y-43628571D02*
X65531904Y-44161904D01*
X65722380Y-43628571D01*
X65989047Y-43438095D02*
X66027142Y-43400000D01*
X66103333Y-43361904D01*
X66293809Y-43361904D01*
X66370000Y-43400000D01*
X66408095Y-43438095D01*
X66446190Y-43514285D01*
X66446190Y-43590476D01*
X66408095Y-43704761D01*
X65950952Y-44161904D01*
X66446190Y-44161904D01*
X66789047Y-44085714D02*
X66827142Y-44123809D01*
X66789047Y-44161904D01*
X66750952Y-44123809D01*
X66789047Y-44085714D01*
X66789047Y-44161904D01*
X67322380Y-43361904D02*
X67398571Y-43361904D01*
X67474761Y-43400000D01*
X67512857Y-43438095D01*
X67550952Y-43514285D01*
X67589047Y-43666666D01*
X67589047Y-43857142D01*
X67550952Y-44009523D01*
X67512857Y-44085714D01*
X67474761Y-44123809D01*
X67398571Y-44161904D01*
X67322380Y-44161904D01*
X67246190Y-44123809D01*
X67208095Y-44085714D01*
X67170000Y-44009523D01*
X67131904Y-43857142D01*
X67131904Y-43666666D01*
X67170000Y-43514285D01*
X67208095Y-43438095D01*
X67246190Y-43400000D01*
X67322380Y-43361904D01*
X62674761Y-35911904D02*
X63131904Y-35911904D01*
X62903333Y-36711904D02*
X62903333Y-35911904D01*
X63512857Y-36711904D02*
X63436666Y-36673809D01*
X63398571Y-36635714D01*
X63360476Y-36559523D01*
X63360476Y-36330952D01*
X63398571Y-36254761D01*
X63436666Y-36216666D01*
X63512857Y-36178571D01*
X63627142Y-36178571D01*
X63703333Y-36216666D01*
X63741428Y-36254761D01*
X63779523Y-36330952D01*
X63779523Y-36559523D01*
X63741428Y-36635714D01*
X63703333Y-36673809D01*
X63627142Y-36711904D01*
X63512857Y-36711904D01*
X64389047Y-36292857D02*
X64122380Y-36292857D01*
X64122380Y-36711904D02*
X64122380Y-35911904D01*
X64503333Y-35911904D01*
X64617619Y-36788095D02*
X65227142Y-36788095D01*
X65341428Y-36178571D02*
X65531904Y-36711904D01*
X65722380Y-36178571D01*
X65989047Y-35988095D02*
X66027142Y-35950000D01*
X66103333Y-35911904D01*
X66293809Y-35911904D01*
X66370000Y-35950000D01*
X66408095Y-35988095D01*
X66446190Y-36064285D01*
X66446190Y-36140476D01*
X66408095Y-36254761D01*
X65950952Y-36711904D01*
X66446190Y-36711904D01*
X66789047Y-36635714D02*
X66827142Y-36673809D01*
X66789047Y-36711904D01*
X66750952Y-36673809D01*
X66789047Y-36635714D01*
X66789047Y-36711904D01*
X67322380Y-35911904D02*
X67398571Y-35911904D01*
X67474761Y-35950000D01*
X67512857Y-35988095D01*
X67550952Y-36064285D01*
X67589047Y-36216666D01*
X67589047Y-36407142D01*
X67550952Y-36559523D01*
X67512857Y-36635714D01*
X67474761Y-36673809D01*
X67398571Y-36711904D01*
X67322380Y-36711904D01*
X67246190Y-36673809D01*
X67208095Y-36635714D01*
X67170000Y-36559523D01*
X67131904Y-36407142D01*
X67131904Y-36216666D01*
X67170000Y-36064285D01*
X67208095Y-35988095D01*
X67246190Y-35950000D01*
X67322380Y-35911904D01*
X58889047Y-68156428D02*
X59650952Y-68156428D01*
X59270000Y-68537380D02*
X59270000Y-67775476D01*
X58889047Y-60706428D02*
X59650952Y-60706428D01*
X59270000Y-61087380D02*
X59270000Y-60325476D01*
X58889047Y-53256428D02*
X59650952Y-53256428D01*
X59270000Y-53637380D02*
X59270000Y-52875476D01*
X58889047Y-45806428D02*
X59650952Y-45806428D01*
X59270000Y-46187380D02*
X59270000Y-45425476D01*
X58889047Y-38356428D02*
X59650952Y-38356428D01*
X59270000Y-38737380D02*
X59270000Y-37975476D01*
X50829047Y-68156428D02*
X51590952Y-68156428D01*
X50829047Y-60706428D02*
X51590952Y-60706428D01*
X50829047Y-53256428D02*
X51590952Y-53256428D01*
X50829047Y-45806428D02*
X51590952Y-45806428D01*
X50829047Y-38356428D02*
X51590952Y-38356428D01*
X50829047Y-30906428D02*
X51590952Y-30906428D01*
X58889047Y-30906428D02*
X59650952Y-30906428D01*
X59270000Y-31287380D02*
X59270000Y-30525476D01*
X62674761Y-28461904D02*
X63131904Y-28461904D01*
X62903333Y-29261904D02*
X62903333Y-28461904D01*
X63512857Y-29261904D02*
X63436666Y-29223809D01*
X63398571Y-29185714D01*
X63360476Y-29109523D01*
X63360476Y-28880952D01*
X63398571Y-28804761D01*
X63436666Y-28766666D01*
X63512857Y-28728571D01*
X63627142Y-28728571D01*
X63703333Y-28766666D01*
X63741428Y-28804761D01*
X63779523Y-28880952D01*
X63779523Y-29109523D01*
X63741428Y-29185714D01*
X63703333Y-29223809D01*
X63627142Y-29261904D01*
X63512857Y-29261904D01*
X64389047Y-28842857D02*
X64122380Y-28842857D01*
X64122380Y-29261904D02*
X64122380Y-28461904D01*
X64503333Y-28461904D01*
X64617619Y-29338095D02*
X65227142Y-29338095D01*
X65341428Y-28728571D02*
X65531904Y-29261904D01*
X65722380Y-28728571D01*
X65989047Y-28538095D02*
X66027142Y-28500000D01*
X66103333Y-28461904D01*
X66293809Y-28461904D01*
X66370000Y-28500000D01*
X66408095Y-28538095D01*
X66446190Y-28614285D01*
X66446190Y-28690476D01*
X66408095Y-28804761D01*
X65950952Y-29261904D01*
X66446190Y-29261904D01*
X66789047Y-29185714D02*
X66827142Y-29223809D01*
X66789047Y-29261904D01*
X66750952Y-29223809D01*
X66789047Y-29185714D01*
X66789047Y-29261904D01*
X67322380Y-28461904D02*
X67398571Y-28461904D01*
X67474761Y-28500000D01*
X67512857Y-28538095D01*
X67550952Y-28614285D01*
X67589047Y-28766666D01*
X67589047Y-28957142D01*
X67550952Y-29109523D01*
X67512857Y-29185714D01*
X67474761Y-29223809D01*
X67398571Y-29261904D01*
X67322380Y-29261904D01*
X67246190Y-29223809D01*
X67208095Y-29185714D01*
X67170000Y-29109523D01*
X67131904Y-28957142D01*
X67131904Y-28766666D01*
X67170000Y-28614285D01*
X67208095Y-28538095D01*
X67246190Y-28500000D01*
X67322380Y-28461904D01*
D11*
%TO.C,J1*%
X95936760Y-69098560D02*
G75*
G03*
X95936760Y-69098560I-100000J0D01*
G01*
D12*
X93765000Y-65535000D02*
X93415000Y-65535000D01*
X93415000Y-65535000D02*
X93415000Y-68835000D01*
X93415000Y-68835000D02*
X93765000Y-68835000D01*
X102765000Y-65535000D02*
X103115000Y-65535000D01*
X103115000Y-65535000D02*
X103115000Y-68835000D01*
X103115000Y-68835000D02*
X102765000Y-68835000D01*
D11*
X95936760Y-61648560D02*
G75*
G03*
X95936760Y-61648560I-100000J0D01*
G01*
D12*
X93765000Y-58085000D02*
X93415000Y-58085000D01*
X93415000Y-58085000D02*
X93415000Y-61385000D01*
X93415000Y-61385000D02*
X93765000Y-61385000D01*
X102765000Y-58085000D02*
X103115000Y-58085000D01*
X103115000Y-58085000D02*
X103115000Y-61385000D01*
X103115000Y-61385000D02*
X102765000Y-61385000D01*
D11*
X95936760Y-54198560D02*
G75*
G03*
X95936760Y-54198560I-100000J0D01*
G01*
D12*
X93765000Y-50635000D02*
X93415000Y-50635000D01*
X93415000Y-50635000D02*
X93415000Y-53935000D01*
X93415000Y-53935000D02*
X93765000Y-53935000D01*
X102765000Y-50635000D02*
X103115000Y-50635000D01*
X103115000Y-50635000D02*
X103115000Y-53935000D01*
X103115000Y-53935000D02*
X102765000Y-53935000D01*
D11*
X95936760Y-46748560D02*
G75*
G03*
X95936760Y-46748560I-100000J0D01*
G01*
D12*
X93765000Y-43185000D02*
X93415000Y-43185000D01*
X93415000Y-43185000D02*
X93415000Y-46485000D01*
X93415000Y-46485000D02*
X93765000Y-46485000D01*
X102765000Y-43185000D02*
X103115000Y-43185000D01*
X103115000Y-43185000D02*
X103115000Y-46485000D01*
X103115000Y-46485000D02*
X102765000Y-46485000D01*
D11*
X95936760Y-39298560D02*
G75*
G03*
X95936760Y-39298560I-100000J0D01*
G01*
D12*
X93765000Y-35735000D02*
X93415000Y-35735000D01*
X93415000Y-35735000D02*
X93415000Y-39035000D01*
X93415000Y-39035000D02*
X93765000Y-39035000D01*
X102765000Y-35735000D02*
X103115000Y-35735000D01*
X103115000Y-35735000D02*
X103115000Y-39035000D01*
X103115000Y-39035000D02*
X102765000Y-39035000D01*
%TO.C,J2*%
X52265000Y-65040000D02*
X58165000Y-65040000D01*
X58165000Y-65040000D02*
X58165000Y-69540000D01*
X58165000Y-69540000D02*
X52265000Y-69540000D01*
X52265000Y-69540000D02*
X52265000Y-65040000D01*
X52265000Y-57590000D02*
X58165000Y-57590000D01*
X58165000Y-57590000D02*
X58165000Y-62090000D01*
X58165000Y-62090000D02*
X52265000Y-62090000D01*
X52265000Y-62090000D02*
X52265000Y-57590000D01*
X52265000Y-50140000D02*
X58165000Y-50140000D01*
X58165000Y-50140000D02*
X58165000Y-54640000D01*
X58165000Y-54640000D02*
X52265000Y-54640000D01*
X52265000Y-54640000D02*
X52265000Y-50140000D01*
X52265000Y-42690000D02*
X58165000Y-42690000D01*
X58165000Y-42690000D02*
X58165000Y-47190000D01*
X58165000Y-47190000D02*
X52265000Y-47190000D01*
X52265000Y-47190000D02*
X52265000Y-42690000D01*
X52265000Y-35240000D02*
X58165000Y-35240000D01*
X58165000Y-35240000D02*
X58165000Y-39740000D01*
X58165000Y-39740000D02*
X52265000Y-39740000D01*
X52265000Y-39740000D02*
X52265000Y-35240000D01*
D13*
%TO.C,U1*%
X78474018Y-68645000D02*
G75*
G03*
X78474018Y-68645000I-114018J0D01*
G01*
X78404721Y-68645000D02*
G75*
G03*
X78404721Y-68645000I-44721J0D01*
G01*
X74390500Y-65778800D02*
X74390500Y-68471200D01*
X74390500Y-68471200D02*
X74726447Y-68471200D01*
X79089500Y-68471200D02*
X79089500Y-65778800D01*
X79089500Y-65778800D02*
X78753553Y-65778800D01*
X74726447Y-65778800D02*
X74390500Y-65778800D01*
X78753553Y-68471200D02*
X79089500Y-68471200D01*
X78474018Y-61195000D02*
G75*
G03*
X78474018Y-61195000I-114018J0D01*
G01*
X78404721Y-61195000D02*
G75*
G03*
X78404721Y-61195000I-44721J0D01*
G01*
X74390500Y-58328800D02*
X74390500Y-61021200D01*
X74390500Y-61021200D02*
X74726447Y-61021200D01*
X79089500Y-61021200D02*
X79089500Y-58328800D01*
X79089500Y-58328800D02*
X78753553Y-58328800D01*
X74726447Y-58328800D02*
X74390500Y-58328800D01*
X78753553Y-61021200D02*
X79089500Y-61021200D01*
X78474018Y-53745000D02*
G75*
G03*
X78474018Y-53745000I-114018J0D01*
G01*
X78404721Y-53745000D02*
G75*
G03*
X78404721Y-53745000I-44721J0D01*
G01*
X74390500Y-50878800D02*
X74390500Y-53571200D01*
X74390500Y-53571200D02*
X74726447Y-53571200D01*
X79089500Y-53571200D02*
X79089500Y-50878800D01*
X79089500Y-50878800D02*
X78753553Y-50878800D01*
X74726447Y-50878800D02*
X74390500Y-50878800D01*
X78753553Y-53571200D02*
X79089500Y-53571200D01*
X78474018Y-46295000D02*
G75*
G03*
X78474018Y-46295000I-114018J0D01*
G01*
X78404721Y-46295000D02*
G75*
G03*
X78404721Y-46295000I-44721J0D01*
G01*
X74390500Y-43428800D02*
X74390500Y-46121200D01*
X74390500Y-46121200D02*
X74726447Y-46121200D01*
X79089500Y-46121200D02*
X79089500Y-43428800D01*
X79089500Y-43428800D02*
X78753553Y-43428800D01*
X74726447Y-43428800D02*
X74390500Y-43428800D01*
X78753553Y-46121200D02*
X79089500Y-46121200D01*
X78474018Y-38845000D02*
G75*
G03*
X78474018Y-38845000I-114018J0D01*
G01*
X78404721Y-38845000D02*
G75*
G03*
X78404721Y-38845000I-44721J0D01*
G01*
X74390500Y-35978800D02*
X74390500Y-38671200D01*
X74390500Y-38671200D02*
X74726447Y-38671200D01*
X79089500Y-38671200D02*
X79089500Y-35978800D01*
X79089500Y-35978800D02*
X78753553Y-35978800D01*
X74726447Y-35978800D02*
X74390500Y-35978800D01*
X78753553Y-38671200D02*
X79089500Y-38671200D01*
X78753553Y-31221200D02*
X79089500Y-31221200D01*
X74726447Y-28528800D02*
X74390500Y-28528800D01*
X79089500Y-28528800D02*
X78753553Y-28528800D01*
X79089500Y-31221200D02*
X79089500Y-28528800D01*
X74390500Y-31221200D02*
X74726447Y-31221200D01*
X74390500Y-28528800D02*
X74390500Y-31221200D01*
X78404721Y-31395000D02*
G75*
G03*
X78404721Y-31395000I-44721J0D01*
G01*
X78474018Y-31395000D02*
G75*
G03*
X78474018Y-31395000I-114018J0D01*
G01*
D12*
%TO.C,J1*%
X103115000Y-31585000D02*
X102765000Y-31585000D01*
X103115000Y-28285000D02*
X103115000Y-31585000D01*
X102765000Y-28285000D02*
X103115000Y-28285000D01*
X93415000Y-31585000D02*
X93765000Y-31585000D01*
X93415000Y-28285000D02*
X93415000Y-31585000D01*
X93765000Y-28285000D02*
X93415000Y-28285000D01*
D11*
X95936760Y-31848560D02*
G75*
G03*
X95936760Y-31848560I-100000J0D01*
G01*
D12*
%TO.C,J2*%
X52265000Y-32290000D02*
X52265000Y-27790000D01*
X58165000Y-32290000D02*
X52265000Y-32290000D01*
X58165000Y-27790000D02*
X58165000Y-32290000D01*
X52265000Y-27790000D02*
X58165000Y-27790000D01*
%TO.C,C2*%
D10*
X81846666Y-69045714D02*
X81808571Y-69083809D01*
X81694285Y-69121904D01*
X81618095Y-69121904D01*
X81503809Y-69083809D01*
X81427619Y-69007619D01*
X81389523Y-68931428D01*
X81351428Y-68779047D01*
X81351428Y-68664761D01*
X81389523Y-68512380D01*
X81427619Y-68436190D01*
X81503809Y-68360000D01*
X81618095Y-68321904D01*
X81694285Y-68321904D01*
X81808571Y-68360000D01*
X81846666Y-68398095D01*
X82151428Y-68398095D02*
X82189523Y-68360000D01*
X82265714Y-68321904D01*
X82456190Y-68321904D01*
X82532380Y-68360000D01*
X82570476Y-68398095D01*
X82608571Y-68474285D01*
X82608571Y-68550476D01*
X82570476Y-68664761D01*
X82113333Y-69121904D01*
X82608571Y-69121904D01*
X81846666Y-61595714D02*
X81808571Y-61633809D01*
X81694285Y-61671904D01*
X81618095Y-61671904D01*
X81503809Y-61633809D01*
X81427619Y-61557619D01*
X81389523Y-61481428D01*
X81351428Y-61329047D01*
X81351428Y-61214761D01*
X81389523Y-61062380D01*
X81427619Y-60986190D01*
X81503809Y-60910000D01*
X81618095Y-60871904D01*
X81694285Y-60871904D01*
X81808571Y-60910000D01*
X81846666Y-60948095D01*
X82151428Y-60948095D02*
X82189523Y-60910000D01*
X82265714Y-60871904D01*
X82456190Y-60871904D01*
X82532380Y-60910000D01*
X82570476Y-60948095D01*
X82608571Y-61024285D01*
X82608571Y-61100476D01*
X82570476Y-61214761D01*
X82113333Y-61671904D01*
X82608571Y-61671904D01*
X81846666Y-54145714D02*
X81808571Y-54183809D01*
X81694285Y-54221904D01*
X81618095Y-54221904D01*
X81503809Y-54183809D01*
X81427619Y-54107619D01*
X81389523Y-54031428D01*
X81351428Y-53879047D01*
X81351428Y-53764761D01*
X81389523Y-53612380D01*
X81427619Y-53536190D01*
X81503809Y-53460000D01*
X81618095Y-53421904D01*
X81694285Y-53421904D01*
X81808571Y-53460000D01*
X81846666Y-53498095D01*
X82151428Y-53498095D02*
X82189523Y-53460000D01*
X82265714Y-53421904D01*
X82456190Y-53421904D01*
X82532380Y-53460000D01*
X82570476Y-53498095D01*
X82608571Y-53574285D01*
X82608571Y-53650476D01*
X82570476Y-53764761D01*
X82113333Y-54221904D01*
X82608571Y-54221904D01*
X81846666Y-46695714D02*
X81808571Y-46733809D01*
X81694285Y-46771904D01*
X81618095Y-46771904D01*
X81503809Y-46733809D01*
X81427619Y-46657619D01*
X81389523Y-46581428D01*
X81351428Y-46429047D01*
X81351428Y-46314761D01*
X81389523Y-46162380D01*
X81427619Y-46086190D01*
X81503809Y-46010000D01*
X81618095Y-45971904D01*
X81694285Y-45971904D01*
X81808571Y-46010000D01*
X81846666Y-46048095D01*
X82151428Y-46048095D02*
X82189523Y-46010000D01*
X82265714Y-45971904D01*
X82456190Y-45971904D01*
X82532380Y-46010000D01*
X82570476Y-46048095D01*
X82608571Y-46124285D01*
X82608571Y-46200476D01*
X82570476Y-46314761D01*
X82113333Y-46771904D01*
X82608571Y-46771904D01*
X81846666Y-39245714D02*
X81808571Y-39283809D01*
X81694285Y-39321904D01*
X81618095Y-39321904D01*
X81503809Y-39283809D01*
X81427619Y-39207619D01*
X81389523Y-39131428D01*
X81351428Y-38979047D01*
X81351428Y-38864761D01*
X81389523Y-38712380D01*
X81427619Y-38636190D01*
X81503809Y-38560000D01*
X81618095Y-38521904D01*
X81694285Y-38521904D01*
X81808571Y-38560000D01*
X81846666Y-38598095D01*
X82151428Y-38598095D02*
X82189523Y-38560000D01*
X82265714Y-38521904D01*
X82456190Y-38521904D01*
X82532380Y-38560000D01*
X82570476Y-38598095D01*
X82608571Y-38674285D01*
X82608571Y-38750476D01*
X82570476Y-38864761D01*
X82113333Y-39321904D01*
X82608571Y-39321904D01*
%TO.C,C1*%
X80106666Y-69045714D02*
X80068571Y-69083809D01*
X79954285Y-69121904D01*
X79878095Y-69121904D01*
X79763809Y-69083809D01*
X79687619Y-69007619D01*
X79649523Y-68931428D01*
X79611428Y-68779047D01*
X79611428Y-68664761D01*
X79649523Y-68512380D01*
X79687619Y-68436190D01*
X79763809Y-68360000D01*
X79878095Y-68321904D01*
X79954285Y-68321904D01*
X80068571Y-68360000D01*
X80106666Y-68398095D01*
X80868571Y-69121904D02*
X80411428Y-69121904D01*
X80640000Y-69121904D02*
X80640000Y-68321904D01*
X80563809Y-68436190D01*
X80487619Y-68512380D01*
X80411428Y-68550476D01*
X80106666Y-61595714D02*
X80068571Y-61633809D01*
X79954285Y-61671904D01*
X79878095Y-61671904D01*
X79763809Y-61633809D01*
X79687619Y-61557619D01*
X79649523Y-61481428D01*
X79611428Y-61329047D01*
X79611428Y-61214761D01*
X79649523Y-61062380D01*
X79687619Y-60986190D01*
X79763809Y-60910000D01*
X79878095Y-60871904D01*
X79954285Y-60871904D01*
X80068571Y-60910000D01*
X80106666Y-60948095D01*
X80868571Y-61671904D02*
X80411428Y-61671904D01*
X80640000Y-61671904D02*
X80640000Y-60871904D01*
X80563809Y-60986190D01*
X80487619Y-61062380D01*
X80411428Y-61100476D01*
X80106666Y-54145714D02*
X80068571Y-54183809D01*
X79954285Y-54221904D01*
X79878095Y-54221904D01*
X79763809Y-54183809D01*
X79687619Y-54107619D01*
X79649523Y-54031428D01*
X79611428Y-53879047D01*
X79611428Y-53764761D01*
X79649523Y-53612380D01*
X79687619Y-53536190D01*
X79763809Y-53460000D01*
X79878095Y-53421904D01*
X79954285Y-53421904D01*
X80068571Y-53460000D01*
X80106666Y-53498095D01*
X80868571Y-54221904D02*
X80411428Y-54221904D01*
X80640000Y-54221904D02*
X80640000Y-53421904D01*
X80563809Y-53536190D01*
X80487619Y-53612380D01*
X80411428Y-53650476D01*
X80106666Y-46695714D02*
X80068571Y-46733809D01*
X79954285Y-46771904D01*
X79878095Y-46771904D01*
X79763809Y-46733809D01*
X79687619Y-46657619D01*
X79649523Y-46581428D01*
X79611428Y-46429047D01*
X79611428Y-46314761D01*
X79649523Y-46162380D01*
X79687619Y-46086190D01*
X79763809Y-46010000D01*
X79878095Y-45971904D01*
X79954285Y-45971904D01*
X80068571Y-46010000D01*
X80106666Y-46048095D01*
X80868571Y-46771904D02*
X80411428Y-46771904D01*
X80640000Y-46771904D02*
X80640000Y-45971904D01*
X80563809Y-46086190D01*
X80487619Y-46162380D01*
X80411428Y-46200476D01*
X80106666Y-39245714D02*
X80068571Y-39283809D01*
X79954285Y-39321904D01*
X79878095Y-39321904D01*
X79763809Y-39283809D01*
X79687619Y-39207619D01*
X79649523Y-39131428D01*
X79611428Y-38979047D01*
X79611428Y-38864761D01*
X79649523Y-38712380D01*
X79687619Y-38636190D01*
X79763809Y-38560000D01*
X79878095Y-38521904D01*
X79954285Y-38521904D01*
X80068571Y-38560000D01*
X80106666Y-38598095D01*
X80868571Y-39321904D02*
X80411428Y-39321904D01*
X80640000Y-39321904D02*
X80640000Y-38521904D01*
X80563809Y-38636190D01*
X80487619Y-38712380D01*
X80411428Y-38750476D01*
%TO.C,J1*%
X92063333Y-65901904D02*
X92063333Y-66473333D01*
X92025238Y-66587619D01*
X91949047Y-66663809D01*
X91834761Y-66701904D01*
X91758571Y-66701904D01*
X92863333Y-66701904D02*
X92406190Y-66701904D01*
X92634761Y-66701904D02*
X92634761Y-65901904D01*
X92558571Y-66016190D01*
X92482380Y-66092380D01*
X92406190Y-66130476D01*
X92063333Y-58451904D02*
X92063333Y-59023333D01*
X92025238Y-59137619D01*
X91949047Y-59213809D01*
X91834761Y-59251904D01*
X91758571Y-59251904D01*
X92863333Y-59251904D02*
X92406190Y-59251904D01*
X92634761Y-59251904D02*
X92634761Y-58451904D01*
X92558571Y-58566190D01*
X92482380Y-58642380D01*
X92406190Y-58680476D01*
X92063333Y-51001904D02*
X92063333Y-51573333D01*
X92025238Y-51687619D01*
X91949047Y-51763809D01*
X91834761Y-51801904D01*
X91758571Y-51801904D01*
X92863333Y-51801904D02*
X92406190Y-51801904D01*
X92634761Y-51801904D02*
X92634761Y-51001904D01*
X92558571Y-51116190D01*
X92482380Y-51192380D01*
X92406190Y-51230476D01*
X92063333Y-43551904D02*
X92063333Y-44123333D01*
X92025238Y-44237619D01*
X91949047Y-44313809D01*
X91834761Y-44351904D01*
X91758571Y-44351904D01*
X92863333Y-44351904D02*
X92406190Y-44351904D01*
X92634761Y-44351904D02*
X92634761Y-43551904D01*
X92558571Y-43666190D01*
X92482380Y-43742380D01*
X92406190Y-43780476D01*
X92063333Y-36101904D02*
X92063333Y-36673333D01*
X92025238Y-36787619D01*
X91949047Y-36863809D01*
X91834761Y-36901904D01*
X91758571Y-36901904D01*
X92863333Y-36901904D02*
X92406190Y-36901904D01*
X92634761Y-36901904D02*
X92634761Y-36101904D01*
X92558571Y-36216190D01*
X92482380Y-36292380D01*
X92406190Y-36330476D01*
%TO.C,J2*%
X50653333Y-65901904D02*
X50653333Y-66473333D01*
X50615238Y-66587619D01*
X50539047Y-66663809D01*
X50424761Y-66701904D01*
X50348571Y-66701904D01*
X50996190Y-65978095D02*
X51034285Y-65940000D01*
X51110476Y-65901904D01*
X51300952Y-65901904D01*
X51377142Y-65940000D01*
X51415238Y-65978095D01*
X51453333Y-66054285D01*
X51453333Y-66130476D01*
X51415238Y-66244761D01*
X50958095Y-66701904D01*
X51453333Y-66701904D01*
X50653333Y-58451904D02*
X50653333Y-59023333D01*
X50615238Y-59137619D01*
X50539047Y-59213809D01*
X50424761Y-59251904D01*
X50348571Y-59251904D01*
X50996190Y-58528095D02*
X51034285Y-58490000D01*
X51110476Y-58451904D01*
X51300952Y-58451904D01*
X51377142Y-58490000D01*
X51415238Y-58528095D01*
X51453333Y-58604285D01*
X51453333Y-58680476D01*
X51415238Y-58794761D01*
X50958095Y-59251904D01*
X51453333Y-59251904D01*
X50653333Y-51001904D02*
X50653333Y-51573333D01*
X50615238Y-51687619D01*
X50539047Y-51763809D01*
X50424761Y-51801904D01*
X50348571Y-51801904D01*
X50996190Y-51078095D02*
X51034285Y-51040000D01*
X51110476Y-51001904D01*
X51300952Y-51001904D01*
X51377142Y-51040000D01*
X51415238Y-51078095D01*
X51453333Y-51154285D01*
X51453333Y-51230476D01*
X51415238Y-51344761D01*
X50958095Y-51801904D01*
X51453333Y-51801904D01*
X50653333Y-43551904D02*
X50653333Y-44123333D01*
X50615238Y-44237619D01*
X50539047Y-44313809D01*
X50424761Y-44351904D01*
X50348571Y-44351904D01*
X50996190Y-43628095D02*
X51034285Y-43590000D01*
X51110476Y-43551904D01*
X51300952Y-43551904D01*
X51377142Y-43590000D01*
X51415238Y-43628095D01*
X51453333Y-43704285D01*
X51453333Y-43780476D01*
X51415238Y-43894761D01*
X50958095Y-44351904D01*
X51453333Y-44351904D01*
X50653333Y-36101904D02*
X50653333Y-36673333D01*
X50615238Y-36787619D01*
X50539047Y-36863809D01*
X50424761Y-36901904D01*
X50348571Y-36901904D01*
X50996190Y-36178095D02*
X51034285Y-36140000D01*
X51110476Y-36101904D01*
X51300952Y-36101904D01*
X51377142Y-36140000D01*
X51415238Y-36178095D01*
X51453333Y-36254285D01*
X51453333Y-36330476D01*
X51415238Y-36444761D01*
X50958095Y-36901904D01*
X51453333Y-36901904D01*
%TO.C,R2*%
X85326666Y-69121904D02*
X85060000Y-68740952D01*
X84869523Y-69121904D02*
X84869523Y-68321904D01*
X85174285Y-68321904D01*
X85250476Y-68360000D01*
X85288571Y-68398095D01*
X85326666Y-68474285D01*
X85326666Y-68588571D01*
X85288571Y-68664761D01*
X85250476Y-68702857D01*
X85174285Y-68740952D01*
X84869523Y-68740952D01*
X85631428Y-68398095D02*
X85669523Y-68360000D01*
X85745714Y-68321904D01*
X85936190Y-68321904D01*
X86012380Y-68360000D01*
X86050476Y-68398095D01*
X86088571Y-68474285D01*
X86088571Y-68550476D01*
X86050476Y-68664761D01*
X85593333Y-69121904D01*
X86088571Y-69121904D01*
X85326666Y-61671904D02*
X85060000Y-61290952D01*
X84869523Y-61671904D02*
X84869523Y-60871904D01*
X85174285Y-60871904D01*
X85250476Y-60910000D01*
X85288571Y-60948095D01*
X85326666Y-61024285D01*
X85326666Y-61138571D01*
X85288571Y-61214761D01*
X85250476Y-61252857D01*
X85174285Y-61290952D01*
X84869523Y-61290952D01*
X85631428Y-60948095D02*
X85669523Y-60910000D01*
X85745714Y-60871904D01*
X85936190Y-60871904D01*
X86012380Y-60910000D01*
X86050476Y-60948095D01*
X86088571Y-61024285D01*
X86088571Y-61100476D01*
X86050476Y-61214761D01*
X85593333Y-61671904D01*
X86088571Y-61671904D01*
X85326666Y-54221904D02*
X85060000Y-53840952D01*
X84869523Y-54221904D02*
X84869523Y-53421904D01*
X85174285Y-53421904D01*
X85250476Y-53460000D01*
X85288571Y-53498095D01*
X85326666Y-53574285D01*
X85326666Y-53688571D01*
X85288571Y-53764761D01*
X85250476Y-53802857D01*
X85174285Y-53840952D01*
X84869523Y-53840952D01*
X85631428Y-53498095D02*
X85669523Y-53460000D01*
X85745714Y-53421904D01*
X85936190Y-53421904D01*
X86012380Y-53460000D01*
X86050476Y-53498095D01*
X86088571Y-53574285D01*
X86088571Y-53650476D01*
X86050476Y-53764761D01*
X85593333Y-54221904D01*
X86088571Y-54221904D01*
X85326666Y-46771904D02*
X85060000Y-46390952D01*
X84869523Y-46771904D02*
X84869523Y-45971904D01*
X85174285Y-45971904D01*
X85250476Y-46010000D01*
X85288571Y-46048095D01*
X85326666Y-46124285D01*
X85326666Y-46238571D01*
X85288571Y-46314761D01*
X85250476Y-46352857D01*
X85174285Y-46390952D01*
X84869523Y-46390952D01*
X85631428Y-46048095D02*
X85669523Y-46010000D01*
X85745714Y-45971904D01*
X85936190Y-45971904D01*
X86012380Y-46010000D01*
X86050476Y-46048095D01*
X86088571Y-46124285D01*
X86088571Y-46200476D01*
X86050476Y-46314761D01*
X85593333Y-46771904D01*
X86088571Y-46771904D01*
X85326666Y-39321904D02*
X85060000Y-38940952D01*
X84869523Y-39321904D02*
X84869523Y-38521904D01*
X85174285Y-38521904D01*
X85250476Y-38560000D01*
X85288571Y-38598095D01*
X85326666Y-38674285D01*
X85326666Y-38788571D01*
X85288571Y-38864761D01*
X85250476Y-38902857D01*
X85174285Y-38940952D01*
X84869523Y-38940952D01*
X85631428Y-38598095D02*
X85669523Y-38560000D01*
X85745714Y-38521904D01*
X85936190Y-38521904D01*
X86012380Y-38560000D01*
X86050476Y-38598095D01*
X86088571Y-38674285D01*
X86088571Y-38750476D01*
X86050476Y-38864761D01*
X85593333Y-39321904D01*
X86088571Y-39321904D01*
%TO.C,U1*%
X72130476Y-66736904D02*
X72130476Y-67384523D01*
X72168571Y-67460714D01*
X72206666Y-67498809D01*
X72282857Y-67536904D01*
X72435238Y-67536904D01*
X72511428Y-67498809D01*
X72549523Y-67460714D01*
X72587619Y-67384523D01*
X72587619Y-66736904D01*
X73387619Y-67536904D02*
X72930476Y-67536904D01*
X73159047Y-67536904D02*
X73159047Y-66736904D01*
X73082857Y-66851190D01*
X73006666Y-66927380D01*
X72930476Y-66965476D01*
X72130476Y-59286904D02*
X72130476Y-59934523D01*
X72168571Y-60010714D01*
X72206666Y-60048809D01*
X72282857Y-60086904D01*
X72435238Y-60086904D01*
X72511428Y-60048809D01*
X72549523Y-60010714D01*
X72587619Y-59934523D01*
X72587619Y-59286904D01*
X73387619Y-60086904D02*
X72930476Y-60086904D01*
X73159047Y-60086904D02*
X73159047Y-59286904D01*
X73082857Y-59401190D01*
X73006666Y-59477380D01*
X72930476Y-59515476D01*
X72130476Y-51836904D02*
X72130476Y-52484523D01*
X72168571Y-52560714D01*
X72206666Y-52598809D01*
X72282857Y-52636904D01*
X72435238Y-52636904D01*
X72511428Y-52598809D01*
X72549523Y-52560714D01*
X72587619Y-52484523D01*
X72587619Y-51836904D01*
X73387619Y-52636904D02*
X72930476Y-52636904D01*
X73159047Y-52636904D02*
X73159047Y-51836904D01*
X73082857Y-51951190D01*
X73006666Y-52027380D01*
X72930476Y-52065476D01*
X72130476Y-44386904D02*
X72130476Y-45034523D01*
X72168571Y-45110714D01*
X72206666Y-45148809D01*
X72282857Y-45186904D01*
X72435238Y-45186904D01*
X72511428Y-45148809D01*
X72549523Y-45110714D01*
X72587619Y-45034523D01*
X72587619Y-44386904D01*
X73387619Y-45186904D02*
X72930476Y-45186904D01*
X73159047Y-45186904D02*
X73159047Y-44386904D01*
X73082857Y-44501190D01*
X73006666Y-44577380D01*
X72930476Y-44615476D01*
X72130476Y-36936904D02*
X72130476Y-37584523D01*
X72168571Y-37660714D01*
X72206666Y-37698809D01*
X72282857Y-37736904D01*
X72435238Y-37736904D01*
X72511428Y-37698809D01*
X72549523Y-37660714D01*
X72587619Y-37584523D01*
X72587619Y-36936904D01*
X73387619Y-37736904D02*
X72930476Y-37736904D01*
X73159047Y-37736904D02*
X73159047Y-36936904D01*
X73082857Y-37051190D01*
X73006666Y-37127380D01*
X72930476Y-37165476D01*
%TO.C,R1*%
X83586666Y-69121904D02*
X83320000Y-68740952D01*
X83129523Y-69121904D02*
X83129523Y-68321904D01*
X83434285Y-68321904D01*
X83510476Y-68360000D01*
X83548571Y-68398095D01*
X83586666Y-68474285D01*
X83586666Y-68588571D01*
X83548571Y-68664761D01*
X83510476Y-68702857D01*
X83434285Y-68740952D01*
X83129523Y-68740952D01*
X84348571Y-69121904D02*
X83891428Y-69121904D01*
X84120000Y-69121904D02*
X84120000Y-68321904D01*
X84043809Y-68436190D01*
X83967619Y-68512380D01*
X83891428Y-68550476D01*
X83586666Y-61671904D02*
X83320000Y-61290952D01*
X83129523Y-61671904D02*
X83129523Y-60871904D01*
X83434285Y-60871904D01*
X83510476Y-60910000D01*
X83548571Y-60948095D01*
X83586666Y-61024285D01*
X83586666Y-61138571D01*
X83548571Y-61214761D01*
X83510476Y-61252857D01*
X83434285Y-61290952D01*
X83129523Y-61290952D01*
X84348571Y-61671904D02*
X83891428Y-61671904D01*
X84120000Y-61671904D02*
X84120000Y-60871904D01*
X84043809Y-60986190D01*
X83967619Y-61062380D01*
X83891428Y-61100476D01*
X83586666Y-54221904D02*
X83320000Y-53840952D01*
X83129523Y-54221904D02*
X83129523Y-53421904D01*
X83434285Y-53421904D01*
X83510476Y-53460000D01*
X83548571Y-53498095D01*
X83586666Y-53574285D01*
X83586666Y-53688571D01*
X83548571Y-53764761D01*
X83510476Y-53802857D01*
X83434285Y-53840952D01*
X83129523Y-53840952D01*
X84348571Y-54221904D02*
X83891428Y-54221904D01*
X84120000Y-54221904D02*
X84120000Y-53421904D01*
X84043809Y-53536190D01*
X83967619Y-53612380D01*
X83891428Y-53650476D01*
X83586666Y-46771904D02*
X83320000Y-46390952D01*
X83129523Y-46771904D02*
X83129523Y-45971904D01*
X83434285Y-45971904D01*
X83510476Y-46010000D01*
X83548571Y-46048095D01*
X83586666Y-46124285D01*
X83586666Y-46238571D01*
X83548571Y-46314761D01*
X83510476Y-46352857D01*
X83434285Y-46390952D01*
X83129523Y-46390952D01*
X84348571Y-46771904D02*
X83891428Y-46771904D01*
X84120000Y-46771904D02*
X84120000Y-45971904D01*
X84043809Y-46086190D01*
X83967619Y-46162380D01*
X83891428Y-46200476D01*
X83586666Y-39321904D02*
X83320000Y-38940952D01*
X83129523Y-39321904D02*
X83129523Y-38521904D01*
X83434285Y-38521904D01*
X83510476Y-38560000D01*
X83548571Y-38598095D01*
X83586666Y-38674285D01*
X83586666Y-38788571D01*
X83548571Y-38864761D01*
X83510476Y-38902857D01*
X83434285Y-38940952D01*
X83129523Y-38940952D01*
X84348571Y-39321904D02*
X83891428Y-39321904D01*
X84120000Y-39321904D02*
X84120000Y-38521904D01*
X84043809Y-38636190D01*
X83967619Y-38712380D01*
X83891428Y-38750476D01*
%TO.C,U1*%
X72130476Y-29486904D02*
X72130476Y-30134523D01*
X72168571Y-30210714D01*
X72206666Y-30248809D01*
X72282857Y-30286904D01*
X72435238Y-30286904D01*
X72511428Y-30248809D01*
X72549523Y-30210714D01*
X72587619Y-30134523D01*
X72587619Y-29486904D01*
X73387619Y-30286904D02*
X72930476Y-30286904D01*
X73159047Y-30286904D02*
X73159047Y-29486904D01*
X73082857Y-29601190D01*
X73006666Y-29677380D01*
X72930476Y-29715476D01*
%TO.C,J1*%
X92063333Y-28651904D02*
X92063333Y-29223333D01*
X92025238Y-29337619D01*
X91949047Y-29413809D01*
X91834761Y-29451904D01*
X91758571Y-29451904D01*
X92863333Y-29451904D02*
X92406190Y-29451904D01*
X92634761Y-29451904D02*
X92634761Y-28651904D01*
X92558571Y-28766190D01*
X92482380Y-28842380D01*
X92406190Y-28880476D01*
%TO.C,J2*%
X50653333Y-28651904D02*
X50653333Y-29223333D01*
X50615238Y-29337619D01*
X50539047Y-29413809D01*
X50424761Y-29451904D01*
X50348571Y-29451904D01*
X50996190Y-28728095D02*
X51034285Y-28690000D01*
X51110476Y-28651904D01*
X51300952Y-28651904D01*
X51377142Y-28690000D01*
X51415238Y-28728095D01*
X51453333Y-28804285D01*
X51453333Y-28880476D01*
X51415238Y-28994761D01*
X50958095Y-29451904D01*
X51453333Y-29451904D01*
%TO.C,C1*%
X80106666Y-31795714D02*
X80068571Y-31833809D01*
X79954285Y-31871904D01*
X79878095Y-31871904D01*
X79763809Y-31833809D01*
X79687619Y-31757619D01*
X79649523Y-31681428D01*
X79611428Y-31529047D01*
X79611428Y-31414761D01*
X79649523Y-31262380D01*
X79687619Y-31186190D01*
X79763809Y-31110000D01*
X79878095Y-31071904D01*
X79954285Y-31071904D01*
X80068571Y-31110000D01*
X80106666Y-31148095D01*
X80868571Y-31871904D02*
X80411428Y-31871904D01*
X80640000Y-31871904D02*
X80640000Y-31071904D01*
X80563809Y-31186190D01*
X80487619Y-31262380D01*
X80411428Y-31300476D01*
%TO.C,C2*%
X81846666Y-31795714D02*
X81808571Y-31833809D01*
X81694285Y-31871904D01*
X81618095Y-31871904D01*
X81503809Y-31833809D01*
X81427619Y-31757619D01*
X81389523Y-31681428D01*
X81351428Y-31529047D01*
X81351428Y-31414761D01*
X81389523Y-31262380D01*
X81427619Y-31186190D01*
X81503809Y-31110000D01*
X81618095Y-31071904D01*
X81694285Y-31071904D01*
X81808571Y-31110000D01*
X81846666Y-31148095D01*
X82151428Y-31148095D02*
X82189523Y-31110000D01*
X82265714Y-31071904D01*
X82456190Y-31071904D01*
X82532380Y-31110000D01*
X82570476Y-31148095D01*
X82608571Y-31224285D01*
X82608571Y-31300476D01*
X82570476Y-31414761D01*
X82113333Y-31871904D01*
X82608571Y-31871904D01*
%TO.C,R2*%
X85326666Y-31871904D02*
X85060000Y-31490952D01*
X84869523Y-31871904D02*
X84869523Y-31071904D01*
X85174285Y-31071904D01*
X85250476Y-31110000D01*
X85288571Y-31148095D01*
X85326666Y-31224285D01*
X85326666Y-31338571D01*
X85288571Y-31414761D01*
X85250476Y-31452857D01*
X85174285Y-31490952D01*
X84869523Y-31490952D01*
X85631428Y-31148095D02*
X85669523Y-31110000D01*
X85745714Y-31071904D01*
X85936190Y-31071904D01*
X86012380Y-31110000D01*
X86050476Y-31148095D01*
X86088571Y-31224285D01*
X86088571Y-31300476D01*
X86050476Y-31414761D01*
X85593333Y-31871904D01*
X86088571Y-31871904D01*
%TO.C,R1*%
X83586666Y-31871904D02*
X83320000Y-31490952D01*
X83129523Y-31871904D02*
X83129523Y-31071904D01*
X83434285Y-31071904D01*
X83510476Y-31110000D01*
X83548571Y-31148095D01*
X83586666Y-31224285D01*
X83586666Y-31338571D01*
X83548571Y-31414761D01*
X83510476Y-31452857D01*
X83434285Y-31490952D01*
X83129523Y-31490952D01*
X84348571Y-31871904D02*
X83891428Y-31871904D01*
X84120000Y-31871904D02*
X84120000Y-31071904D01*
X84043809Y-31186190D01*
X83967619Y-31262380D01*
X83891428Y-31300476D01*
%TD*%
M02*
