%TF.GenerationSoftware,KiCad,Pcbnew,(5.1.9)-1*%
%TF.CreationDate,2022-02-15T00:45:03-06:00*%
%TF.ProjectId,CC_TOF_PANELIZED,43435f54-4f46-45f5-9041-4e454c495a45,000*%
%TF.SameCoordinates,Original*%
%TF.FileFunction,Paste,Bot*%
%TF.FilePolarity,Positive*%
%FSLAX46Y46*%
G04 Gerber Fmt 4.6, Leading zero omitted, Abs format (unit mm)*
G04 Created by KiCad (PCBNEW (5.1.9)-1) date 2022-02-15 00:45:03*
%MOMM*%
%LPD*%
G01*
G04 APERTURE LIST*
%ADD10R,0.508000X0.508000*%
%ADD11C,2.000000*%
G04 APERTURE END LIST*
D10*
%TO.C,U2*%
X78339999Y-66325027D03*
X77540001Y-66325027D03*
X76740000Y-66325027D03*
X75939999Y-66325027D03*
X75140001Y-66325027D03*
X75140054Y-67125000D03*
X75140001Y-67924973D03*
X75939999Y-67924973D03*
X76740000Y-67924973D03*
X77540001Y-67924973D03*
X78339999Y-67924973D03*
X78339946Y-67125000D03*
%TD*%
%TO.C,U2*%
X78339999Y-58875027D03*
X77540001Y-58875027D03*
X76740000Y-58875027D03*
X75939999Y-58875027D03*
X75140001Y-58875027D03*
X75140054Y-59675000D03*
X75140001Y-60474973D03*
X75939999Y-60474973D03*
X76740000Y-60474973D03*
X77540001Y-60474973D03*
X78339999Y-60474973D03*
X78339946Y-59675000D03*
%TD*%
%TO.C,U2*%
X78339999Y-51425027D03*
X77540001Y-51425027D03*
X76740000Y-51425027D03*
X75939999Y-51425027D03*
X75140001Y-51425027D03*
X75140054Y-52225000D03*
X75140001Y-53024973D03*
X75939999Y-53024973D03*
X76740000Y-53024973D03*
X77540001Y-53024973D03*
X78339999Y-53024973D03*
X78339946Y-52225000D03*
%TD*%
%TO.C,U2*%
X78339999Y-43975027D03*
X77540001Y-43975027D03*
X76740000Y-43975027D03*
X75939999Y-43975027D03*
X75140001Y-43975027D03*
X75140054Y-44775000D03*
X75140001Y-45574973D03*
X75939999Y-45574973D03*
X76740000Y-45574973D03*
X77540001Y-45574973D03*
X78339999Y-45574973D03*
X78339946Y-44775000D03*
%TD*%
%TO.C,U2*%
X78339999Y-36525027D03*
X77540001Y-36525027D03*
X76740000Y-36525027D03*
X75939999Y-36525027D03*
X75140001Y-36525027D03*
X75140054Y-37325000D03*
X75140001Y-38124973D03*
X75939999Y-38124973D03*
X76740000Y-38124973D03*
X77540001Y-38124973D03*
X78339999Y-38124973D03*
X78339946Y-37325000D03*
%TD*%
D11*
%TO.C,REF\u002A\u002A*%
X43740000Y-73610000D03*
%TD*%
%TO.C,REF\u002A\u002A*%
X109740000Y-23785000D03*
%TD*%
D10*
%TO.C,U2*%
X78339946Y-29875000D03*
X78339999Y-30674973D03*
X77540001Y-30674973D03*
X76740000Y-30674973D03*
X75939999Y-30674973D03*
X75140001Y-30674973D03*
X75140054Y-29875000D03*
X75140001Y-29075027D03*
X75939999Y-29075027D03*
X76740000Y-29075027D03*
X77540001Y-29075027D03*
X78339999Y-29075027D03*
%TD*%
M02*
